<svg xmlns="http://www.w3.org/2000/svg" width="40" height="40" viewBox="0 0 40 40">
    <g fill="none" fill-rule="evenodd">
        <g>
            <g>
                <g>
                    <g>
                        <path fill="#96003E" d="M32.728 11.568v3.725c0 .726-.582 1.31-1.29 1.31H1.291c-.71 0-1.291-.584-1.291-1.31V8.86C0 7.132 2.183 2.599 3.219.872 3.564.326 4.146 0 4.783 0h12.8c.945 0 1.836.416 2.472 1.127l4.582 5.913 6.018 1.818c1.182.398 2 1.473 2.073 2.709" transform="translate(-647 -102) translate(635 102) translate(12) translate(3.636 10.91)"/>
                        <path fill="#630731" d="M30.637 9.84c-.345-.436-.836-.781-1.4-.981L23.22 7.04l-4.582-5.912C18.001.417 17.11 0 16.165 0h1.418c.945 0 1.836.417 2.472 1.128l4.582 5.912 6.018 1.819c.564.181 1.037.527 1.382.963h-1.382l-.018.018zM31.31 12.422h1.418v2.87c0 .728-.581 1.31-1.29 1.31h-1.419c.71 0 1.291-.582 1.291-1.31v-2.87z" transform="translate(-647 -102) translate(635 102) translate(12) translate(3.636 10.91)"/>
                        <path fill="#E7E5E2" d="M1.725 9.826c.45.033.807.407.807.866 0 .45-.344.82-.782.861l-.025.002-1.726.002v-1.73h1.726z" transform="translate(-647 -102) translate(635 102) translate(12) translate(3.636 10.91)"/>
                        <path fill="#D6D1CA" d="M32.728 11.568v.855H31.31v-.855c-.037-.638-.273-1.236-.673-1.727l.018-.018h1.4c.2.254.364.545.491.854.091.273.164.582.182.891" transform="translate(-647 -102) translate(635 102) translate(12) translate(3.636 10.91)"/>
                        <path fill="#E7E5E2" d="M31.31 11.568v.855h-.654c-.673-.057-1.219-.619-1.219-1.291 0-.673.528-1.237 1.182-1.291h.018c.4.49.637 1.089.673 1.727" transform="translate(-647 -102) translate(635 102) translate(12) translate(3.636 10.91)"/>
                        <path fill="#D6D1CA" d="M21.001 6.204L18.13 2.162c-.164-.198-.419-.309-.691-.309h-5c-.51 0-.91.402-.91.91v4.041c0 .49.4.91.91.91h7.872c.782 0 1.2-.928.691-1.51M9.147 1.854H5.129c-.364 0-.691.22-.837.565L2.93 6.459c-.255.581.181 1.254.836 1.254h5.382c.509 0 .909-.418.909-.909V2.762c0-.507-.4-.909-.91-.909" transform="translate(-647 -102) translate(635 102) translate(12) translate(3.636 10.91)"/>
                        <path fill="#630731" d="M13.285 10.547h1.653c.457 0 .826.371.826.826 0 .456-.37.827-.826.827h-1.653c-.456 0-.827-.371-.827-.827 0-.455.371-.826.827-.826" transform="translate(-647 -102) translate(635 102) translate(12) translate(3.636 10.91)"/>
                        <path fill="#AFAAA3" d="M20.31 7.713h-1.4c.763 0 1.181-.927.672-1.509l-2.854-4.042c-.182-.198-.437-.309-.691-.309h1.4c.273 0 .527.111.69.31l2.874 4.041c.509.582.09 1.51-.691 1.51" transform="translate(-647 -102) translate(635 102) translate(12) translate(3.636 10.91)"/>
                        <path fill="#5B5B5B" d="M12.604 9.865h1.652c.457 0 .826.371.826.826 0 .456-.37.827-.826.827h-1.652c-.457 0-.828-.37-.828-.827 0-.455.371-.826.828-.826" transform="translate(-647 -102) translate(635 102) translate(12) translate(3.636 10.91)"/>
                        <path fill="#630731" d="M28.028 16.492c0 .038 0 .072-.018.11h-6.8c-.018-.038-.018-.072-.018-.11 0-1.89 1.527-3.419 3.418-3.419 1.89 0 3.418 1.53 3.418 3.419M8.103 16.492c0 .038 0 .072-.019.11h-6.8c-.018-.038-.018-.072-.018-.11 0-1.89 1.527-3.419 3.418-3.419 1.891 0 3.419 1.53 3.419 3.419" transform="translate(-647 -102) translate(635 102) translate(12) translate(3.636 10.91)"/>
                        <path fill="#5B5B5B" d="M6.08 13.077c-1.892 0-3.423 1.533-3.423 3.424 0 1.889 1.531 3.422 3.422 3.422 1.891 0 3.422-1.533 3.422-3.422 0-1.891-1.53-3.424-3.422-3.424M25.983 13.077c-1.89 0-3.421 1.533-3.421 3.424 0 1.889 1.53 3.422 3.421 3.422 1.891 0 3.422-1.533 3.422-3.422 0-1.891-1.53-3.424-3.422-3.424" transform="translate(-647 -102) translate(635 102) translate(12) translate(3.636 10.91)"/>
                        <path fill="#D6D1CA" d="M6.08 18.27c.977 0 1.77-.794 1.77-1.77 0-.978-.793-1.77-1.77-1.77-.979 0-1.772.792-1.772 1.77 0 .976.793 1.77 1.771 1.77M25.983 18.27c.979 0 1.771-.794 1.771-1.77 0-.978-.792-1.77-1.77-1.77-.979 0-1.771.792-1.771 1.77 0 .976.792 1.77 1.77 1.77" transform="translate(-647 -102) translate(635 102) translate(12) translate(3.636 10.91)"/>
                        <path fill="#3E3D40" d="M29.4 16.492c0 1.89-1.527 3.438-3.418 3.438-.236 0-.472-.018-.69-.073C26.836 19.53 28 18.147 28 16.492c0-1.653-1.164-3.017-2.71-3.346.219-.053.455-.073.691-.073 1.891 0 3.419 1.53 3.419 3.419M9.479 16.492c0 1.89-1.528 3.438-3.418 3.438-.237 0-.473-.018-.691-.073 1.545-.327 2.709-1.71 2.709-3.365 0-1.653-1.164-3.017-2.71-3.346.219-.053.455-.073.692-.073 1.89 0 3.418 1.53 3.418 3.419" transform="translate(-647 -102) translate(635 102) translate(12) translate(3.636 10.91)"/>
                        <path fill="#AFAAA3" d="M27.747 16.492c0 .981-.782 1.781-1.764 1.781-.236 0-.473-.054-.673-.145.637-.273 1.091-.91 1.091-1.636 0-.726-.454-1.344-1.09-1.619.2-.089.436-.145.672-.145.982 0 1.764.802 1.764 1.764M7.856 16.492c0 .981-.782 1.781-1.764 1.781-.236 0-.473-.054-.673-.145.637-.273 1.091-.91 1.091-1.636 0-.726-.454-1.344-1.09-1.619.2-.089.436-.145.672-.145.982 0 1.764.802 1.764 1.764" transform="translate(-647 -102) translate(635 102) translate(12) translate(3.636 10.91)"/>
                        <path fill="#3E3D40" d="M15.073 10.695c0 .454-.363.818-.818.818h-.69c.454 0 .836-.364.836-.818 0-.455-.382-.837-.837-.837h.691c.455 0 .818.382.818.837" transform="translate(-647 -102) translate(635 102) translate(12) translate(3.636 10.91)"/>
                    </g>
                </g>
            </g>
        </g>
    </g>
</svg>
