<svg xmlns="http://www.w3.org/2000/svg" width="22" height="22" viewBox="0 0 22 22">
    <path fill="#D52B1E" d="M14.15 16.56v1H6v-1h8.15zm-.476-11.407c.182-.181.463-.201.667-.06l.072.06 1.67 1.582c.1.093.16.222.168.364.003.11-.027.217-.09.31l-.052.067-6.636 7c-.025.026-.055.048-.087.065l-.05.021-1.66.548c-.03.014-.06.023-.09.028l-.93.306c-.225.074-.445-.106-.433-.33l.01-.068.713-2.716c.009-.036.024-.07.045-.1l.034-.044 6.65-7.033zm-.811 1.818l-5.3 5.608-.38 1.45.429.404 1.438-.472 5.297-5.588-1.484-1.402zm1.186-1.253l-.731.772 1.484 1.403.73-.77-1.483-1.405z"/>
</svg>
