<?xml version="1.0" encoding="UTF-8"?>
<svg width="30px" height="30px" viewBox="0 0 30 30" version="1.1" xmlns="http://www.w3.org/2000/svg" xmlns:xlink="http://www.w3.org/1999/xlink">
    <title>9F276064-7182-41B7-91E2-F4016F8E2A01</title>
    <g id="Seguros---Cotización---Autos" stroke="none" stroke-width="1" fill="none" fill-rule="evenodd">
        <g id="M---Seguros---Cotiz-Auto---Paso-7---Planes-4---Modal-Coberturas" transform="translate(-15.000000, -551.000000)">
            <g id="Modal-vertical-Copy" transform="translate(15.000000, 150.000000)">
                <g id="Terceros-Full" transform="translate(0.000000, 401.000000)">
                    <g id="Group-10" transform="translate(2.727273, 2.727273)">
                        <path d="M8.06045455,24.5451818 C5.37818182,24.5451818 3.19636364,22.3633636 3.19636364,19.6810909 L3.19636364,19.3401818 C3.19636364,18.9624545 3.50181818,18.6583636 3.87818182,18.6583636 C4.25454545,18.6583636 4.56,18.9624545 4.56,19.3401818 L4.56,19.6810909 C4.56,21.612 6.12954545,23.1815455 8.06045455,23.1815455 C9.99136364,23.1815455 11.5609091,21.612 11.5609091,19.6810909 L11.5609091,0.681545455 C11.5609091,0.305181818 11.8663636,-0.000272727273 12.2427273,-0.000272727273 C12.6190909,-0.000272727273 12.9245455,0.305181818 12.9245455,0.681545455 L12.9245455,19.6810909 C12.9245455,22.3633636 10.7427273,24.5451818 8.06045455,24.5451818" id="Fill-1" fill="#96003E"></path>
                        <path d="M12.1945909,1.70686364 C10.0605,1.71913636 8.36822727,7.22413636 8.40777273,14.0055 L8.40777273,14.6559545 L8.39413636,14.6559545 C8.04368182,14.6682273 7.74368182,14.3695909 7.74368182,14.0177727 L7.74368182,14.0055 C7.73140909,13.3809545 7.36595455,12.8082273 6.78095455,12.3909545 C6.19459091,11.9750455 5.38868182,11.7405 4.50231818,11.7405 C2.72004545,11.7541364 1.28822727,12.7823182 1.30186364,14.0436818 L1.30186364,14.0573182 C1.30186364,14.4091364 1.00186364,14.7077727 0.651409091,14.7077727 C0.287318182,14.7077727 0.000954545455,14.4091364 0.000954545455,14.0573182 C-0.0385909091,7.27595455 5.41459091,1.74504545 12.1945909,1.70686364" id="Fill-4" fill="#FF3F3E"></path>
                        <path d="M20.9011364,5.25981818 C18.6893182,3.07254545 15.6306818,1.70754545 12.2856818,1.70754545 C13.3275,1.77163636 14.2506818,3.138 14.9406818,5.28572727 C15.6565909,7.49890909 16.0997727,10.5698182 16.1256818,13.9666364 L16.1256818,14.6170909 L16.1515909,14.6170909 C16.5020455,14.6170909 16.8020455,14.3184545 16.8020455,13.9666364 L16.8020455,13.953 C16.7884091,12.6902727 18.2325,11.6620909 20.0161364,11.6498182 C20.9011364,11.6498182 21.7084091,11.8843636 22.2934091,12.3002727 C22.8797727,12.7175455 23.2438636,13.2902727 23.2575,13.9148182 L23.2575,14.058 C23.3215909,14.3443636 23.5820455,14.5775455 23.8943182,14.5652727 C24.2584091,14.5652727 24.5447727,14.2652727 24.5447727,13.9148182 C24.5188636,10.5166364 23.1402273,7.45936364 20.9011364,5.25981818" id="Fill-6" fill="#C40808"></path>
                        <path d="M16.1251364,13.9663636 L16.1251364,14.6168182 C15.7733182,14.6045455 15.5005909,14.3045455 15.5005909,13.9663636 L15.5005909,13.9527273 C15.4869545,13.3281818 15.1228636,12.7554545 14.5365,12.3518182 C13.9515,11.9359091 13.1442273,11.6890909 12.2605909,11.7013636 C10.4769545,11.7013636 9.03286364,12.7295455 9.04513636,13.9922727 L9.04513636,14.0059091 C9.04513636,14.3563636 8.77240909,14.6427273 8.40695455,14.6563636 L8.40695455,14.0059091 C8.36877273,7.22454545 10.0610455,1.71954545 12.1951364,1.70727273 L12.2865,1.70727273 C13.3269545,1.77136364 14.2501364,3.13909091 14.9401364,5.28545455 C15.6560455,7.49863636 16.0992273,10.5695455 16.1251364,13.9663636" id="Fill-8" fill="#E70000"></path>
                    </g>
                </g>
            </g>
        </g>
    </g>
</svg>