<svg width="24" height="18" viewBox="0 0 24 18" fill="none" xmlns="http://www.w3.org/2000/svg">
<path fill-rule="evenodd" clip-rule="evenodd" d="M23.6364 1.97003V15.1013C23.6364 16.1912 22.7566 17.071 21.6667 17.071H1.9697C0.879798 17.071 0 16.1912 0 15.1013V1.97003C0 1.48417 0.170707 1.0377 0.485859 0.696289L10.5707 9.48114C11.3192 10.0852 12.3828 10.072 13.1182 9.44174L23.1505 0.696289C23.4657 1.0377 23.6364 1.48417 23.6364 1.97003Z" fill="#FFAB1C"/>
<path fill-rule="evenodd" clip-rule="evenodd" d="M23.151 16.3747L13.1187 7.62927C12.3833 6.99897 11.3197 6.98584 10.5712 7.58988L0.486328 16.3747C0.827742 16.8081 1.36613 17.0707 1.97017 17.0707H21.6671C22.2712 17.0707 22.8096 16.8081 23.151 16.3747Z" fill="#FF9D00"/>
<path fill-rule="evenodd" clip-rule="evenodd" d="M19.4609 17.0741H19.7695C20.8568 17.0741 21.7392 16.193 21.7392 15.1044V1.97574C21.7392 0.887155 20.8555 0.0047311 19.7656 0.00604423H19.4609C19.4609 0.0047311 20.7412 0.00341797 21.6683 0.00341797C22.7569 0.00341797 23.6406 0.884529 23.6406 1.97311V15.1044C23.6406 16.1917 22.7582 17.0741 21.6709 17.0741H19.4609Z" fill="#FF9D00"/>
<path fill-rule="evenodd" clip-rule="evenodd" d="M23.151 0.69596L13.1187 9.44141C12.3833 10.0717 11.3197 10.0848 10.5712 9.48081L0.486328 0.69596C0.827742 0.262626 1.36613 0 1.97017 0H21.6671C22.2712 0 22.8096 0.262626 23.151 0.69596Z" fill="#FFC976"/>
<path fill-rule="evenodd" clip-rule="evenodd" d="M23.1495 0.696064L13.1172 9.44152C12.3818 10.0718 11.3182 10.085 10.5697 9.48091L9.55859 8.58798C10.3071 9.19202 11.3707 9.17889 12.1061 8.54859L21.8758 0.0263672C22.401 0.0657611 22.8488 0.315256 23.1495 0.696064Z" fill="#F4950C"/>
</svg>
