<svg width="36" height="36" viewBox="0 0 36 36" fill="none" xmlns="http://www.w3.org/2000/svg">
<path fill-rule="evenodd" clip-rule="evenodd" d="M16.8714 35.7597C17.3994 36.2877 18.4354 35.8917 18.6814 35.0657C19.0434 33.8457 18.8294 32.5877 17.9954 31.7517C17.7794 31.5377 17.5374 31.3637 17.2734 31.2297C17.9474 29.4757 17.7154 27.5977 16.5034 26.3857C16.3854 26.2697 16.2614 26.1617 16.1314 26.0617L17.4914 24.7037L11.2954 18.5077L9.57937 20.2237C8.43337 19.0897 6.68537 18.8557 5.03137 19.4737C4.91337 18.9197 4.65537 18.4137 4.24737 18.0057C3.41137 17.1697 2.15537 16.9557 0.933374 17.3177C0.107374 17.5637 -0.288626 18.5997 0.239374 19.1277L16.8714 35.7597Z" fill="#E7E5E2"/>
<path fill-rule="evenodd" clip-rule="evenodd" d="M16.5031 26.3858C16.3831 26.2658 16.2571 26.1578 16.1271 26.0578L17.4871 24.6978L11.2951 18.5078L9.58105 20.2218L14.8231 25.4658C15.9031 26.5458 16.1411 28.3018 15.3671 29.9418C15.3451 29.9898 15.3211 30.0378 15.2971 30.0858C15.2671 30.1438 15.2371 30.1998 15.2071 30.2578C15.0271 30.5838 15.2091 30.9278 15.5531 30.9018C16.1651 30.8598 16.7571 30.9678 17.2731 31.2298C17.9471 29.4758 17.7151 27.5978 16.5031 26.3858" fill="#AFAAA3"/>
<path fill-rule="evenodd" clip-rule="evenodd" d="M3.04191 20.4278C3.12591 20.5118 3.27191 20.5078 3.38391 20.4158C3.89991 20.0038 4.45991 19.6878 5.03191 19.4738C4.91391 18.9198 4.65591 18.4118 4.24791 18.0058C3.94391 17.7018 3.58591 17.4818 3.19391 17.3398C3.50391 18.1958 3.43391 19.2118 3.00791 20.1598C2.96391 20.2598 2.97791 20.3638 3.04191 20.4278" fill="#D6D1CA"/>
<path fill-rule="evenodd" clip-rule="evenodd" d="M15.6904 7.00391H13.9184C11.6084 7.00391 9.39444 7.91991 7.76044 9.55391C7.19444 10.1219 7.19444 11.0399 7.76044 11.6059L11.8824 15.7279L18.9484 8.65991L18.4244 8.13591C17.6984 7.41191 16.7164 7.00391 15.6904 7.00391" fill="#E70000"/>
<path fill-rule="evenodd" clip-rule="evenodd" d="M28.9984 20.3088V22.0808C28.9984 24.3908 28.0824 26.6048 26.4484 28.2388C25.8824 28.8048 24.9624 28.8048 24.3964 28.2388L20.2744 24.1168L27.3424 17.0508L27.8664 17.5748C28.5904 18.3008 28.9984 19.2828 28.9984 20.3088" fill="#C40808"/>
<path fill-rule="evenodd" clip-rule="evenodd" d="M31.4971 15.7042L22.6551 24.5462L11.4531 13.3462L20.2971 4.50224C23.1791 1.62024 27.0911 0.000244141 31.1671 0.000244141H33.4511C34.8591 0.000244141 35.9991 1.14224 35.9991 2.54824V4.83224C35.9991 8.91024 34.3811 12.8202 31.4971 15.7042" fill="#E7E5E2"/>
<path fill-rule="evenodd" clip-rule="evenodd" d="M36.0006 4.83116V2.54716C36.0006 1.28316 35.0786 0.233156 33.8706 0.0351562C33.8926 0.169156 33.9066 0.309156 33.9066 0.453156V2.73716C33.9066 6.81316 32.2866 10.7252 29.4026 13.6072L20.5586 22.4512L22.6546 24.5452L31.4986 15.7032C34.3806 12.8192 36.0006 8.90916 36.0006 4.83116" fill="#D6D1CA"/>
<path fill-rule="evenodd" clip-rule="evenodd" d="M33.451 0H31.167C28.695 0 26.283 0.596 24.123 1.708L34.291 11.876C35.403 9.716 35.999 7.306 35.999 4.832V2.548C35.999 1.142 34.859 0 33.451 0" fill="#FF3F3E"/>
<path fill-rule="evenodd" clip-rule="evenodd" d="M27.5112 16.8064C25.2152 19.1024 21.4892 19.1024 19.1932 16.8064C16.8952 14.5104 16.8952 10.7864 19.1932 8.48838C21.4892 6.19238 25.2152 6.19037 27.5112 8.48838C29.8072 10.7844 29.8072 14.5104 27.5112 16.8064" fill="#FFC976"/>
<path fill-rule="evenodd" clip-rule="evenodd" d="M27.5113 8.49017C27.1493 8.12817 26.7513 7.82417 26.3313 7.57617C27.6553 9.83017 27.3513 12.7782 25.4153 14.7142C23.4813 16.6482 20.5333 16.9522 18.2793 15.6282C18.5273 16.0482 18.8313 16.4462 19.1933 16.8082C21.4893 19.1062 25.2153 19.1062 27.5113 16.8082C29.8073 14.5122 29.8073 10.7862 27.5113 8.49017" fill="#FFAB1C"/>
<path fill-rule="evenodd" clip-rule="evenodd" d="M25.7427 15.0376C24.4227 16.3576 22.2827 16.3576 20.9607 15.0376C19.6407 13.7176 19.6407 11.5776 20.9607 10.2556C22.2827 8.93562 24.4227 8.93562 25.7427 10.2556C27.0627 11.5776 27.0627 13.7176 25.7427 15.0376" fill="#B52175"/>
<path fill-rule="evenodd" clip-rule="evenodd" d="M25.7424 10.2593C25.5164 10.0313 25.2644 9.84531 24.9964 9.69531C25.7124 10.9833 25.5264 12.6373 24.4324 13.7313C23.3404 14.8253 21.6844 15.0113 20.3984 14.2953C20.5464 14.5613 20.7344 14.8133 20.9604 15.0413C22.2824 16.3613 24.4224 16.3613 25.7424 15.0413C27.0624 13.7193 27.0624 11.5793 25.7424 10.2593" fill="#96003E"/>
<path fill-rule="evenodd" clip-rule="evenodd" d="M12.0435 12.7578L9.64355 15.1578C8.94955 15.8518 8.94955 16.9758 9.64355 17.6698L18.3315 26.3578C19.0255 27.0518 20.1495 27.0518 20.8435 26.3578L23.2435 23.9578L12.0435 12.7578Z" fill="#FF3F3E"/>
<path fill-rule="evenodd" clip-rule="evenodd" d="M17.4922 25.5193L18.3302 26.3573C19.0262 27.0533 20.1502 27.0533 20.8422 26.3573L23.2442 23.9573L21.1482 21.8633L17.4922 25.5193Z" fill="#E70000"/>
<path fill-rule="evenodd" clip-rule="evenodd" d="M36.0003 4.83116V2.54716C36.0003 1.28316 35.0783 0.233156 33.8703 0.0351562C33.8923 0.169156 33.9063 0.309156 33.9063 0.453156V2.73716C33.9063 5.20916 33.3083 7.62116 32.1963 9.78116L34.2923 11.8752C35.4043 9.71516 36.0003 7.30516 36.0003 4.83116" fill="#E70000"/>
</svg>
