<svg xmlns="http://www.w3.org/2000/svg" width="38" height="55" fill="none" viewBox="0 0 38 55">
  <path fill="#E7E5E2" fill-rule="evenodd" d="M33.236 15.694v8.849H28.49v-8.521c0-6.009-4.24-10.925-9.492-10.925h-.253c-5.125 0-9.24 4.773-9.24 10.597v8.849H4.76v-8.849C4.76 7.176 10.772.256 18.176.256h1.643c7.404 0 13.417 6.92 13.417 15.438z" clip-rule="evenodd"/>
  <path fill="#D6D1CA" fill-rule="evenodd" d="M33.237 15.694v8.864h-2.034v-8.864c0-8.428-5.912-15.326-13.207-15.45h1.817c7.404 0 13.424 6.929 13.424 15.45zM17.806 5.174c-4.664.53-8.298 5.057-8.298 10.52v8.864H7.474v-8.865c0-5.837 4.122-10.581 9.247-10.581h.245c.27 0 .57 0 .84.062z" clip-rule="evenodd"/>
  <path fill="#FFC976" fill-rule="evenodd" d="M33.916 54.58H4.084c-2.249 0-4.068-2.095-4.068-4.683v-23.41c0-2.584 1.82-4.682 4.068-4.682h29.832c2.245 0 4.068 2.098 4.068 4.682v23.41c0 2.588-1.823 4.682-4.069 4.682z" clip-rule="evenodd"/>
  <path fill="#FFAB1C" fill-rule="evenodd" d="M19 50.147c-2.992 0-5.425-2.8-5.425-6.242v-1.32c-1.703-1.746-2.712-4.283-2.712-6.983 0-5.163 3.65-9.364 8.136-9.364 4.486 0 8.136 4.201 8.136 9.364 0 2.7-1.009 5.237-2.712 6.982v1.32c0 3.443-2.432 6.243-5.424 6.243z" clip-rule="evenodd"/>
  <path fill="#5B5B5B" fill-rule="evenodd" d="M24.422 35.605c0 2.31-1.085 4.338-2.712 5.396v2.906c0 1.717-1.22 3.122-2.712 3.122-1.491 0-2.712-1.405-2.712-3.122v-2.906c-1.627-1.058-2.712-3.087-2.712-5.396 0-3.437 2.441-6.243 5.424-6.243 2.983 0 5.424 2.806 5.424 6.243z" clip-rule="evenodd"/>
  <path fill="#3E3D40" fill-rule="evenodd" d="M24.424 35.607c0 2.31-1.085 4.34-2.712 5.4v2.903c0 1.717-1.22 3.122-2.712 3.122-.353 0-.678-.094-1.004-.25.976-.468 1.681-1.56 1.681-2.872v-2.903c1.628-1.06 2.713-3.09 2.713-5.4 0-3.027-1.899-5.556-4.394-6.117A3.56 3.56 0 0119 29.365c2.983 0 5.424 2.809 5.424 6.242z" clip-rule="evenodd"/>
  <path fill="#FFAB1C" fill-rule="evenodd" d="M37.984 26.493v23.41c0 2.59-1.817 4.682-4.068 4.682h-4.068c2.25 0 4.068-2.091 4.068-4.682v-23.41c0-2.59-1.817-4.682-4.068-4.682h4.068c2.25 0 4.068 2.091 4.068 4.682z" clip-rule="evenodd"/>
</svg>
