<svg xmlns="http://www.w3.org/2000/svg" width="70" height="70" viewBox="0 0 70 70">
    <g fill="none" fill-rule="evenodd">
        <g>
            <g>
                <g>
                    <g>
                        <path fill="#D6D1CA" d="M54.066 46.136H3.205c-2.237 0-3.786-2.224-2.997-4.305l3.627-9.542c.471-1.241 1.664-2.059 2.997-2.059h43.614c1.333 0 2.529.821 2.997 2.059l3.62 9.545c.79 2.081-.757 4.302-2.997 4.302" transform="translate(-1241 -328) translate(1070 303) translate(171 25) translate(6.364 12.727)"/>
                        <path fill="#5B5B5B" d="M51.329 42.954H5.949c-1.113 0-1.886-1.1-1.501-2.138l1.96-5.32c.464-1.25 1.664-2.084 3.01-2.084h38.446c1.343 0 2.542.834 3.007 2.084l1.963 5.32c.382 1.037-.392 2.138-1.505 2.138" transform="translate(-1241 -328) translate(1070 303) translate(171 25) translate(6.364 12.727)"/>
                        <path fill="#AFAAA3" d="M54.068 46.128h-4.645c2.068 0 3.531-1.877 3.181-3.786.319-.414.414-.986.223-1.527l-1.94-5.31c-.287-.768-.828-1.372-1.496-1.719l-.573-1.495c-.477-1.241-1.655-2.068-2.99-2.068h4.613c1.336 0 2.545.827 2.99 2.068l3.628 9.542c.795 2.068-.764 4.295-2.991 4.295" transform="translate(-1241 -328) translate(1070 303) translate(171 25) translate(6.364 12.727)"/>
                        <path fill="#3E3D40" d="M52.604 42.342c-.063-.159-.095-.318-.159-.509l-3.054-8.047c.668.347 1.209.952 1.495 1.719l1.941 5.31c.191.541.096 1.114-.223 1.527" transform="translate(-1241 -328) translate(1070 303) translate(171 25) translate(6.364 12.727)"/>
                        <path fill="#5B5B5B" d="M47.73 31.821H9.55c-2.638 0-4.773-2.138-4.773-4.773V4.778C4.776 2.145 6.911.007 9.55.007h38.182c2.637 0 4.773 2.138 4.773 4.773v22.27c0 2.634-2.136 4.772-4.773 4.772" transform="translate(-1241 -328) translate(1070 303) translate(171 25) translate(6.364 12.727)"/>
                        <path fill="#58DAC5" d="M46.14 28.64h-35c-1.757 0-3.182-1.426-3.182-3.183V6.37c0-1.757 1.425-3.182 3.182-3.182h35c1.756 0 3.182 1.425 3.182 3.182v19.087c0 1.757-1.426 3.182-3.182 3.182" transform="translate(-1241 -328) translate(1070 303) translate(171 25) translate(6.364 12.727)"/>
                        <path fill="#00AD8E" d="M49.326 6.362V25.45c0 1.75-1.432 3.182-3.182 3.182h-32.74c14.572-3.437 26.981-12.438 34.872-24.625.636.573 1.05 1.432 1.05 2.355" transform="translate(-1241 -328) translate(1070 303) translate(171 25) translate(6.364 12.727)"/>
                        <path fill="#3E3D40" d="M47.735 0h-4.613c2.259 0 4.136 1.527 4.613 3.627.955.54 1.591 1.559 1.591 2.736v19.088c0 1.177-.636 2.192-1.59 2.733-.478 2.103-2.355 3.63-4.614 3.63h4.613c2.641 0 4.773-2.131 4.773-4.772V4.772c0-2.64-2.132-4.772-4.773-4.772" transform="translate(-1241 -328) translate(1070 303) translate(171 25) translate(6.364 12.727)"/>
                        <path fill="#07826A" d="M49.326 6.362V25.45c0 1.177-.636 2.195-1.59 2.736.127-.382.158-.764.158-1.145V4.77c0-.382-.032-.763-.159-1.145.955.544 1.591 1.559 1.591 2.736" transform="translate(-1241 -328) translate(1070 303) translate(171 25) translate(6.364 12.727)"/>
                        <path fill="#AFAAA3" d="M33.413 40.751h-9.546c-.878 0-1.59-.712-1.59-1.59 0-.879.712-1.591 1.59-1.591h9.546c.878 0 1.59.712 1.59 1.59 0 .879-.712 1.591-1.59 1.591" transform="translate(-1241 -328) translate(1070 303) translate(171 25) translate(6.364 12.727)"/>
                    </g>
                </g>
            </g>
        </g>
    </g>
</svg>
