<svg xmlns="http://www.w3.org/2000/svg" width="22" height="22" viewBox="0 0 22 22">
    <g fill="none" fill-rule="evenodd">
        <g fill="#3E3D40">
            <g>
                <g>
                    <path d="M11 1c5.53 0 10 4.47 10 10s-4.47 10-10 10S1 16.53 1 11 5.47 1 11 1zm0 1c-4.978 0-9 4.022-9 9s4.022 9 9 9 9-4.022 9-9-4.022-9-9-9zm3.59 4L16 7.41 12.41 11 16 14.59 14.59 16 11 12.41 7.41 16 6 14.59 9.59 11 6 7.41 7.41 6 11 9.59 14.59 6z" transform="translate(-1102 -214) translate(526 184) translate(576 30)"/>
                </g>
            </g>
        </g>
    </g>
</svg>
