<svg xmlns="http://www.w3.org/2000/svg" width="30" height="30" viewBox="0 0 30 30">
    <path fill="#C7C7C7" fill-rule="evenodd" d="M15.074 4.09c3.17 0 5.757 2.504 5.891 5.642l.006.256-.002 2.947 1.77.001c.29 0 .53.209.58.484l.01.106v11.793c0 .29-.208.53-.483.58l-.106.01H7.408c-.29 0-.53-.209-.58-.484l-.01-.106V13.526c0-.29.209-.53.484-.58l.106-.01 1.768-.001V9.988c0-3.257 2.641-5.897 5.898-5.897zm7.076 10.025H7.998V24.73H22.15V14.115zm-7.076 2.36c1.302 0 2.358 1.055 2.358 2.358 0 1.101-.754 2.026-1.775 2.286l.006.073v1.179c0 .326-.264.59-.59.59-.289 0-.53-.209-.58-.484l-.009-.106v-1.18l.007-.072c-1.02-.26-1.776-1.184-1.776-2.286 0-1.303 1.056-2.359 2.359-2.359zm0 1.179c-.652 0-1.18.528-1.18 1.179s.528 1.18 1.18 1.18c.651 0 1.18-.529 1.18-1.18 0-.651-.529-1.18-1.18-1.18zm0-12.384c-2.527 0-4.59 1.986-4.712 4.482l-.006.236v2.947h9.434l.001-2.947c0-2.606-2.112-4.718-4.717-4.718z"/>
</svg>
