<svg xmlns="http://www.w3.org/2000/svg" width="52" height="52" viewBox="0 0 52 52">
    <g fill="none" fill-rule="evenodd">
        <g>
            <g>
                <g>
                    <path fill="#96003E" d="M42.546 15.038v4.843c0 .944-.756 1.702-1.678 1.702H1.68c-.922 0-1.678-.758-1.678-1.702v-8.364C0 9.27 2.837 3.379 4.185 1.133 4.634.424 5.39.001 6.217.001h16.64c1.23 0 2.388.541 3.215 1.465l5.956 7.687 7.824 2.364c1.536.517 2.6 1.914 2.694 3.521" transform="translate(-45 -45) translate(45 45) translate(4.727 14.182)"/>
                    <path fill="#630731" d="M39.828 12.792c-.449-.567-1.087-1.016-1.82-1.276l-7.823-2.364-5.957-7.686C23.401.542 22.243 0 21.014 0h1.844c1.229 0 2.387.542 3.214 1.466l5.956 7.686 7.824 2.364c.733.236 1.347.686 1.796 1.253h-1.796l-.024.023zM40.703 16.149h1.844v3.732c0 .945-.756 1.702-1.678 1.702h-1.844c.922 0 1.678-.757 1.678-1.702v-3.732z" transform="translate(-45 -45) translate(45 45) translate(4.727 14.182)"/>
                    <path fill="#E7E5E2" d="M2.242 12.774c.586.043 1.05.53 1.05 1.125 0 .586-.447 1.066-1.017 1.12l-.033.003L0 15.024v-2.25h2.243z" transform="translate(-45 -45) translate(45 45) translate(4.727 14.182)"/>
                    <path fill="#D6D1CA" d="M42.546 15.038v1.111h-1.843v-1.11c-.048-.83-.355-1.608-.875-2.246l.024-.024h1.82c.26.331.473.71.638 1.111.118.355.213.757.236 1.158" transform="translate(-45 -45) translate(45 45) translate(4.727 14.182)"/>
                    <path fill="#E7E5E2" d="M40.703 15.038v1.111h-.85c-.875-.073-1.584-.803-1.584-1.678 0-.874.685-1.607 1.536-1.678h.024c.52.638.827 1.416.874 2.245" transform="translate(-45 -45) translate(45 45) translate(4.727 14.182)"/>
                    <path fill="#D6D1CA" d="M27.302 8.065l-3.735-5.254c-.213-.258-.544-.402-.898-.402h-6.5c-.662 0-1.182.522-1.182 1.182v5.254c0 .638.52 1.182 1.182 1.182h10.234c1.017 0 1.56-1.205.899-1.962M11.89 2.41H6.667c-.473 0-.898.286-1.087.735L3.807 8.396c-.33.756.236 1.631 1.087 1.631h6.997c.662 0 1.182-.544 1.182-1.182V3.591c0-.66-.52-1.182-1.182-1.182" transform="translate(-45 -45) translate(45 45) translate(4.727 14.182)"/>
                    <path fill="#630731" d="M17.271 13.711h2.149c.593 0 1.073.482 1.073 1.073 0 .594-.48 1.076-1.073 1.076H17.27c-.593 0-1.075-.482-1.075-1.076 0-.59.482-1.073 1.075-1.073" transform="translate(-45 -45) translate(45 45) translate(4.727 14.182)"/>
                    <path fill="#AFAAA3" d="M26.403 10.027h-1.82c.992 0 1.536-1.205.874-1.962l-3.71-5.254c-.237-.258-.568-.402-.899-.402h1.82c.355 0 .685.144.898.402l3.735 5.254c.662.757.118 1.962-.898 1.962" transform="translate(-45 -45) translate(45 45) translate(4.727 14.182)"/>
                    <path fill="#5B5B5B" d="M16.385 12.825h2.148c.594 0 1.073.482 1.073 1.073 0 .593-.48 1.075-1.073 1.075h-2.148c-.594 0-1.076-.482-1.076-1.075 0-.591.482-1.073 1.076-1.073" transform="translate(-45 -45) translate(45 45) translate(4.727 14.182)"/>
                    <path fill="#630731" d="M36.436 21.44c0 .049 0 .094-.023.143h-8.84c-.024-.05-.024-.094-.024-.144 0-2.456 1.986-4.444 4.444-4.444s4.443 1.988 4.443 4.444M10.533 21.44c0 .049 0 .094-.023.143H1.67c-.024-.05-.024-.094-.024-.144 0-2.456 1.985-4.444 4.444-4.444 2.458 0 4.443 1.988 4.443 4.444" transform="translate(-45 -45) translate(45 45) translate(4.727 14.182)"/>
                    <path fill="#5B5B5B" d="M7.903 17c-2.458 0-4.448 1.993-4.448 4.451 0 2.456 1.99 4.449 4.448 4.449s4.448-1.993 4.448-4.449c0-2.458-1.99-4.45-4.448-4.45M33.778 17c-2.458 0-4.448 1.993-4.448 4.451 0 2.456 1.99 4.449 4.448 4.449 2.459 0 4.449-1.993 4.449-4.449 0-2.458-1.99-4.45-4.449-4.45" transform="translate(-45 -45) translate(45 45) translate(4.727 14.182)"/>
                    <path fill="#D6D1CA" d="M7.903 23.752c1.272 0 2.302-1.033 2.302-2.302 0-1.272-1.03-2.3-2.302-2.3s-2.302 1.028-2.302 2.3c0 1.269 1.03 2.302 2.302 2.302M33.778 23.752c1.272 0 2.303-1.033 2.303-2.302 0-1.272-1.03-2.3-2.303-2.3-1.271 0-2.302 1.028-2.302 2.3 0 1.269 1.03 2.302 2.302 2.302" transform="translate(-45 -45) translate(45 45) translate(4.727 14.182)"/>
                    <path fill="#3E3D40" d="M38.22 21.44c0 2.457-1.985 4.469-4.443 4.469-.307 0-.614-.024-.898-.095 2.009-.425 3.522-2.224 3.522-4.375 0-2.148-1.513-3.921-3.522-4.349.284-.069.59-.095.898-.095 2.458 0 4.444 1.988 4.444 4.444M12.322 21.44c0 2.457-1.985 4.469-4.443 4.469-.308 0-.615-.024-.898-.095 2.009-.425 3.521-2.224 3.521-4.375 0-2.148-1.512-3.921-3.521-4.349.283-.069.59-.095.898-.095 2.458 0 4.443 1.988 4.443 4.444" transform="translate(-45 -45) translate(45 45) translate(4.727 14.182)"/>
                    <path fill="#AFAAA3" d="M36.07 21.44c0 1.275-1.016 2.315-2.292 2.315-.307 0-.615-.07-.875-.189.828-.354 1.418-1.181 1.418-2.127 0-.943-.59-1.747-1.418-2.104.26-.115.568-.189.875-.189 1.276 0 2.293 1.043 2.293 2.293M10.213 21.44c0 1.275-1.017 2.315-2.293 2.315-.307 0-.615-.07-.875-.189.828-.354 1.418-1.181 1.418-2.127 0-.943-.59-1.747-1.418-2.104.26-.115.568-.189.875-.189 1.276 0 2.293 1.043 2.293 2.293" transform="translate(-45 -45) translate(45 45) translate(4.727 14.182)"/>
                    <path fill="#3E3D40" d="M19.595 13.903c0 .59-.472 1.064-1.063 1.064h-.898c.59 0 1.087-.473 1.087-1.064 0-.591-.496-1.087-1.087-1.087h.898c.59 0 1.063.496 1.063 1.087" transform="translate(-45 -45) translate(45 45) translate(4.727 14.182)"/>
                </g>
            </g>
        </g>
    </g>
</svg>
