<svg width="22" height="22" viewBox="0 0 22 22" fill="none" xmlns="http://www.w3.org/2000/svg">
<path fill-rule="evenodd" clip-rule="evenodd" d="M0.363281 19.8587V5.07775C0.363281 4.09566 1.15628 3.30029 2.13601 3.30029H19.8633C20.843 3.30029 21.636 4.09566 21.636 5.07775V19.8587C21.636 20.8408 20.843 21.6362 19.8633 21.6362H2.13601C1.15628 21.6362 0.363281 20.8408 0.363281 19.8587Z" fill="#EDEDED"/>
<path fill-rule="evenodd" clip-rule="evenodd" d="M19.8633 3.30005H2.13601C1.15628 3.30005 0.363281 4.09541 0.363281 5.0775V9.32496H19.9247V19.8585C19.9247 20.8406 19.1306 21.636 18.152 21.636H16.9265H19.8633C20.843 21.636 21.636 20.8406 21.636 19.8585V5.0775C21.636 4.09541 20.843 3.30005 19.8633 3.30005Z" fill="#D5D2CA"/>
<path fill-rule="evenodd" clip-rule="evenodd" d="M6.61978 18.2462V17.2972C6.61978 16.6449 6.09033 16.1154 5.43796 16.1154H3.7326C3.07905 16.1154 2.55078 16.6449 2.55078 17.2972V18.2462C2.55078 18.8986 3.07905 19.4281 3.7326 19.4281H5.43796C6.09033 19.4281 6.61978 18.8986 6.61978 18.2462ZM6.61978 12.7981V11.8491C6.61978 11.1967 6.09033 10.6672 5.43796 10.6672H3.7326C3.07905 10.6672 2.55078 11.1967 2.55078 11.8491V12.7981C2.55078 13.4504 3.07905 13.9799 3.7326 13.9799H5.43796C6.09033 13.9799 6.61978 13.4504 6.61978 12.7981ZM13.0394 18.2462V17.2972C13.0394 16.6449 12.51 16.1154 11.8576 16.1154H10.1522C9.49987 16.1154 8.97042 16.6449 8.97042 17.2972V18.2462C8.97042 18.8986 9.49987 19.4281 10.1522 19.4281H11.8576C12.51 19.4281 13.0394 18.8986 13.0394 18.2462ZM13.0394 12.7981V11.8491C13.0394 11.1967 12.51 10.6672 11.8576 10.6672H10.1522C9.49987 10.6672 8.97042 11.1967 8.97042 11.8491V12.7981C8.97042 13.4504 9.49987 13.9799 10.1522 13.9799H11.8576C12.51 13.9799 13.0394 13.4504 13.0394 12.7981ZM19.4602 18.2462V17.2972C19.4602 16.6449 18.9308 16.1154 18.2784 16.1154H16.5731C15.9207 16.1154 15.3912 16.6449 15.3912 17.2972V18.2462C15.3912 18.8986 15.9207 19.4281 16.5731 19.4281H18.2784C18.9308 19.4281 19.4602 18.8986 19.4602 18.2462ZM18.2784 13.9799H16.5731C15.9207 13.9799 15.3912 13.4504 15.3912 12.7981V11.8491C15.3912 11.1967 15.9207 10.6672 16.5731 10.6672H18.2784C18.9308 10.6672 19.4602 11.1967 19.4602 11.8491V12.7981C19.4602 13.4504 18.9308 13.9799 18.2784 13.9799Z" fill="#AFAAA3"/>
<path fill-rule="evenodd" clip-rule="evenodd" d="M21.636 8.43811H0.363281V5.0782C0.363281 4.09611 1.15628 3.29956 2.13601 3.29956H19.8633C20.843 3.29956 21.636 4.09611 21.636 5.0782V8.43811Z" fill="#FF3F3E"/>
<path fill-rule="evenodd" clip-rule="evenodd" d="M17.7676 3.30005H18.193C19.1728 3.30005 19.9658 4.09541 19.9658 5.0775V8.43859H21.6357V5.0775C21.6357 4.09541 20.8427 3.30005 19.8629 3.30005H17.7676Z" fill="#E70000"/>
<path fill-rule="evenodd" clip-rule="evenodd" d="M8.75555 3.30005V5.63532C8.75555 6.02414 8.60428 6.37514 8.35964 6.62923C8.11501 6.8845 7.77701 7.04287 7.40355 7.04287C6.65783 7.04287 6.05273 6.41178 6.05273 5.63532V3.30005H8.75555Z" fill="#E70000"/>
<path fill-rule="evenodd" clip-rule="evenodd" d="M17.6063 3.30005V5.63532C17.6063 6.02414 17.4551 6.37514 17.2116 6.62923C16.9658 6.8845 16.6278 7.04287 16.2543 7.04287C15.5086 7.04287 14.9023 6.41178 14.9023 5.63532V3.30005H17.6063Z" fill="#E70000"/>
<path fill-rule="evenodd" clip-rule="evenodd" d="M7.9247 4.82843V1.77107C7.9247 0.993434 7.31961 0.363525 6.5727 0.363525C5.82698 0.363525 5.2207 0.993434 5.2207 1.77107V4.82843C5.2207 5.60607 5.82698 6.23598 6.5727 6.23598C7.31961 6.23598 7.9247 5.60607 7.9247 4.82843Z" fill="#FFC976"/>
<path fill-rule="evenodd" clip-rule="evenodd" d="M6.57392 0.363281C6.38837 0.363281 6.21228 0.402281 6.05273 0.472009C6.53964 0.684736 6.88237 1.18583 6.88237 1.77083V4.82819C6.88237 5.41319 6.53964 5.91546 6.05273 6.12701C6.21228 6.19792 6.38837 6.23574 6.57392 6.23574C7.31964 6.23574 7.92592 5.60583 7.92592 4.82937V1.77083C7.92592 0.994372 7.31964 0.363281 6.57392 0.363281Z" fill="#FFAB1C"/>
<path fill-rule="evenodd" clip-rule="evenodd" d="M16.7763 4.82843V1.77107C16.7763 0.993434 16.1712 0.363525 15.4243 0.363525C14.6785 0.363525 14.0723 0.993434 14.0723 1.77107V4.82843C14.0723 5.60607 14.6785 6.23598 15.4243 6.23598C16.1712 6.23598 16.7763 5.60607 16.7763 4.82843Z" fill="#FFC976"/>
<path fill-rule="evenodd" clip-rule="evenodd" d="M15.4255 0.363281C15.2399 0.363281 15.0638 0.402281 14.9043 0.472009C15.3912 0.684736 15.7339 1.18583 15.7339 1.77083V4.82819C15.7339 5.41319 15.3912 5.91546 14.9043 6.12701C15.0638 6.19792 15.2399 6.23574 15.4255 6.23574C16.1712 6.23574 16.7775 5.60583 16.7775 4.82937V1.77083C16.7775 0.994372 16.1712 0.363281 15.4255 0.363281Z" fill="#FFAB1C"/>
</svg>
