<svg width="23" height="23" viewBox="0 0 23 23" fill="none" xmlns="http://www.w3.org/2000/svg">
<g id="Filled/Channels/Loans">
<g id="Group 41">
<path id="Fill 1" fill-rule="evenodd" clip-rule="evenodd" d="M13.6335 13.2916C12.6225 13.4416 10.9455 13.3986 10.0495 13.2916C8.30745 13.0816 7.02645 11.1786 7.80245 9.36462C8.30045 8.20062 10.0085 6.28662 10.0085 6.28662H13.6925C13.6925 6.28662 15.4015 8.23762 15.8975 9.40262C16.6555 11.1786 15.3685 13.0326 13.6335 13.2916Z" fill="#96003E"/>
<path id="Fill 3" fill-rule="evenodd" clip-rule="evenodd" d="M13.6343 13.2877C12.6243 13.4457 10.9423 13.4037 10.0483 13.2877C9.22829 13.1937 8.51229 12.7207 8.07129 12.0587C8.41829 12.2887 8.82829 12.4467 9.25929 12.4997C10.1533 12.6147 11.8363 12.6567 12.8453 12.4997C14.5803 12.2467 15.8633 10.3857 15.1063 8.61867C14.8123 7.92467 14.0963 6.95767 13.5603 6.28467H13.6973C13.6973 6.28467 15.4013 8.23967 15.8953 9.40767C16.6523 11.1747 15.3693 13.0357 13.6343 13.2877Z" fill="#630731"/>
<path id="Fill 5" fill-rule="evenodd" clip-rule="evenodd" d="M8.94786 3.95961C9.23386 3.24961 10.3689 3.27461 10.8719 3.95961C11.4039 4.55761 12.2659 4.55761 12.7969 3.95961C12.7979 3.95961 12.7989 3.95861 12.7989 3.95761C13.3299 3.25661 14.2889 3.15361 14.7229 3.95761C15.0539 4.57061 13.6859 6.28661 13.6859 6.28661H10.0019C10.0019 6.28661 8.69786 4.57961 8.94786 3.95961Z" fill="#96003E"/>
<path id="Fill 7" fill-rule="evenodd" clip-rule="evenodd" d="M13.6865 6.28472H12.8975C12.8975 6.28472 14.2655 4.56972 13.9385 3.96072C13.8125 3.71872 13.6075 3.55272 13.4085 3.47872C13.8815 3.27872 14.4335 3.41372 14.7285 3.96072C15.0535 4.56972 13.6865 6.28472 13.6865 6.28472Z" fill="#630731"/>
<path id="Fill 10" fill-rule="evenodd" clip-rule="evenodd" d="M12.9618 9.15766C12.9618 9.29066 12.8438 9.39666 12.6988 9.39666C12.5658 9.39666 12.4558 9.30566 12.4398 9.18766L12.4368 9.15766C12.4368 8.85766 12.1698 8.61466 11.8408 8.61466C11.5128 8.61466 11.2458 8.85766 11.2458 9.15766C11.2458 9.44266 11.4858 9.67666 11.7928 9.69866L11.8408 9.70066C12.4148 9.70066 12.8968 10.0957 12.9558 10.6167C13.0118 11.1187 12.6588 11.5797 12.1298 11.7077L12.0708 11.7207V11.9457C12.0708 12.0777 11.9538 12.1837 11.8088 12.1837C11.6748 12.1837 11.5648 12.0937 11.5478 11.9747L11.5458 11.9457V11.7067C11.0588 11.5847 10.7218 11.1817 10.7208 10.7217C10.7208 10.5897 10.8378 10.4827 10.9828 10.4827C11.1118 10.4827 11.2188 10.5667 11.2418 10.6787L11.2458 10.7217C11.2468 10.9977 11.4728 11.2287 11.7738 11.2607C11.8028 11.2567 11.8338 11.2577 11.8628 11.2627C12.1878 11.2527 12.4428 11.0077 12.4368 10.7117C12.4308 10.4297 12.1918 10.2027 11.8898 10.1797L11.8408 10.1787C11.2798 10.1787 10.8058 9.80066 10.7308 9.29366C10.6588 8.80566 10.9798 8.34366 11.4868 8.18966L11.5458 8.17366V7.94066C11.5458 7.80866 11.6638 7.70166 11.8088 7.70166C11.9418 7.70166 12.0528 7.79366 12.0688 7.91166L12.0708 7.94066V8.15866C12.5888 8.25866 12.9608 8.67566 12.9618 9.15766Z" fill="#DA76AB"/>
<path id="Fill 12" fill-rule="evenodd" clip-rule="evenodd" d="M17.0742 15.2321C16.8792 14.6841 16.2892 14.3861 15.7322 14.5541C15.7322 14.5541 10.9492 16.0001 10.9082 16.0111L11.8482 18.4281C11.8532 18.4311 11.8532 18.4311 11.8572 18.4341L16.4492 16.6121C16.9952 16.3951 17.2712 15.7851 17.0742 15.2321Z" fill="#DDA292"/>
<path id="Fill 14" fill-rule="evenodd" clip-rule="evenodd" d="M18.6866 15.3874C18.4956 14.8304 17.8986 14.5254 17.3356 14.6964L13.4926 15.8614C12.9506 16.0244 12.4006 16.1274 11.8486 16.1724V19.0194C12.4846 18.8944 13.1146 18.7104 13.7306 18.4674L18.0546 16.7584C18.5976 16.5434 18.8756 15.9404 18.6866 15.3874Z" fill="#FCB79F"/>
<path id="Fill 16" fill-rule="evenodd" clip-rule="evenodd" d="M4.99174 14.4214C4.81174 14.6314 4.66174 14.8714 4.57174 15.1314V14.8604C4.67174 14.6614 4.82174 14.5114 4.99174 14.4214Z" fill="#FFCFBA"/>
<path id="Fill 18" fill-rule="evenodd" clip-rule="evenodd" d="M4.42139 15.4597V18.3707L7.92639 19.4027C10.1994 20.0717 12.5894 19.9617 14.8094 19.0867L19.2174 17.3487C19.7544 17.1367 20.0324 16.5427 19.8514 15.9937C19.6664 15.4347 19.0684 15.1237 18.5044 15.2947L14.5704 16.4807C12.5154 17.0997 10.3384 16.8637 8.41739 15.8137L5.84539 14.4077C5.18339 14.0467 4.42139 14.6077 4.42139 15.4597Z" fill="#FFCFBA"/>
<path id="Fill 20" fill-rule="evenodd" clip-rule="evenodd" d="M6.4149 13.6419C7.1619 13.5289 7.9149 13.8359 8.4489 14.3709L8.6279 14.5499C9.5619 15.4839 10.8299 16.0089 12.1499 16.0089H13.5529C14.0789 16.0089 14.5049 16.4349 14.5049 16.9609C14.5049 17.4869 14.0789 17.9129 13.5529 17.9129H6.3939C5.3049 17.9129 4.4209 17.0299 4.4209 15.9399C4.4209 14.8209 5.2279 13.8229 6.4149 13.6419Z" fill="#FFCFBA"/>
<path id="Fill 22" fill-rule="evenodd" clip-rule="evenodd" d="M6.57178 14.3011V18.3011C6.57178 18.5301 6.52178 18.7511 6.41178 18.9511L4.57178 18.4111V15.1311C4.66178 14.8711 4.81178 14.6311 4.99178 14.4211C5.34178 14.0111 5.83178 13.7311 6.41178 13.6411C6.52178 13.8411 6.57178 14.0611 6.57178 14.3011Z" fill="#FCB79F"/>
<path id="Fill 24" fill-rule="evenodd" clip-rule="evenodd" d="M4.3252 12.7983H3.8252V19.7983H4.3252C5.1532 19.7983 5.8252 19.1263 5.8252 18.2983V14.2983C5.8252 13.4693 5.1532 12.7983 4.3252 12.7983Z" fill="#E7E5E2"/>
<path id="Fill 26" fill-rule="evenodd" clip-rule="evenodd" d="M4.82868 13.2983V19.2983C4.82868 19.8503 4.38068 20.2983 3.82868 20.2983H3.82568C3.27268 20.2983 2.82568 19.8503 2.82568 19.2983V13.2983C2.82568 12.7453 3.27268 12.2983 3.82568 12.2983H3.82868C4.38068 12.2983 4.82868 12.7453 4.82868 13.2983Z" fill="#FFC976"/>
<path id="Fill 28" fill-rule="evenodd" clip-rule="evenodd" d="M4.82166 13.3013V19.3013C4.82166 19.8513 4.38166 20.3013 3.82166 20.3013C3.69166 20.3013 3.57166 20.2713 3.45166 20.2313C3.82166 20.0813 4.08166 19.7213 4.08166 19.3013V13.3013C4.08166 12.8713 3.82166 12.5213 3.45166 12.3713C3.57166 12.3213 3.69166 12.3013 3.82166 12.3013C4.38166 12.3013 4.82166 12.7403 4.82166 13.3013Z" fill="#FFAB1C"/>
<path id="Fill 31" fill-rule="evenodd" clip-rule="evenodd" d="M19.2219 17.3512L14.8119 19.0812C13.4619 19.6112 12.0519 19.8612 10.6519 19.8212C11.8119 19.7612 12.9619 19.5212 14.0619 19.0812L18.4719 17.3512C19.0019 17.1412 19.2819 16.5412 19.1019 15.9912C18.9919 15.6622 18.7419 15.4212 18.4419 15.3112L18.5019 15.2912C18.6119 15.2612 18.7119 15.2412 18.8219 15.2412C19.2719 15.2412 19.7019 15.5312 19.8519 15.9912C20.0319 16.5412 19.7519 17.1412 19.2219 17.3512Z" fill="#FCB79F"/>
<path id="Fill 33" fill-rule="evenodd" clip-rule="evenodd" d="M14.5013 16.9617C14.5013 17.4907 14.0813 17.9117 13.5513 17.9117H12.8013C13.3313 17.9117 13.7513 17.4907 13.7513 16.9617C13.7513 16.4317 13.3313 16.0117 12.8013 16.0117H13.5513C14.0813 16.0117 14.5013 16.4317 14.5013 16.9617Z" fill="#FCB79F"/>
<path id="Fill 35" fill-rule="evenodd" clip-rule="evenodd" d="M14.1813 6.86306C14.1073 7.06206 13.9183 7.21006 13.6863 7.21006H9.99535C9.77535 7.21006 9.58035 7.07606 9.50635 6.87606C9.80135 6.52906 10.0063 6.28506 10.0063 6.28506H13.6973C13.6973 6.28506 13.8973 6.51506 14.1813 6.86306Z" fill="#630731"/>
<path id="Fill 37" fill-rule="evenodd" clip-rule="evenodd" d="M13.6926 6.81323H9.99961C9.70961 6.81323 9.47461 6.57823 9.47461 6.28723C9.47461 5.99723 9.70961 5.76123 9.99961 5.76123H13.6926C13.9836 5.76123 14.2186 5.99723 14.2186 6.28723C14.2186 6.57823 13.9836 6.81323 13.6926 6.81323Z" fill="#FF3F3E"/>
<path id="Fill 39" fill-rule="evenodd" clip-rule="evenodd" d="M14.2232 6.28479C14.2232 6.57879 13.9812 6.80979 13.6972 6.80979H12.9092C13.1922 6.80979 13.4342 6.57879 13.4342 6.28479C13.4342 6.00079 13.1922 5.75879 12.9092 5.75879H13.6972C13.9812 5.75879 14.2232 6.00079 14.2232 6.28479Z" fill="#E70000"/>
</g>
</g>
</svg>
