<svg xmlns="http://www.w3.org/2000/svg" width="38" height="38" viewBox="0 0 38 38">
    <path fill="#3E3D40" fill-rule="evenodd" d="M28.296 1.836c.22-.126.487-.141.725-.053l.1.044 7.716 3.991c.255.128.427.368.468.64l.01.103v5.543c0 3.761-1.934 7.258-5.139 9.338l-.243.153.86 1.35 3.003 1.324c1.179.525 1.96 1.644 2.034 2.9l.005.171v2.43c-.008 1.816-1.477 3.292-3.315 3.387l-.174.005h-.85c-.408 1.434-1.563 2.556-3.038 2.953-2.267.616-4.616-.625-5.329-2.781l-.053-.172h-12.76c-.407 1.434-1.562 2.556-3.037 2.953-2.267.616-4.616-.625-5.329-2.781l-.053-.172H3.49C1.63 33.145.104 31.725.005 29.939L0 29.77v-2.126c.008-1.462.975-2.753 2.395-3.2l.166-.048 5.728-1.519 3.403-4.345c.781-.983 1.967-1.587 3.234-1.648l.212-.005h6.258c-.629-1.363-.966-2.836-1.004-4.322l-.003-.344V6.561c-.008-.278.122-.529.346-.688l.088-.055 7.473-3.982zM8.107 29.44c-1.45 0-2.63 1.14-2.63 2.557 0 1.408 1.172 2.556 2.63 2.556 1.45 0 2.63-1.148 2.63-2.556 0-1.41-1.172-2.557-2.63-2.557zm21.179 0c-1.45 0-2.63 1.14-2.63 2.557 0 1.408 1.172 2.556 2.63 2.556s2.639-1.148 2.63-2.556c0-1.41-1.172-2.557-2.63-2.557zm-6.9-10.875h-7.24c-.75 0-1.461.313-1.955.857l-.11.13-3.594 4.573c-.097.121-.222.21-.362.267l-.107.037-6.006 1.594c-.71.19-1.214.785-1.278 1.487l-.007.133v2.126c.009.896.724 1.63 1.629 1.7l.125.004h.295c.251-1.906 1.805-3.416 3.767-3.661 2.334-.296 4.47 1.25 4.868 3.484l.027.177h12.517c.251-1.906 1.805-3.416 3.767-3.661 2.334-.296 4.47 1.25 4.867 3.484l.028.177h.73c.92-.008 1.676-.703 1.747-1.583l.006-.12h.008v-2.43c-.008-.615-.356-1.178-.904-1.47l-.12-.058-3.246-1.425c-.125-.054-.234-.135-.316-.24l-.058-.081-1.067-1.662-.174.076-1.172.49c-.188.076-.394.09-.583.038l-.11-.039-1.042-.439c-1.878-.804-3.507-2.076-4.72-3.679l-.21-.286zm6.362-15.043l-6.623 3.535h-.009v5.138c0 3.713 2.216 7.086 5.657 8.662l.914.4.833-.346h.018c3.574-1.461 5.928-4.811 6.037-8.566l.004-.25V7.057l-6.831-3.535zm2.787 6.625c.37-.305.9-.25 1.185.143.263.364.233.865-.057 1.187l-.078.076-4.57 3.959-.025.018c-.016.009-.025.018-.033.027-.017 0-.025.009-.034.018-.008 0-.025.009-.033.018l-.101.053-.034.01-.02.012-.047.014-.05.009-.013.008-.071.01h-.185l-.034-.009c-.017 0-.033-.009-.05-.009l-.034-.009-.05-.018-.034-.018c-.017 0-.033-.009-.05-.018l-.017-.005-.059-.04c-.008-.008-.017-.017-.033-.026l-.025-.014-.051-.04-.034-.036c-.016-.009-.025-.027-.033-.036l-.013-.021-1.978-2.469c-.303-.376-.252-.94.1-1.263.328-.299.808-.274 1.117.032l.068.076 1.428 1.782 3.948-3.421z"/>
</svg>
