<svg xmlns="http://www.w3.org/2000/svg" xmlns:xlink="http://www.w3.org/1999/xlink" width="130" height="99" viewBox="0 0 130 99">
    <defs>
        <filter id="bg7tjhm7va" width="103.9%" height="105.8%" x="-1%" y="-1.5%" filterUnits="objectBoundingBox">
            <feOffset dx="2" dy="2" in="SourceAlpha" result="shadowOffsetOuter1"/>
            <feColorMatrix in="shadowOffsetOuter1" values="0 0 0 0 0.921568627 0 0 0 0 0.921568627 0 0 0 0 0.921568627 0 0 0 1 0"/>
        </filter>
        <filter id="7bdiesjzsc" width="106.3%" height="106.3%" x="-1.6%" y="-1.6%" filterUnits="objectBoundingBox">
            <feOffset dx="2" dy="2" in="SourceAlpha" result="shadowOffsetOuter1"/>
            <feColorMatrix in="shadowOffsetOuter1" values="0 0 0 0 1 0 0 0 0 0.960784314 0 0 0 0 0.898039216 0 0 0 1 0"/>
        </filter>
        <circle id="6tnj0be6hd" cx="31.5" cy="31.5" r="31.5"/>
        <path id="mwrh0494gb" d="M31.215 61.96c.276-.012.51.202.522.478.012.275-.201.51-.477.521l-.843.045-.798.054c-7.044.538-10.425 2.38-10.172 5.012.275 2.856 4.572 6.737 11.937 10.609.245.128.339.43.21.675-.128.244-.43.338-.675.21-7.65-4.023-12.148-8.084-12.467-11.398-.352-3.65 4.09-5.817 12.763-6.206zm67.498-5.717l.968.474c10.84 5.342 17.219 9.565 17.219 13.057 0 2.451-1.807 3.645-5.228 3.839-2.745.155-6.412-.261-12.65-1.317-.273-.046-.456-.304-.41-.576.046-.273.304-.456.576-.41l1.032.173c5.542.915 8.902 1.273 11.395 1.131 2.958-.167 4.285-1.044 4.285-2.84 0-2.958-6.83-7.373-17.625-12.632-.248-.12-.351-.42-.23-.668.12-.249.42-.352.668-.23zM49.51 32.793c.259.096.39.384.294.643-.096.258-.384.39-.642.294l-1.102-.405-1.09-.392c-15.528-5.533-27.298-7.138-31.407-3.846-2.39 1.915-.294 5.615 5.335 10.378 4.159 3.52 10.288 7.515 13.451 9.05.249.12.353.42.232.668-.12.248-.42.352-.668.231-3.24-1.57-9.439-5.612-13.661-9.185l-.579-.497c-5.666-4.933-7.806-8.965-4.736-11.425 4.703-3.768 17.605-1.818 34.573 4.486zM81.24 29.6c.72 0 1.2.48 1.2 1.2s-.6 1.2-1.2 1.2c-.72 0-1.2-.48-1.2-1.2-.12-.72.48-1.2 1.2-1.2zM82.2 11c3.96 0 6.48 2.16 6.48 5.64 0 2.4-1.08 3.72-3.12 5.16l-.755.64-.399.346c-1.377 1.224-1.846 1.952-1.846 3.694v.72c0 .72-.48 1.08-1.2 1.08s-1.2-.36-1.2-1.08v-.84c0-1.688.21-2.637.83-3.54l.297-.42.149-.197c.382-.478.87-.882 2.084-1.723 1.92-1.44 2.52-2.28 2.52-3.72 0-2.16-1.56-3.48-4.08-3.48-2.4 0-3.84 1.32-4.44 3.24-.24.72-.6.96-1.08.96h-.48c-.48-.12-.96-.48-.96-1.08l.004-.151c.01-.116.036-.249.116-.329.36-1.2 1.08-2.4 2.04-3.24C78.36 11.6 79.92 11 82.2 11zm-3.642 10.01c.27.058.443.323.386.593-.058.27-.323.443-.593.386l-.718-.147-.693-.132c-3.174-.58-5.478-.664-6.297-.164-.44.268-.325.712.466 1.472.735.705 1.93 1.459 2.743 1.776.257.1.384.39.284.648-.1.257-.39.384-.648.284-.934-.365-2.24-1.189-3.071-1.987-1.193-1.144-1.496-2.314-.295-3.047 1.254-.766 4.247-.566 8.436.319zm13.516-3.402l.086.025c3.446 1.351 4.724 3.325 3.06 4.494-1.108.78-3.143 1.034-6.09.91-.275-.011-.49-.244-.478-.52.012-.276.245-.49.52-.479 2.733.115 4.606-.12 5.473-.73.72-.505-.01-1.63-2.85-2.744-.257-.1-.383-.391-.283-.648.09-.229.33-.354.562-.308z"/>
    </defs>
    <g fill="none" fill-rule="evenodd">
        <use fill="#000" filter="url(#bg7tjhm7va)" xlink:href="#mwrh0494gb"/>
        <path fill="#D52B1E" fill-rule="nonzero" d="M31.215 61.96c.276-.012.51.202.522.478.012.275-.201.51-.477.521l-.843.045-.798.054c-7.044.538-10.425 2.38-10.172 5.012.275 2.856 4.572 6.737 11.937 10.609.245.128.339.43.21.675-.128.244-.43.338-.675.21-7.65-4.023-12.148-8.084-12.467-11.398-.352-3.65 4.09-5.817 12.763-6.206zm67.498-5.717l.968.474c10.84 5.342 17.219 9.565 17.219 13.057 0 2.451-1.807 3.645-5.228 3.839-2.745.155-6.412-.261-12.65-1.317-.273-.046-.456-.304-.41-.576.046-.273.304-.456.576-.41l1.032.173c5.542.915 8.902 1.273 11.395 1.131 2.958-.167 4.285-1.044 4.285-2.84 0-2.958-6.83-7.373-17.625-12.632-.248-.12-.351-.42-.23-.668.12-.249.42-.352.668-.23zM49.51 32.793c.259.096.39.384.294.643-.096.258-.384.39-.642.294l-1.102-.405-1.09-.392c-15.528-5.533-27.298-7.138-31.407-3.846-2.39 1.915-.294 5.615 5.335 10.378 4.159 3.52 10.288 7.515 13.451 9.05.249.12.353.42.232.668-.12.248-.42.352-.668.231-3.24-1.57-9.439-5.612-13.661-9.185l-.579-.497c-5.666-4.933-7.806-8.965-4.736-11.425 4.703-3.768 17.605-1.818 34.573 4.486zM81.24 29.6c.72 0 1.2.48 1.2 1.2s-.6 1.2-1.2 1.2c-.72 0-1.2-.48-1.2-1.2-.12-.72.48-1.2 1.2-1.2zM82.2 11c3.96 0 6.48 2.16 6.48 5.64 0 2.4-1.08 3.72-3.12 5.16l-.755.64-.399.346c-1.377 1.224-1.846 1.952-1.846 3.694v.72c0 .72-.48 1.08-1.2 1.08s-1.2-.36-1.2-1.08v-.84c0-1.688.21-2.637.83-3.54l.297-.42.149-.197c.382-.478.87-.882 2.084-1.723 1.92-1.44 2.52-2.28 2.52-3.72 0-2.16-1.56-3.48-4.08-3.48-2.4 0-3.84 1.32-4.44 3.24-.24.72-.6.96-1.08.96h-.48c-.48-.12-.96-.48-.96-1.08l.004-.151c.01-.116.036-.249.116-.329.36-1.2 1.08-2.4 2.04-3.24C78.36 11.6 79.92 11 82.2 11zm-3.642 10.01c.27.058.443.323.386.593-.058.27-.323.443-.593.386l-.718-.147-.693-.132c-3.174-.58-5.478-.664-6.297-.164-.44.268-.325.712.466 1.472.735.705 1.93 1.459 2.743 1.776.257.1.384.39.284.648-.1.257-.39.384-.648.284-.934-.365-2.24-1.189-3.071-1.987-1.193-1.144-1.496-2.314-.295-3.047 1.254-.766 4.247-.566 8.436.319zm13.516-3.402l.086.025c3.446 1.351 4.724 3.325 3.06 4.494-1.108.78-3.143 1.034-6.09.91-.275-.011-.49-.244-.478-.52.012-.276.245-.49.52-.479 2.733.115 4.606-.12 5.473-.73.72-.505-.01-1.63-2.85-2.744-.257-.1-.383-.391-.283-.648.09-.229.33-.354.562-.308z"/>
        <g transform="translate(33 32)">
            <use fill="#000" filter="url(#7bdiesjzsc)" xlink:href="#6tnj0be6hd"/>
            <circle cx="31.5" cy="31.5" r="31.5" fill="#D52B1E" fill-rule="nonzero"/>
            <circle cx="30.5" cy="29.5" r="28.5" fill="#FFF"/>
        </g>
        <g>
            <path fill="#D52B1E" fill-rule="nonzero" d="M60.41 61.827l.092-.042c.385-.201.567-.668.408-1.081-.171-.446-.677-.671-1.124-.5l-.918.353-.101.033c-.478.125-.983-.126-1.165-.596-.193-.505.059-1.072.563-1.266l1.954-.75.092-.042c.384-.201.566-.668.407-1.081-.17-.446-.677-.671-1.123-.5l-.86.33-.102.034c-.476.125-.983-.126-1.164-.596-.193-.505.06-1.072.564-1.266l1.718-.66.092-.042c.384-.201.567-.667.408-1.082-.172-.445-.677-.67-1.123-.499l-1.718.66-.102.033c-.477.126-.984-.126-1.164-.596-.194-.504.058-1.072.562-1.265l8.96-3.446.093-.042c.384-.202.567-.667.407-1.081-.17-.446-.677-.671-1.123-.5l-13.868 5.328-.101.033c-.247.066-.5.026-.713-.09-.2-.093-.352-.264-.434-.477l-.017-.03-.007-.038-.027-.075-1.335-6.957c-.048-.255-.195-.476-.41-.622-.215-.146-.475-.199-.73-.15-.526.1-.872.611-.771 1.14l1.066 5.57c.005.022.011.042.013.065.07.496-.108.841-.361 1.032-1.414.812-2.243 1.773-2.427 3.348l-.021.219c-.006.069-.006 1.383-.032 1.473.103 2.773 1.07 5.587 3.014 7.566 1.894 1.927 3.902 1.472 7.158.253l5.47-2.098zm-14.632-12.14l-.95-4.963c-.282-1.466.682-2.887 2.147-3.167.708-.137 1.429.012 2.03.417.598.406 1.002 1.02 1.138 1.73l1.111 5.794.384-.148.092-.041 2.422-.924 10.088-3.877.156-.056c1.484-.473 3.108.35 3.57 1.887.432 1.443-.436 2.964-1.842 3.504l-4.577 1.758.106.138c.135.188.247.397.334.624.352.915.194 1.903-.332 2.651.344.295.627.679.801 1.132.374.972.172 2.023-.437 2.786.396.36.696.847.835 1.421.342 1.402-.514 2.828-1.861 3.345l-5.318 2.041-.819.301c-2.968 1.055-5.972 1.634-8.574-1.112-2.722-2.874-3.527-7.443-3.459-10.016.07-2.573 1.281-4.12 2.955-5.226z" transform="translate(0 29)"/>
            <path fill="#FFF" d="M64.943 46.337l-13.868 5.328-.101.033c-.247.066-.5.026-.713-.09-.2-.093-.352-.264-.434-.477l-.017-.03-.007-.038-.027-.075-1.335-6.957c-.048-.255-.195-.476-.41-.622-.215-.146-.475-.199-.73-.15-.526.1-.872.611-.771 1.14l.893 4.66-.003.076c-.074 1.081-1.47 1.254-1.77.046l-.027-.13c-.115-.684-.746-.559-1.892.375l-.234.475c-.658 1.359-.873 2.019-.72 2.172 1.961 1.967 1.82 4.336 2.196 5.988.376 1.653.865 3.632 2.81 5.61 1.893 1.928 3.901 1.473 7.157.254l5.47-2.098.092-.042c.385-.201.567-.668.408-1.081-.171-.446-.677-.671-1.124-.5l-.918.353-.101.033c-.478.125-.983-.126-1.165-.596-.193-.505.059-1.072.563-1.266l1.954-.75.092-.042c.384-.201.566-.668.407-1.081-.17-.446-.677-.671-1.123-.5l-.86.33-.102.034c-.476.125-.983-.126-1.164-.596-.193-.505.06-1.072.564-1.266l1.718-.66.092-.042c.384-.201.567-.667.408-1.082-.172-.445-.677-.67-1.123-.499l-1.718.66-.102.033c-.477.126-.984-.126-1.164-.596-.194-.504.058-1.072.562-1.265l8.96-3.446.093-.042c.384-.202.567-.667.407-1.081-.17-.446-.677-.671-1.123-.5z" transform="translate(0 29)"/>
        </g>
        <g fill="#D52B1E" fill-rule="nonzero">
            <path d="M33.864 33.907c.396.384.407 1.017.022 1.414-.384.396-1.017.407-1.414.023-2.427-2.35-5.985-3.353-10.744-2.969-.55.045-1.033-.365-1.077-.916-.045-.55.365-1.033.916-1.077 5.291-.428 9.414.734 12.297 3.525zm1.982-8.517c1.1-4.105 7.258-2.456 6.158 1.65-1.1 4.105-7.258 2.455-6.158-1.65zM18.13 20.375c1.1-4.105 7.258-2.455 6.158 1.65-1.1 4.105-7.258 2.455-6.158-1.65z" transform="translate(34 33)"/>
        </g>
    </g>
</svg>
