<?xml version="1.0" encoding="UTF-8"?>
<svg width="29px" height="29px" viewBox="0 0 29 29" version="1.1" xmlns="http://www.w3.org/2000/svg" xmlns:xlink="http://www.w3.org/1999/xlink">
    <title>F51E08DD-C054-4A35-99B0-305DBB3AB9DF</title>
    <g id="Seguros---Cotización---Autos" stroke="none" stroke-width="1" fill="none" fill-rule="evenodd">
        <g id="M---Seguros---Cotiz-Auto---Paso-7---Planes-4---Modal-Coberturas" transform="translate(-15.000000, -390.000000)">
            <g id="Modal-vertical-Copy" transform="translate(15.000000, 150.000000)">
                <g id="Terceros-Completos" transform="translate(0.000000, 240.000000)">
                    <g id="Group-69" transform="translate(2.636364, 5.272727)">
                        <path d="M21.6935818,9.46863182 L1.92085455,9.46863182 C1.60053636,9.46863182 1.29867273,9.31308636 1.11412727,9.05208636 C0.929581818,8.78976818 0.882127273,8.45363182 0.987581818,8.15176818 L3.15994545,1.98267727 C3.57649091,0.797631818 4.7009,0.00145 5.95712727,0.00145 L17.6573091,0.00145 C18.9148545,0.00145 20.0379455,0.79895 20.4544909,1.98399545 L22.6268545,8.15176818 C22.7323091,8.45363182 22.6848545,8.78976818 22.5003091,9.05208636 C22.3157636,9.31308636 22.0139,9.46863182 21.6935818,9.46863182" id="Fill-1" fill="#96003E"></path>
                        <path d="M3.31680909,7.49135909 L20.2976273,7.49135909 L18.5892636,2.63913182 C18.4495364,2.24499545 18.0764909,1.97872273 17.6573091,1.97872273 L5.95712727,1.97872273 C5.53926364,1.97872273 5.16358182,2.24499545 5.02517273,2.63913182 L3.31680909,7.49135909 Z" id="Fill-3" fill="#D6D1CA"></path>
                        <path d="M20.3,7.48753636 L19.3640909,7.48753636 C19.3245455,6.02435455 18.4281818,4.77076364 17.1627273,4.21844545 L16.6090909,2.63530909 C16.4772727,2.24117273 16.095,1.97621818 15.6863636,1.97621818 L17.6636364,1.97621818 C18.0722727,1.97621818 18.4545455,2.24117273 18.5863636,2.63530909 L20.3,7.48753636 Z" id="Fill-8" fill="#AFAAA3"></path>
                        <path d="M19.3642227,7.48753636 L18.3228591,7.48753636 L17.1628591,4.21844545 C18.4283136,4.77076364 19.3246773,6.02435455 19.3642227,7.48753636" id="Fill-10" fill="#3E3D40"></path>
                        <path d="M19.3642227,7.48753636 L19.3642227,7.57849091 C19.3642227,7.9489 19.0610409,8.23758182 18.7051318,8.23758182 C18.3360409,8.23758182 18.0460409,7.9489 18.0460409,7.57849091 C18.0460409,6.27480909 16.9783136,5.22026364 15.6733136,5.22026364 C14.3683136,5.22026364 13.3137682,6.27480909 13.3137682,7.57849091 C13.3137682,7.9489 13.0237682,8.23758182 12.6546773,8.23758182 C12.2855864,8.23758182 11.9955864,7.9489 11.9955864,7.57849091 C11.9955864,5.54980909 13.6433136,3.90208182 15.6733136,3.90208182 C16.2005864,3.90208182 16.7014955,4.00621818 17.1628591,4.21844545 L18.3228591,7.48753636 L19.3642227,7.48753636 Z" id="Fill-12" fill="#5B5B5B"></path>
                        <path d="M22.5012318,9.05538182 C22.3166864,9.30583636 22.0135045,9.46533636 21.6971409,9.46533636 L1.92441364,9.46533636 C1.59486818,9.46533636 1.30486818,9.30583636 1.10714091,9.05538182 C0.922595455,8.79306364 0.88305,8.44901818 0.988504545,8.14715455 L1.54214091,6.56401818 C1.67395909,6.52447273 1.83214091,6.51129091 1.97714091,6.51129091 L3.66441364,6.51129091 L3.32168636,7.48806364 L11.9953227,7.48806364 L11.9953227,7.57901818 C11.9953227,7.94810909 12.2853227,8.23810909 12.6544136,8.23810909 C13.0235045,8.23810909 13.3135045,7.94810909 13.3135045,7.57901818 C13.3135045,7.55265455 13.3135045,7.51310909 13.3266864,7.48806364 L18.0325955,7.48806364 C18.0457773,7.51310909 18.0457773,7.55265455 18.0457773,7.57901818 C18.0457773,7.94810909 18.3357773,8.23810909 18.7048682,8.23810909 C19.0607773,8.23810909 19.3639591,7.94810909 19.3639591,7.57901818 L19.3639591,7.48806364 L20.2998682,7.48806364 L19.9571409,6.51129091 L21.7498682,6.51129091 C21.8553227,6.51129091 21.9607773,6.52447273 22.05305,6.53897273 L22.6198682,8.14715455 C22.7385045,8.44901818 22.6857773,8.79306364 22.5012318,9.05538182" id="Fill-14" fill="#630731"></path>
                        <path d="M13.3268182,7.48753636 C13.3136364,7.5139 13.3136364,7.55344545 13.3136364,7.57849091 C13.3136364,7.9489 13.0236364,8.23758182 12.6545455,8.23758182 C12.2854545,8.23758182 11.9954545,7.9489 11.9954545,7.57849091 L11.9954545,7.48753636 L13.3268182,7.48753636 Z" id="Fill-16" fill="#AFAAA3"></path>
                        <path d="M19.3642227,7.48753636 L19.3642227,7.57849091 C19.3642227,7.9489 19.0610409,8.23758182 18.7051318,8.23758182 C18.3360409,8.23758182 18.0460409,7.9489 18.0460409,7.57849091 C18.0460409,7.55344545 18.0460409,7.5139 18.0328591,7.48753636 L19.3642227,7.48753636 Z" id="Fill-18" fill="#AFAAA3"></path>
                        <path d="M3.66125,20.6396955 L2.63834091,20.6396955 C1.18438636,20.6396955 0.00197727273,19.4572864 0.00197727273,18.0033318 L0.00197727273,14.4679682 C0.00197727273,14.10415 0.29725,13.8088773 0.661068182,13.8088773 L5.63852273,13.8088773 C6.00234091,13.8088773 6.29761364,14.10415 6.29761364,14.4679682 L6.29761364,18.0033318 C6.29761364,19.4572864 5.11520455,20.6396955 3.66125,20.6396955" id="Fill-20" fill="#5B5B5B"></path>
                        <path d="M21.0344909,20.6396955 L20.0115818,20.6396955 C18.5576273,20.6396955 17.3752182,19.4572864 17.3752182,18.0033318 L17.3752182,14.4679682 C17.3752182,14.10415 17.6704909,13.8088773 18.0343091,13.8088773 L23.0117636,13.8088773 C23.3755818,13.8088773 23.6708545,14.10415 23.6708545,14.4679682 L23.6708545,18.0033318 C23.6708545,19.4572864 22.4884455,20.6396955 21.0344909,20.6396955" id="Fill-22" fill="#5B5B5B"></path>
                        <path d="M6.30077727,14.4736364 L6.30077727,18.0063636 C6.30077727,18.0854545 6.30077727,18.1513636 6.28759545,18.2172727 L1.97714091,18.2172727 C0.88305,18.2172727 -0.000131818182,17.3340909 -0.000131818182,16.24 L-0.000131818182,14.4736364 C-0.000131818182,14.1045455 0.30305,13.8145455 0.658959091,13.8145455 L5.64168636,13.8145455 C5.99759545,13.8145455 6.30077727,14.1045455 6.30077727,14.4736364" id="Fill-24" fill="#3E3D40"></path>
                        <path d="M23.6746773,14.4736364 L23.6746773,16.675 C23.47695,17.5581818 22.6992227,18.2172727 21.7501318,18.2172727 L17.38695,18.2172727 C17.3737682,18.1513636 17.3737682,18.0854545 17.3737682,18.0063636 L17.3737682,14.4736364 C17.3737682,14.1045455 17.6637682,13.8145455 18.0328591,13.8145455 L23.0155864,13.8145455 C23.3714955,13.8145455 23.6746773,14.1045455 23.6746773,14.4736364" id="Fill-27" fill="#3E3D40"></path>
                        <path d="M21.7521091,17.22455 L1.97938182,17.22455 C0.886609091,17.22455 0.00210909091,16.34005 0.00210909091,15.2472773 L0.00210909091,9.47100455 C0.00210909091,8.37955 0.886609091,7.49373182 1.97938182,7.49373182 L21.7521091,7.49373182 C22.8448818,7.49373182 23.7293818,8.37955 23.7293818,9.47100455 L23.7293818,15.2472773 C23.7293818,16.34005 22.8448818,17.22455 21.7521091,17.22455" id="Fill-29" fill="#96003E"></path>
                        <path d="M20.3064591,14.66675 L17.6700955,14.66675 C16.9437773,14.66675 16.3519136,14.0762045 16.3519136,13.3485682 L16.3519136,12.0303864 C16.3519136,11.30275 16.9437773,10.7122045 17.6700955,10.7122045 L20.3064591,10.7122045 C21.0327773,10.7122045 21.6246409,11.30275 21.6246409,12.0303864 L21.6246409,13.3485682 C21.6246409,14.0762045 21.0327773,14.66675 20.3064591,14.66675" id="Fill-31" fill="#630731"></path>
                        <path d="M7.29837727,14.66675 L4.66201364,14.66675 C3.93569545,14.66675 3.34383182,14.0762045 3.34383182,13.3485682 L3.34383182,12.0303864 C3.34383182,11.30275 3.93569545,10.7122045 4.66201364,10.7122045 L7.29837727,10.7122045 C8.02469545,10.7122045 8.61655909,11.30275 8.61655909,12.0303864 L8.61655909,13.3485682 C8.61655909,14.0762045 8.02469545,14.66675 7.29837727,14.66675" id="Fill-33" fill="#630731"></path>
                        <path d="M14.4416045,12.0303864 L10.2656045,12.0303864 C9.90178636,12.0303864 9.60651364,11.7351136 9.60651364,11.3712955 C9.60651364,11.0074773 9.90178636,10.7122045 10.2656045,10.7122045 L14.4416045,10.7122045 C14.8054227,10.7122045 15.1006955,11.0074773 15.1006955,11.3712955 C15.1006955,11.7351136 14.8054227,12.0303864 14.4416045,12.0303864" id="Fill-35" fill="#630731"></path>
                        <path d="M14.4416045,14.66675 L10.2656045,14.66675 C9.90178636,14.66675 9.60651364,14.3714773 9.60651364,14.0076591 C9.60651364,13.6438409 9.90178636,13.3485682 10.2656045,13.3485682 L14.4416045,13.3485682 C14.8054227,13.3485682 15.1006955,13.6438409 15.1006955,14.0076591 C15.1006955,14.3714773 14.8054227,14.66675 14.4416045,14.66675" id="Fill-37" fill="#630731"></path>
                        <path d="M19.8186,14.3372045 L17.1822364,14.3372045 C16.4559182,14.3372045 15.8640545,13.7466591 15.8640545,13.0190227 L15.8640545,11.7008409 C15.8640545,10.9732045 16.4559182,10.3826591 17.1822364,10.3826591 L19.8186,10.3826591 C20.5449182,10.3826591 21.1367818,10.9732045 21.1367818,11.7008409 L21.1367818,13.0190227 C21.1367818,13.7466591 20.5449182,14.3372045 19.8186,14.3372045" id="Fill-39" fill="#E7E5E2"></path>
                        <path d="M6.81051818,14.3372045 L4.17415455,14.3372045 C3.44783636,14.3372045 2.85597273,13.7466591 2.85597273,13.0190227 L2.85597273,11.7008409 C2.85597273,10.9732045 3.44783636,10.3826591 4.17415455,10.3826591 L6.81051818,10.3826591 C7.53683636,10.3826591 8.1287,10.9732045 8.1287,11.7008409 L8.1287,13.0190227 C8.1287,13.7466591 7.53683636,14.3372045 6.81051818,14.3372045" id="Fill-41" fill="#E7E5E2"></path>
                        <path d="M13.9537455,11.7008409 L9.77774545,11.7008409 C9.41392727,11.7008409 9.11865455,11.4055682 9.11865455,11.04175 C9.11865455,10.6779318 9.41392727,10.3826591 9.77774545,10.3826591 L13.9537455,10.3826591 C14.3175636,10.3826591 14.6128364,10.6779318 14.6128364,11.04175 C14.6128364,11.4055682 14.3175636,11.7008409 13.9537455,11.7008409" id="Fill-43" fill="#5B5B5B"></path>
                        <path d="M13.9537455,14.3372045 L9.77774545,14.3372045 C9.41392727,14.3372045 9.11865455,14.0419318 9.11865455,13.6781136 C9.11865455,13.3142955 9.41392727,13.0190227 9.77774545,13.0190227 L13.9537455,13.0190227 C14.3175636,13.0190227 14.6128364,13.3142955 14.6128364,13.6781136 C14.6128364,14.0419318 14.3175636,14.3372045 13.9537455,14.3372045" id="Fill-45" fill="#5B5B5B"></path>
                        <path d="M21.1303227,11.7059818 L21.1303227,13.0241636 C21.1303227,13.7491636 20.5503227,14.3423455 19.8121409,14.3423455 L18.8235045,14.3423455 C19.5616864,14.3423455 20.1416864,13.7491636 20.1416864,13.0241636 L20.1416864,11.7059818 C20.1416864,10.9664818 19.5616864,10.3878 18.8235045,10.3878 L19.8121409,10.3878 C20.5503227,10.3878 21.1303227,10.9664818 21.1303227,11.7059818" id="Fill-47" fill="#AFAAA3"></path>
                        <path d="M8.13318182,11.7059818 L8.13318182,13.0241636 C8.13318182,13.7491636 7.54,14.3423455 6.815,14.3423455 L5.82636364,14.3423455 C6.55136364,14.3423455 7.14454545,13.7491636 7.14454545,13.0241636 L7.14454545,11.7059818 C7.14454545,10.9664818 6.55136364,10.3878 5.82636364,10.3878 L6.815,10.3878 C7.54,10.3878 8.13318182,10.9664818 8.13318182,11.7059818" id="Fill-49" fill="#AFAAA3"></path>
                        <path d="M14.6186364,11.0468909 C14.6186364,11.4028 14.3154545,11.7059818 13.9595455,11.7059818 L12.9709091,11.7059818 C13.3268182,11.7059818 13.63,11.4028 13.63,11.0468909 C13.63,10.6778 13.3268182,10.3878 12.9709091,10.3878 L13.9595455,10.3878 C14.3154545,10.3878 14.6186364,10.6778 14.6186364,11.0468909" id="Fill-51" fill="#3E3D40"></path>
                        <path d="M14.6186364,13.6832545 C14.6186364,14.0391636 14.3154545,14.3423455 13.9595455,14.3423455 L12.9709091,14.3423455 C13.3268182,14.3423455 13.63,14.0391636 13.63,13.6832545 C13.63,13.3141636 13.3268182,13.0241636 12.9709091,13.0241636 L13.9595455,13.0241636 C14.3154545,13.0241636 14.6186364,13.3141636 14.6186364,13.6832545" id="Fill-53" fill="#3E3D40"></path>
                        <path d="M23.7274045,9.47772727 L23.7274045,15.2513636 C23.7274045,16.3454545 22.8442227,17.2286364 21.7501318,17.2286364 L19.7728591,17.2286364 C20.86695,17.2286364 21.7501318,16.3454545 21.7501318,15.2513636 L21.7501318,9.47772727 C21.7501318,8.38363636 20.86695,7.50045455 19.7728591,7.50045455 L21.7501318,7.50045455 C22.8442227,7.50045455 23.7274045,8.38363636 23.7274045,9.47772727" id="Fill-55" fill="#630731"></path>
                        <path d="M12.1533727,6.51181818 C12.0611,6.815 12.0083727,7.14454545 11.9951909,7.48727273 L3.32155455,7.48727273 L3.66428182,6.51181818 L12.1533727,6.51181818 Z" id="Fill-57" fill="#5B5B5B"></path>
                        <path d="M18.0324636,7.48753636 L13.3265545,7.48753636 C13.3265545,7.13030909 13.4188273,6.80076364 13.5770091,6.51208182 L17.7820091,6.51208182 C17.9401909,6.80076364 18.0324636,7.13030909 18.0324636,7.48753636" id="Fill-59" fill="#5B5B5B"></path>
                        <path d="M20.3,7.48753636 L19.3640909,7.48753636 C19.3509091,7.14480909 19.2981818,6.81526364 19.2059091,6.51208182 L19.9572727,6.51208182 L20.3,7.48753636 Z" id="Fill-61" fill="#5B5B5B"></path>
                        <path d="M17.7821409,6.51181818 L13.5771409,6.51181818 C13.9594136,5.74727273 14.7503227,5.22131818 15.67305,5.22131818 C16.5957773,5.22131818 17.3866864,5.74727273 17.7821409,6.51181818" id="Fill-63" fill="#D6D1CA"></path>
                        <path d="M13.5771409,6.51181818 C13.4189591,6.80181818 13.3266864,7.13136364 13.3266864,7.48727273 L11.9953227,7.48727273 C12.0085045,7.14454545 12.0612318,6.815 12.1535045,6.51181818 L13.5771409,6.51181818 Z" id="Fill-65" fill="#3E3D40"></path>
                        <path d="M19.3642227,7.48753636 L18.0328591,7.48753636 C18.0328591,7.13030909 17.9405864,6.80076364 17.7824045,6.51208182 L19.2060409,6.51208182 C19.2983136,6.81526364 19.3510409,7.14480909 19.3642227,7.48753636" id="Fill-67" fill="#3E3D40"></path>
                    </g>
                </g>
            </g>
        </g>
    </g>
</svg>