<svg xmlns="http://www.w3.org/2000/svg" width="40" height="40" viewBox="0 0 40 40">
    <g fill="none" fill-rule="evenodd">
        <g>
            <g>
                <g>
                    <g>
                        <g>
                            <path fill="#E70000" d="M3.602 11h24.432c.851 0 1.566.643 1.657 1.488l1.962 18.398c.098.915-.564 1.737-1.479 1.833-.058.005-.118.009-.176.009H1.665c-.92 0-1.665-.745-1.665-1.665 0-.059.003-.117.009-.175l1.936-18.396C2.035 11.644 2.75 11 3.602 11" transform="translate(-226 -942) translate(200 559) translate(0 357) translate(26 26) translate(3.636 3.636)"/>
                            <path fill="#FFAB1C" d="M21.123 7.44c0-2.957-2.262-5.468-4.996-5.64l-.295-.007c-2.767 0-5.123 2.41-5.283 5.333l-.008.315-.002 8.009.073.018c.266.09-2.247.102-1.936 0l.07-.018.003-8.01c0-3.794 2.87-7.036 6.412-7.403l.333-.027.338-.01c3.731 0 6.891 3.213 7.075 7.088l.007.353V11l-.007 1.796v2.653l.072.018c.266.09-2.24.102-1.929 0l.073-.02V7.441z" transform="translate(-226 -942) translate(200 559) translate(0 357) translate(26 26) translate(3.636 3.636)"/>
                            <path fill="#C40808" d="M11.9 15.45l.073.018c.266.09.479.299.571.566l.035.14.693 4.174.003.095c0 .444-.325.814-.75.884l-.146.012-1.655-.003.135-.01c.378-.061.676-.361.738-.738l.013-.145-.004-.095-.693-4.174-.034-.14c-.093-.267-.306-.477-.571-.566l-.075-.018h1.668zM24.275 15.45l.072.018c.266.09.48.299.571.566l.035.14.693 4.174.003.095c0 .444-.325.814-.75.884l-.144.012-1.655-.003.133-.01c.378-.061.678-.361.74-.738l.01-.145-.003-.095-.693-4.174-.034-.14c-.091-.267-.306-.477-.571-.566l-.073-.018h1.666zM31.657 30.89c.091.91-.563 1.728-1.49 1.837h-2.728c.928-.11 1.582-.927 1.491-1.836l-1.963-18.4c-.091-.855-.8-1.49-1.655-1.49h2.727c.855 0 1.564.635 1.655 1.49l1.963 18.4z" transform="translate(-226 -942) translate(200 559) translate(0 357) translate(26 26) translate(3.636 3.636)"/>
                            <path fill="#FFC976" d="M10.533 15.45l.073.018c.266.09.48.299.571.566l.035.14.692 4.174.004.095c0 .444-.325.814-.75.884l-.145.012-2.829-.003-.065-.008c-.436-.072-.75-.456-.747-.885l.012-.144.688-4.125c.054-.338.294-.606.605-.706l.071-.02 1.785.002zM22.907 15.45l.073.018c.266.09.48.299.571.566l.035.14.694 4.174.002.095c0 .444-.325.814-.75.884l-.145.012-2.829-.003-.065-.008c-.436-.072-.747-.456-.747-.885l.012-.144.688-4.125c.054-.338.294-.606.605-.706l.071-.02 1.785.002z" transform="translate(-226 -942) translate(200 559) translate(0 357) translate(26 26) translate(3.636 3.636)"/>
                            <path fill="#FFAB1C" d="M23.047 15.495l-.067-.028c.265.09.48.299.57.568l.035.14.695 4.174.003.095c0 .443-.327.814-.75.883l-.146.013-2.827-.003-.068-.008c-.436-.072-.747-.456-.745-.885l.01-.144.019-.113c.078.006.156.01.235.01 1.838 0 3.33-1.491 3.33-3.331 0-.49-.105-.953-.294-1.371M10.673 15.495l-.067-.028c.265.09.48.299.57.568l.035.14.695 4.174.003.095c0 .443-.327.814-.75.883l-.146.013-2.827-.003-.068-.008c-.436-.072-.747-.456-.747-.885l.013-.144.018-.113c.076.006.155.01.235.01 1.838 0 3.33-1.491 3.33-3.331 0-.49-.105-.953-.294-1.371" transform="translate(-226 -942) translate(200 559) translate(0 357) translate(26 26) translate(3.636 3.636)"/>
                            <path fill="#F4950C" d="M10.549 7.128v8.326l.072.02c.182.072-1.036.09-1.636.052.145-.018.218-.034.164-.052l-.073-.02V7.437l.018-.309c.164-2.927 2.51-5.329 5.29-5.329h.292c.163 0 .345.038.509.056-2.491.326-4.491 2.582-4.636 5.273M21.366 15.527c.146-.019.218-.037.164-.053l-.073-.02V7.09c-.018-.325-.054-.634-.109-.943-.545-3.182-3.09-5.73-6.182-6.111l.327-.017.346-.02c3.727 0 6.89 3.218 7.073 7.091v8.364l.072.02c.182.073-1.018.09-1.618.053" transform="translate(-226 -942) translate(200 559) translate(0 357) translate(26 26) translate(3.636 3.636)"/>
                        </g>
                    </g>
                </g>
            </g>
        </g>
    </g>
</svg>
