<svg xmlns="http://www.w3.org/2000/svg" width="44" height="44" viewBox="0 0 44 44">
    <g fill="none" fill-rule="evenodd">
        <g fill="#3E3D40">
            <g>
                <g>
                    <g>
                        <g>
                            <path d="M36.057 8c1.456 0 2.636 1.18 2.636 2.636V26.45c0 .392-.086.765-.24 1.1.128.068.244.155.352.26.203.198.324.392.559.86l2.45 4.901c.434.868.082 1.924-.786 2.358-.244.122-.513.185-.786.185H3.757c-.97 0-1.757-.786-1.757-1.757 0-.273.064-.542.186-.786l2.524-5.047c.188-.365.304-.538.485-.715.107-.104.223-.19.35-.26-.152-.334-.238-.707-.238-1.099V10.636C5.307 9.18 6.487 8 7.943 8zM6.807 29.086c-.113 0-.197 0-.26.002l-.148.007-.009.015c-.015.024-.035.06-.064.115l-2.569 5.132h36.485l-2.45-4.9c-.05-.102-.089-.176-.118-.232l-.074-.13-.06-.004-.208-.005zm17.286 2.636c.332 0 .637.188.785.485l.197.393c.15.3.028.665-.272.815-.084.042-.177.064-.271.064h-5.943c-.335 0-.607-.272-.607-.607 0-.095.022-.188.064-.272l.197-.393c.149-.297.453-.485.785-.485h5.065zM36.057 9.757H7.943c-.486 0-.879.393-.879.879V26.45c0 .485.393.879.879.879h28.114c.485 0 .879-.394.879-.879V10.636c0-.486-.394-.879-.879-.879z" transform="translate(-819 -121) translate(0 60) translate(615 61) translate(193) translate(11)"/>
                        </g>
                    </g>
                </g>
            </g>
        </g>
    </g>
</svg>
