<svg xmlns="http://www.w3.org/2000/svg" width="26" height="26" viewBox="0 0 26 26">
    <g fill="none" fill-rule="evenodd">
        <g>
            <g>
                <g>
                    <g>
                        <path fill="#AFAAA3" d="M15.446 20.12c1.325.466 2.858.168 3.916-.89 1.06-1.06 1.356-2.592.89-3.917l-4.806 4.806z" transform="translate(-635 -625) translate(635 257) translate(0 368) translate(1.182 1.182)"/>
                        <path fill="#5B5B5B" d="M19.362 19.234c-.969.958-2.328 1.288-3.569.993.65-.154 1.265-.485 1.773-.993.65-.662 1.005-1.477 1.087-2.328l1.596-1.596c.472 1.324.177 2.861-.887 3.924" transform="translate(-635 -625) translate(635 257) translate(0 368) translate(1.182 1.182)"/>
                        <path fill="#FFC976" d="M15.31 6.138c-2.48-2.478-6.485-2.495-8.985-.053-2.51 2.453-2.565 6.507-.12 9.024 1.304 1.343 3.05 1.987 4.778 1.936.711-.021 1.398.262 1.901.766l.843.843 5.06-5.06-.85-.85c-.5-.5-.78-1.181-.758-1.887.052-1.702-.571-3.42-1.87-4.719" transform="translate(-635 -625) translate(635 257) translate(0 368) translate(1.182 1.182)"/>
                        <path fill="#FFAB1C" d="M18.784 13.597l-5.059 5.057-.839-.839-.059-.058 4.16-4.16-.85-.852c-.497-.496-.78-1.182-.757-1.89.047-1.703-.567-3.415-1.867-4.716-1.017-1.015-2.293-1.63-3.617-1.807 1.927-.272 3.936.33 5.413 1.807 1.3 1.3 1.926 3.013 1.867 4.716-.023.708.26 1.394.757 1.89l.85.852z" transform="translate(-635 -625) translate(635 257) translate(0 368) translate(1.182 1.182)"/>
                        <path fill="#E7E5E2" d="M17.06 12.53l-4.396 4.396c-.458.459-.458 1.204 0 1.664.46.46 1.204.46 1.664 0l4.395-4.395c.459-.459.459-1.204 0-1.664-.46-.46-1.204-.46-1.664 0" transform="translate(-635 -625) translate(635 257) translate(0 368) translate(1.182 1.182)"/>
                        <path fill="#E7E5E2" d="M18.723 14.195l-4.395 4.395c-.459.459-.459 1.203 0 1.663.46.46 1.204.46 1.664 0l4.395-4.395c.459-.459.459-1.203 0-1.663-.46-.46-1.204-.46-1.664 0" transform="translate(-635 -625) translate(635 257) translate(0 368) translate(1.182 1.182)"/>
                        <path fill="#D6D1CA" d="M17.06 12.53l-1.256 1.256c.461-.46 1.206-.46 1.664 0 .46.458.46 1.204 0 1.664l1.255-1.255c.459-.459.459-1.204 0-1.664-.46-.46-1.204-.46-1.664 0" transform="translate(-635 -625) translate(635 257) translate(0 368) translate(1.182 1.182)"/>
                        <path fill="#D6D1CA" d="M18.723 14.195l-1.255 1.255c.46-.46 1.205-.46 1.664 0 .46.459.46 1.203 0 1.663l1.255-1.255c.459-.459.459-1.203 0-1.663-.46-.46-1.204-.46-1.664 0" transform="translate(-635 -625) translate(635 257) translate(0 368) translate(1.182 1.182)"/>
                        <path fill="#D6D1CA" d="M19.689 13.866c.041.343-.074.694-.334.954l-4.396 4.395c-.258.259-.61.376-.96.341-.043-.341.066-.7.333-.967l4.396-4.397c.267-.267.627-.376.961-.326" transform="translate(-635 -625) translate(635 257) translate(0 368) translate(1.182 1.182)"/>
                        <path fill="#FF9D00" d="M11.054 2.918c-.106.107-.254.173-.418.173-.325 0-.59-.264-.59-.591V.59c0-.326.264-.59.59-.59.326 0 .591.264.591.59V2.5c0 .163-.065.31-.173.418M11.054 21.099c-.106.108-.254.173-.418.173-.327 0-.591-.264-.591-.591v-1.908c0-.326.266-.59.592-.59.326 0 .59.264.59.59v1.908c0 .164-.067.312-.173.418M21.1 11.054c-.107.107-.255.172-.419.172l-1.907.001c-.328 0-.591-.264-.591-.59 0-.327.263-.592.59-.592h1.908c.327 0 .59.264.59.59 0 .164-.064.312-.172.419M2.918 11.055c-.106.107-.254.172-.418.172H.59c-.325 0-.59-.265-.59-.59 0-.327.265-.592.59-.592H2.5c.327 0 .59.265.59.591 0 .163-.066.311-.172.419M18.157 3.951l-1.35 1.35c-.23.231-.603.231-.835 0-.23-.232-.23-.604 0-.835l1.35-1.35c.23-.23.605-.23.835 0 .23.23.23.605 0 .835M5.301 16.808l-1.35 1.35c-.231.231-.605.231-.836 0-.23-.23-.23-.604 0-.835l1.35-1.35c.231-.231.605-.231.836 0 .23.23.23.604 0 .835" transform="translate(-635 -625) translate(635 257) translate(0 368) translate(1.182 1.182)"/>
                    </g>
                </g>
            </g>
        </g>
    </g>
</svg>
