<svg xmlns="http://www.w3.org/2000/svg" width="27" height="27" viewBox="0 0 27 27">
    <defs>
        <linearGradient id="a413s0pzza" x1="12.477%" x2="59.992%" y1="39.813%" y2="53.74%">
            <stop offset="0%" stop-color="#FFB639"/>
            <stop offset="100%" stop-color="#FFA100"/>
        </linearGradient>
        <linearGradient id="85mnwxcq6b" x1="0%" x2="100%" y1="50%" y2="50%">
            <stop offset="0%" stop-color="#FFC86B"/>
            <stop offset="100%" stop-color="#F9A81D"/>
        </linearGradient>
        <linearGradient id="8y1x7fnh5c" x1="0%" x2="100%" y1="50%" y2="50%">
            <stop offset="0%" stop-color="#FFB639"/>
            <stop offset="100%" stop-color="#FFA100"/>
        </linearGradient>
    </defs>
    <g fill="none" fill-rule="evenodd">
        <g transform="matrix(-1 0 0 1 25.773 12.273)">
            <path fill="url(#a413s0pzza)" fill-rule="nonzero" d="M13.262 0H3.246C2.499 0 0 4.345 0 6.031v4.325c0 .533.432.965.964.965h22.382c.533 0 .965-.432.965-.965V8.168l-.004-.126c-.051-.92-.66-1.72-1.541-2.01l-4.47-1.347L14.761.677c-.38-.43-.926-.677-1.5-.677z"/>
            <path fill="#000" fill-rule="nonzero" d="M13.262 0c.574 0 1.12.247 1.5.677l3.533 4.008 4.47 1.346c.883.291 1.49 1.092 1.542 2.01l.004.127v2.188c0 .533-.432.965-.965.965H22.12c.533 0 .964-.432.964-.965V8.168l-.003-.126c-.051-.92-.66-1.72-1.541-2.01l-4.47-1.347L13.534.677c-.38-.43-.927-.677-1.5-.677zM18.074 8.708c1.404 0 2.542 1.138 2.542 2.542v.07h-5.082l-.002-.07c0-1.348 1.049-2.45 2.375-2.537zM3.288 8.708c1.404 0 2.543 1.138 2.543 2.542l-.001.07H.964c-.075 0-.148-.008-.218-.024v-.046c0-1.404 1.138-2.542 2.542-2.542z" opacity=".1"/>
            <path fill="#B8E9FF" d="M1.281 6.75c.335.024.6.303.6.643 0 .334-.255.609-.581.64l-.019.001L0 8.036V6.75h1.281z"/>
            <circle cx="4.516" cy="11.25" r="1.929" fill="#939393"/>
            <path fill="#333" fill-rule="nonzero" d="M4.516 8.708c-1.404 0-2.543 1.138-2.543 2.542s1.139 2.542 2.543 2.542c1.404 0 2.542-1.138 2.542-2.542S5.92 8.708 4.516 8.708zm0 1.227c.726 0 1.315.589 1.315 1.315s-.59 1.315-1.315 1.315c-.727 0-1.315-.589-1.315-1.315s.588-1.315 1.315-1.315z"/>
            <circle cx="19.301" cy="11.25" r="1.929" fill="#939393"/>
            <path fill="#333" fill-rule="nonzero" d="M19.301 8.708c-1.404 0-2.542 1.138-2.542 2.542s1.138 2.542 2.542 2.542 2.543-1.138 2.543-2.542-1.139-2.542-2.543-2.542zm0 1.227c.727 0 1.315.589 1.315 1.315s-.588 1.315-1.315 1.315c-.726 0-1.315-.589-1.315-1.315s.59-1.315 1.315-1.315z"/>
            <path fill="#B8E9FF" fill-rule="nonzero" d="M23.807 6.749c.293.36.473.81.5 1.293l.004.126-.001.51h-1.538c-.503-.035-.9-.453-.9-.964 0-.5.383-.913.872-.96l.027-.001V6.75z"/>
            <path fill="#333" d="M8.375 1.371v3.805H2.992L4.063 1.37h4.312zm5.796 0l3.303 3.805h-8.01V1.37h4.707z"/>
            <path fill="#FFF" d="M8.375 1.371v3.805H2.992L4.063 1.37h4.312zm3.373 0c1.216 1.08 2.243 2.366 3.028 3.804H9.464V1.372z" opacity=".1"/>
            <rect width="2.455" height="1.227" x="9.818" y="6.136" fill="#FFF" opacity=".2" rx=".5"/>
        </g>
        <path fill="url(#85mnwxcq6b)" fill-rule="nonzero" d="M20.215 1.298l-5.16 2.707c-.201.106-.328.315-.328.543v3.92c0 2.874 1.546 5.525 4.046 6.941l1.425.807c.185.105.411.106.598.004l1.5-.825c2.55-1.401 4.136-4.08 4.136-6.99V4.547c0-.23-.13-.442-.335-.546l-5.319-2.708c-.177-.09-.387-.089-.563.004z"/>
        <path fill="#000" fill-rule="nonzero" d="M20.215 1.298c.176-.093.386-.094.563-.004l5.319 2.708c.205.104.335.316.335.546v3.856c0 2.91-1.585 5.59-4.136 6.991l-1.5.825c-.04.022-.083.04-.126.052l1.273-.701c2.55-1.402 4.136-4.081 4.136-6.992V4.724c0-.231-.13-.442-.336-.547l-5.318-2.708c-.145-.074-.313-.086-.466-.037z" opacity=".097"/>
        <path fill="url(#8y1x7fnh5c)" fill-rule="nonzero" d="M20.504 2.53l4.7 2.394v3.48l-.006.295c-.102 2.347-1.42 4.482-3.493 5.62l-1.202.66-1.125-.638-.26-.155c-1.963-1.23-3.163-3.388-3.163-5.718v-3.55l4.549-2.387z"/>
        <path fill="url(#8y1x7fnh5c)" fill-rule="nonzero" d="M20.504 2.53l4.7 2.394v3.48l-.006.295c-.102 2.347-1.42 4.482-3.493 5.62l-1.202.66-1.125-.638-.26-.155c-1.963-1.23-3.163-3.388-3.163-5.718v-3.55l4.549-2.387z"/>
        <path fill="#000" fill-rule="nonzero" d="M22.67 6.889c.262-.216.638-.178.841.102.188.258.166.614-.04.843l-.055.054-3.247 2.813-.018.013c-.012.006-.018.012-.024.019-.012 0-.018.006-.024.012-.006 0-.018.007-.024.013l-.071.038-.024.007-.015.008-.033.01-.036.007-.009.006-.05.007h-.132l-.024-.006c-.012 0-.024-.007-.035-.007l-.024-.006-.036-.013-.024-.013c-.012 0-.024-.006-.036-.012l-.012-.004-.042-.028c-.006-.007-.012-.013-.023-.02l-.018-.009-.036-.028-.024-.026c-.012-.006-.018-.019-.024-.025l-.009-.015-1.405-1.755c-.215-.267-.18-.668.071-.897.233-.213.574-.195.793.023l.049.054 1.014 1.266 2.806-2.431z" opacity=".3"/>
        <path fill="#000" fill-rule="nonzero" d="M20.504 2.53l4.7 2.394v3.48l-.006.295c-.102 2.347-1.42 4.482-3.493 5.62l-1.202.66-.052-.03.708-.387c1.996-1.096 3.293-3.116 3.477-5.36l.016-.26.007-.295v-3.48L20 2.793l.503-.263z" opacity=".097"/>
    </g>
</svg>
