<svg xmlns="http://www.w3.org/2000/svg" width="70" height="70" viewBox="0 0 70 70">
    <g fill="none" fill-rule="evenodd">
        <g>
            <g>
                <g>
                    <g>
                        <path fill="#E7E5E2" d="M26.84 56.892c.84.84 2.488.21 2.88-1.104.576-1.94.235-3.942-1.092-5.272-.343-.34-.728-.617-1.148-.83 1.072-2.791.703-5.779-1.225-7.707-.188-.185-.385-.356-.592-.515l2.164-2.16-9.858-9.858-2.73 2.73c-1.823-1.804-4.604-2.177-7.235-1.193-.188-.882-.598-1.687-1.247-2.336-1.33-1.33-3.329-1.67-5.273-1.094-1.314.391-1.944 2.04-1.104 2.88l26.46 26.46z" transform="translate(-370 -328) translate(200 303) translate(170 25) translate(3.182 9.545)"/>
                        <path fill="#AFAAA3" d="M26.254 41.98c-.19-.19-.39-.362-.598-.522l2.164-2.163-9.851-9.848-2.727 2.727 8.34 8.343c1.718 1.718 2.097 4.511.865 7.12-.035.077-.073.153-.111.23-.048.092-.096.181-.143.273-.287.519.003 1.066.55 1.025.974-.067 1.916.105 2.736.522 1.073-2.79.704-5.779-1.225-7.707" transform="translate(-370 -328) translate(200 303) translate(170 25) translate(3.182 9.545)"/>
                        <path fill="#D6D1CA" d="M4.84 32.502c.133.133.365.127.543-.02.821-.655 1.712-1.158 2.622-1.498-.188-.881-.598-1.69-1.247-2.336-.484-.483-1.053-.833-1.677-1.06.493 1.363.382 2.98-.296 4.487-.07.16-.048.325.054.427" transform="translate(-370 -328) translate(200 303) translate(170 25) translate(3.182 9.545)"/>
                        <path fill="#E70000" d="M24.962 11.14h-2.82c-3.674 0-7.196 1.457-9.796 4.056-.9.904-.9 2.364 0 3.265l6.558 6.558 11.241-11.245-.833-.834c-1.155-1.151-2.718-1.8-4.35-1.8" transform="translate(-370 -328) translate(200 303) translate(170 25) translate(3.182 9.545)"/>
                        <path fill="#C40808" d="M46.133 32.31v2.82c0 3.675-1.457 7.197-4.057 9.797-.9.9-2.364.9-3.264 0l-6.558-6.558L43.5 27.128l.833.833c1.152 1.155 1.801 2.717 1.801 4.35" transform="translate(-370 -328) translate(200 303) translate(170 25) translate(3.182 9.545)"/>
                        <path fill="#E7E5E2" d="M50.109 24.984L36.042 39.051 18.221 21.233l14.07-14.07C36.876 2.578 43.099 0 49.584 0h3.633c2.24 0 4.054 1.817 4.054 4.054v3.634c0 6.487-2.574 12.708-7.162 17.296" transform="translate(-370 -328) translate(200 303) translate(170 25) translate(3.182 9.545)"/>
                        <path fill="#D6D1CA" d="M57.272 7.687V4.054c0-2.011-1.466-3.682-3.388-3.997.035.213.057.436.057.665v3.634c0 6.484-2.577 12.708-7.165 17.293l-14.07 14.07 3.334 3.331 14.07-14.066c4.585-4.589 7.162-10.809 7.162-17.297" transform="translate(-370 -328) translate(200 303) translate(170 25) translate(3.182 9.545)"/>
                        <path fill="#FF3F3E" d="M53.218 0h-3.634c-3.933 0-7.77.948-11.207 2.717l16.177 16.177c1.769-3.437 2.717-7.27 2.717-11.207V4.054C57.271 1.817 55.458 0 53.218 0" transform="translate(-370 -328) translate(200 303) translate(170 25) translate(3.182 9.545)"/>
                        <path fill="#FFC976" d="M43.767 26.74c-3.653 3.652-9.58 3.652-13.233 0-3.656-3.653-3.656-9.578 0-13.234 3.652-3.653 9.58-3.656 13.233 0 3.653 3.653 3.653 9.58 0 13.233" transform="translate(-370 -328) translate(200 303) translate(170 25) translate(3.182 9.545)"/>
                        <path fill="#FFAB1C" d="M43.767 13.506c-.576-.576-1.21-1.06-1.877-1.455 2.106 3.586 1.622 8.276-1.458 11.356-3.077 3.077-7.767 3.56-11.352 1.454.394.669.878 1.302 1.454 1.878 3.652 3.656 9.58 3.656 13.233 0 3.653-3.653 3.653-9.58 0-13.233" transform="translate(-370 -328) translate(200 303) translate(170 25) translate(3.182 9.545)"/>
                        <path fill="#B52175" d="M40.953 23.926c-2.1 2.1-5.504 2.1-7.608 0-2.1-2.1-2.1-5.505 0-7.608 2.104-2.1 5.508-2.1 7.608 0 2.1 2.103 2.1 5.508 0 7.608" transform="translate(-370 -328) translate(200 303) translate(170 25) translate(3.182 9.545)"/>
                        <path fill="#96003E" d="M40.953 16.32c-.36-.364-.76-.66-1.187-.898 1.14 2.049.844 4.68-.897 6.42-1.737 1.741-4.372 2.037-6.418.898.236.423.535.824.894 1.187 2.104 2.1 5.508 2.1 7.608 0 2.1-2.103 2.1-5.508 0-7.608" transform="translate(-370 -328) translate(200 303) translate(170 25) translate(3.182 9.545)"/>
                        <path fill="#FF3F3E" d="M19.159 20.295l-3.818 3.818c-1.104 1.104-1.104 2.892 0 3.996l13.822 13.822c1.104 1.104 2.892 1.104 3.996 0l3.818-3.818L19.16 20.295z" transform="translate(-370 -328) translate(200 303) translate(170 25) translate(3.182 9.545)"/>
                        <path fill="#E70000" d="M27.828 40.598l1.333 1.333c1.108 1.107 2.896 1.107 3.997 0l3.821-3.818-3.334-3.332-5.817 5.817zM57.272 7.687V4.054c0-2.011-1.466-3.682-3.388-3.997.035.213.057.436.057.665v3.634c0 3.933-.951 7.77-2.72 11.206l3.334 3.332c1.77-3.437 2.717-7.27 2.717-11.207" transform="translate(-370 -328) translate(200 303) translate(170 25) translate(3.182 9.545)"/>
                    </g>
                </g>
            </g>
        </g>
    </g>
</svg>
