<?xml version="1.0" encoding="UTF-8"?>
<svg width="26px" height="26px" viewBox="0 0 26 26" version="1.1" xmlns="http://www.w3.org/2000/svg" xmlns:xlink="http://www.w3.org/1999/xlink">
    <title>31A4B414-C551-4CCE-A97B-49086A83B117</title>
    <g id="Extracción-sin-Tarjeta" stroke="none" stroke-width="1" fill="none" fill-rule="evenodd">
        <g id="M---Ext-sin-TD---Feedback" transform="translate(-15.000000, -612.000000)" fill="#EE2527" fill-rule="nonzero">
            <g id="Aclaraciones-Copy" transform="translate(15.000000, 612.000000)">
                <g id="Desktop/Lists/Simple/_Assets/Detail/Paragraph">
                    <g id="Group">
                        <g id="Desktop/icon/custom/small/Lamp">
                            <path d="M7.49934086,2.29345512 C7.74975278,2.14887973 8.06969881,2.23460901 8.21426156,2.48501754 L9.26097811,4.29798378 C9.40555349,4.5483957 9.31982421,4.86834174 9.06941568,5.01290448 C8.81900715,5.15746723 8.49905773,5.07175059 8.35449498,4.82134206 L7.30777844,3.00837582 C7.16320305,2.7579639 7.24893233,2.43801787 7.49934086,2.29345512 Z M15.4425371,1.24991583 C15.5589782,1.18268851 15.6996623,1.16323228 15.8389051,1.20054228 C16.1183665,1.27542374 16.2817337,1.55838773 16.2068529,1.83784662 L15.6649699,3.8601816 C15.5900884,4.13964302 15.3071244,4.30301022 15.0276655,4.22812943 C14.7482067,4.15324865 14.5848369,3.87028399 14.6597177,3.5908251 L15.2016007,1.56849011 C15.2347628,1.4447277 15.3073407,1.3423933 15.4048409,1.2739608 L15.4425371,1.24991583 Z M2.62272911,8.65143541 C2.73917025,8.58420809 2.87985429,8.56475186 3.01909711,8.60206186 L5.0414321,9.14394489 C5.32089351,9.21882635 5.48426071,9.50179034 5.40937992,9.78124923 C5.33449914,10.0607081 5.05153448,10.2240778 4.77207559,10.1491971 L2.7497406,9.60731403 C2.47027918,9.53243257 2.30691199,9.24946858 2.38179277,8.97000969 C2.41495481,8.84624729 2.48753268,8.74391288 2.58503298,8.67548038 L2.62272911,8.65143541 Z M9.59242899,5.92027056 C12.5911217,4.18897452 16.8308006,4.84881334 18.7363551,8.14917881 C19.9377788,10.2301058 19.8910092,12.0200936 19.7541574,13.5104507 L19.7322357,13.7429846 C19.5996535,15.121833 19.4630513,16.212751 20.1280275,17.3645235 L21.6981203,20.0840048 C22.1419598,20.8527574 21.8455984,21.8126792 21.1234262,22.2287922 L20.8968044,22.3596328 C21.3269122,23.1046021 21.0670792,24.0743117 20.3221103,24.5044202 C19.5771409,24.9345282 18.6074313,24.6746953 18.1773229,23.9297261 L17.9507006,24.0605664 C17.2282643,24.4776652 16.249778,24.2546317 15.8059133,23.4858723 L14.2358199,20.7663912 C13.5339006,19.5506313 12.4442002,19.1422234 11.0850299,18.5155738 L10.920938,18.4392182 C9.60057084,17.8186007 8.1042517,16.9511721 6.95093341,14.9534952 C5.06519477,11.6873 6.56333323,7.73132678 9.5030827,5.97278241 L9.59242899,5.92027056 Z M10.1157873,6.82675368 C7.58663493,8.28696046 6.25968706,11.6631917 7.85722669,14.4302892 C8.88225856,16.2056965 10.0940819,16.8998638 11.3512801,17.4883964 L11.7350322,17.6650594 C12.85377,18.1736411 14.0173965,18.6723112 14.8528733,19.8069029 L18.989598,17.4185638 C18.3883076,16.0445517 18.5970062,14.7087271 18.7160576,13.4111981 L18.7325082,13.2268445 C18.8514168,11.8438285 18.8561579,10.4472016 17.8311373,8.67184926 C16.2507596,5.9345548 12.7241625,5.37798279 10.198986,6.77965192 L10.1157873,6.82675368 Z M11.0272654,7.24455406 C13.3118647,6.25858919 16.0286027,7.12412102 17.3001191,9.32648905 C17.5545718,9.76721402 17.7288733,10.2266703 17.8364849,10.697898 C17.9278232,10.9732043 17.7409998,11.3030918 17.4586739,11.3692807 C17.176352,11.4354544 16.861033,11.221845 16.8204814,10.9347436 C16.7349931,10.5625663 16.5933183,10.198635 16.3923655,9.85057441 C15.398759,8.12959752 13.3160028,7.44447046 11.529322,8.16742355 L11.4457934,8.20234471 C11.1980454,8.32117374 10.8645221,8.20323023 10.7459547,7.95449564 C10.580657,7.65156721 10.755807,7.39125933 10.9944804,7.26146242 L11.0272654,7.24455406 Z M21.7983623,6.12587428 C22.0487742,5.98129889 22.3687203,6.06702817 22.513283,6.3174367 C22.6578458,6.56784523 22.5721291,6.88779465 22.3217206,7.0323574 L20.5087544,8.07907395 C20.2583424,8.22364933 19.9383964,8.13792005 19.7938337,7.88751152 C19.6492709,7.63710299 19.7349876,7.31715357 19.9853961,7.17259082 L21.7983623,6.12587428 Z M5.48031993,15.5471004 C5.73073185,15.4025251 6.05067788,15.4882543 6.19524063,15.7386629 C6.33980338,15.9890714 6.25408674,16.3090208 6.00367821,16.4535836 L4.19071196,17.5003001 C3.94030005,17.6448755 3.62035401,17.5591462 3.47579127,17.3087377 C3.33122852,17.0583292 3.41694516,16.7383797 3.66735369,16.593817 L5.48031993,15.5471004 Z M19.4830316,18.3412833 L15.4036813,20.6964973 L15.9270395,21.6029804 L20.0063899,19.2477664 L19.4830316,18.3412833 Z M20.5297481,20.1542495 L16.4503978,22.5094636 L16.7120862,22.9627211 C16.8696729,23.2356693 17.1928891,23.2894665 17.4270069,23.1542836 L20.5997139,21.3225203 C20.8338494,21.1873421 20.9491312,20.8795468 20.7912763,20.6075997 L20.5297481,20.1542495 Z M19.9901459,22.8829983 L19.0836628,23.4063566 C19.2332976,23.6655317 19.5394058,23.7475532 19.7985835,23.597919 C20.0577611,23.4482848 20.1397801,23.142176 19.9901459,22.8829983 Z" id="-↳Color"></path>
                        </g>
                    </g>
                </g>
            </g>
        </g>
    </g>
</svg>