<svg xmlns="http://www.w3.org/2000/svg" width="52" height="52" viewBox="0 0 52 52">
    <g fill="none" fill-rule="evenodd">
        <g>
            <g>
                <g>
                    <g>
                        <path fill="#58DAC5" d="M28.355 24.705c-.04.019-.08.035-.118.052-6.89 3.077-2.146 14.007 4.805 11.076l.12-.05c3.974-1.725 6.694-5.393 7.957-10.036-4.255-2.25-8.79-2.765-12.764-1.042" transform="translate(-45 -117) translate(45 45) translate(0 72) translate(4.727 4.727)"/>
                        <path fill="#00AD8E" d="M16.805 42.545c-.652 0-1.181-.529-1.181-1.181V27.548c0-.652.53-1.182 1.181-1.182.653 0 1.182.53 1.182 1.182v13.816c0 .652-.53 1.181-1.182 1.181" transform="translate(-45 -117) translate(45 45) translate(0 72) translate(4.727 4.727)"/>
                        <path fill="#FF3F3E" d="M21.488 31.108c-1.59 0-3.25-.532-4.683-1.82-2.65 2.378-6.06 2.172-8.402.82-2.345-1.352-4.229-4.202-3.494-7.686C1.525 21.316 0 18.262 0 15.553c0-2.706 1.527-5.763 4.91-6.864-.736-3.484 1.148-6.335 3.493-7.687 2.344-1.352 5.753-1.562 8.402.818 2.65-2.38 6.058-2.17 8.403-.818 2.343 1.355 4.229 4.203 3.491 7.687 3.385 1.104 4.91 4.158 4.91 6.864 0 2.709-1.527 5.765-4.91 6.869.738 3.484-1.146 6.332-3.49 7.686-1.076.62-2.376 1-3.721 1" transform="translate(-45 -117) translate(45 45) translate(0 72) translate(4.727 4.727)"/>
                        <path fill="#FFC976" d="M23.834 15.555c0 3.884-3.148 7.03-7.03 7.03-3.88 0-7.029-3.146-7.029-7.03 0-3.883 3.149-7.03 7.03-7.03 3.88 0 7.03 3.147 7.03 7.03" transform="translate(-45 -117) translate(45 45) translate(0 72) translate(4.727 4.727)"/>
                        <path fill="#00AD8E" d="M16.803 42.532h-.007c-.654-.005-1.18-.54-1.175-1.192.043-6.148 5.744-8.428 12.96-11.314 1.003-.402 2.047-.818 3.12-1.263.61-.253 1.296.036 1.546.639.248.605-.038 1.295-.638 1.545-1.087.447-2.14.87-3.15 1.274-7.52 3.007-11.443 4.777-11.474 9.138-.005.648-.534 1.173-1.182 1.173" transform="translate(-45 -117) translate(45 45) translate(0 72) translate(4.727 4.727)"/>
                        <path fill="#00AD8E" d="M41.129 25.737c-1.279 4.658-3.995 8.322-7.968 10.048-.047.023-.071.023-.118.047-3.002 1.253-5.578-.047-6.997-2.175 1.395.946 3.215 1.253 5.224.402.047-.024.095-.024.118-.047 3.758-1.631 6.384-4.943 7.708-9.218.685.283 1.37.59 2.033.943" transform="translate(-45 -117) translate(45 45) translate(0 72) translate(4.727 4.727)"/>
                        <path fill="#E70000" d="M28.694 22.429c.733 3.475-1.134 6.335-3.474 7.682-1.09.614-2.388.993-3.737.993-.568 0-1.159-.071-1.75-.237.688-.165 1.348-.425 1.939-.756 2.342-1.347 4.21-4.207 3.477-7.682 3.38-1.113 4.916-4.162 4.916-6.88 0-2.695-1.536-5.744-4.916-6.857.732-3.496-1.135-6.333-3.477-7.682-.591-.355-1.25-.612-1.938-.78 1.938-.518 3.926-.116 5.486.78 2.34 1.35 4.207 4.186 3.474 7.682 3.38 1.113 4.916 4.162 4.916 6.856 0 2.719-1.536 5.768-4.916 6.881" transform="translate(-45 -117) translate(45 45) translate(0 72) translate(4.727 4.727)"/>
                        <path fill="#FF9D00" d="M24.13 15.541c0 3.877-3.143 7.042-7.02 7.042-.614 0-1.205-.069-1.772-.234 3.002-.804 5.224-3.546 5.224-6.808 0-3.264-2.222-5.982-5.224-6.786.567-.163 1.158-.236 1.773-.236 3.876 0 7.02 3.144 7.02 7.022" transform="translate(-45 -117) translate(45 45) translate(0 72) translate(4.727 4.727)"/>
                    </g>
                </g>
            </g>
        </g>
    </g>
</svg>
