<svg xmlns="http://www.w3.org/2000/svg" xmlns:xlink="http://www.w3.org/1999/xlink" width="52" height="52" viewBox="0 0 52 52">
    <defs>
        <path id="2gn74typba" d="M14.685 13.428h-.806l-.106.01c-.437.059-.775.465-.775.96 0 .533.394.968.881.968h.858l.062.218c.57 1.874 2.274 3.054 4.075 2.791 1.872-.274 3.269-2.028 3.266-4.1l.007-.178c.08-1.116.922-1.997 1.96-2.019 1.092-.02 1.997.92 2.037 2.116-.021.111-.026.224-.01.333-.117 1.109-.973 1.945-1.99 1.948l-.158.014c-.411.083-.723.48-.723.953 0 .534.395.971.882.971 1.697-.005 3.186-1.25 3.632-3.047h.887l.109-.007c.434-.061.77-.468.77-.962 0-.534-.395-.969-.88-.969h-.829l-.05-.22c-.472-1.952-2.176-3.254-4.03-3.044-1.919.217-3.377 1.992-3.377 4.11l-.007.182c-.085 1.13-.946 2.019-1.997 2.019-1.107 0-2.002-.986-2.002-2.2 0-1.213.895-2.199 2.002-2.199l.11-.007c.436-.06.771-.466.771-.962 0-.534-.395-.967-.881-.967-1.783.005-3.324 1.374-3.688 3.288z"/>
    </defs>
    <g fill="none" fill-rule="evenodd">
        <g>
            <g>
                <g>
                    <g transform="translate(-45 -261) translate(45 45) translate(0 216) translate(4.727 9.455)">
                        <path fill="#AFAAA3" d="M40.179 11.818H2.363c-1.305 0-2.364-1.059-2.364-2.364V4.727C0 2.117 2.115 0 4.727 0h33.088c2.61 0 4.727 2.118 4.727 4.727v4.727c0 1.305-1.059 2.364-2.363 2.364"/>
                        <path fill="#3E3D40" d="M38.997 9.454H3.545c-.653 0-1.182-.53-1.182-1.182V4.727c0-1.305 1.059-2.364 2.364-2.364h33.088c1.305 0 2.364 1.06 2.364 2.364v3.545c0 .653-.53 1.182-1.182 1.182"/>
                        <path fill="#00DBB5" d="M31.907 33.088H10.634c-1.304 0-2.363-1.059-2.363-2.363V2.36h26v28.364c0 1.304-1.057 2.363-2.364 2.363"/>
                        <path fill="#00AD8E" d="M30.72 25.685v5.034c0 1.305-1.06 2.364-2.364 2.364H10.63c-1.305 0-2.364-1.059-2.364-2.364v-5.034H30.72z"/>
                        <path fill="#07826A" d="M34.265 25.685v5.034c0 1.305-1.059 2.364-2.363 2.364h-4.728 1.182c1.305 0 2.364-1.059 2.364-2.364v-5.034h3.545z"/>
                        <path fill="#00AD8E" d="M30.72 25.684L34.266 25.684 34.266 2.354 30.72 2.354z"/>
                        <path fill="#07826A" d="M18.373 10.14c.49 0 .881.435.881.969 0 .494-.335.9-.77.96l-.111.007c-1.106 0-2.005.985-2.005 2.2 0 1.215.899 2.198 2.005 2.198 1.052 0 1.914-.888 1.997-2.018l.007-.18c0-2.118 1.459-3.895 3.378-4.113 1.853-.21 3.557 1.095 4.03 3.045l.047.222h.83c.487 0 .881.432.881.967 0 .494-.335.9-.77.962l-.111.007h-.884c-.447 1.796-1.936 3.044-3.633 3.046-.487 0-.884-.434-.884-.969 0-.475.314-.872.725-.952l.159-.017c1.016-.002 1.872-.839 1.99-1.947-.017-.11-.012-.223.01-.331-.04-1.199-.946-2.14-2.038-2.118-1.038.021-1.88.905-1.96 2.018l-.007.18c.003 2.07-1.396 3.824-3.266 4.099-1.801.264-3.508-.917-4.075-2.792l-.061-.217h-.856c-.487 0-.884-.435-.884-.97 0-.493.338-.9.773-.959l.11-.007h.802c.369-1.915 1.908-3.288 3.69-3.29"/>
                        <path fill="#00AD8E" d="M8.27 4.127L34.266 4.127 34.266 2.354 8.27 2.354z"/>
                    </g>
                </g>
            </g>
        </g>
    </g>
</svg>
