<svg xmlns="http://www.w3.org/2000/svg" width="40" height="40" viewBox="0 0 40 40">
    <g fill="none" fill-rule="evenodd">
        <g>
            <g>
                <g>
                    <g>
                        <g>
                            <path fill="#E7E5E2" d="M29.091 16.036v13.055c0 1.004-.814 1.818-1.818 1.818H5.455c-1.004 0-1.818-.814-1.818-1.818V16.036c.109-.072.218-.163.327-.254l10.563-9.618c1.042-.948 2.633-.948 3.673 0l10.564 9.618c.109.09.218.182.327.254" transform="translate(-220 -399) translate(200 340) translate(0 39) translate(20 20) translate(3.636 3.636)"/>
                            <path fill="#D6D1CA" d="M29.091 16.036v13.055c0 1-.818 1.818-1.818 1.818h-2.727c1 0 1.818-.818 1.818-1.818V13.596l2.4 2.186c.109.09.218.182.327.254" transform="translate(-220 -399) translate(200 340) translate(0 39) translate(20 20) translate(3.636 3.636)"/>
                            <path fill="#FFC976" d="M19.089 18.187h-5.455c-1.505 0-2.727 1.22-2.727 2.727v9.998h10.909v-9.998c0-1.507-1.22-2.727-2.727-2.727" transform="translate(-220 -399) translate(200 340) translate(0 39) translate(20 20) translate(3.636 3.636)"/>
                            <path fill="#FFAB1C" d="M21.818 20.91v9.998h-2.727v-9.999c0-1.509-1.218-2.727-2.727-2.727h2.727c1.51 0 2.727 1.218 2.727 2.727" transform="translate(-220 -399) translate(200 340) translate(0 39) translate(20 20) translate(3.636 3.636)"/>
                            <path fill="#FF3F3E" d="M30.346 16.4c-.437 0-.873-.127-1.255-.363-.109-.073-.218-.164-.327-.255L18.2 6.164c-1.036-.945-2.636-.945-3.673 0L3.964 15.782c-.11.091-.218.182-.327.255-.382.236-.819.363-1.255.363C.946 16.4 0 15.22 0 14c0-.618.237-1.236.782-1.727l2.855-2.6 8.618-7.854.436-.4c2.091-1.891 5.255-1.891 7.346 0l.436.4 8.618 7.854 2.855 2.6c1.6 1.455.563 4.127-1.6 4.127" transform="translate(-220 -399) translate(200 340) translate(0 39) translate(20 20) translate(3.636 3.636)"/>
                            <path fill="#D6D1CA" d="M19.619 7.473c-1.037-.946-2.637-.946-3.673 0L5.382 17.09c-.109.09-.218.182-.327.254-.382.237-.818.364-1.255.364-.054 0-.109 0-.163-.018v-1.655c.109-.072.218-.163.327-.254l10.564-9.618c1.036-.946 2.636-.946 3.672 0l1.419 1.309z" transform="translate(-220 -399) translate(200 340) translate(0 39) translate(20 20) translate(3.636 3.636)"/>
                            <path fill="#E70000" d="M32.273 15.4c-.4.6-1.091 1-1.927 1-.437 0-.873-.127-1.255-.363-.109-.073-.218-.164-.327-.254L18.2 6.164c-1.036-.945-2.636-.945-3.673 0l.746-.69c1.036-.946 2.636-.946 3.673 0l10.563 9.618c.11.09.218.181.328.254.381.237.818.364 1.254.364.455 0 .855-.11 1.182-.31" transform="translate(-220 -399) translate(200 340) translate(0 39) translate(20 20) translate(3.636 3.636)"/>
                        </g>
                    </g>
                </g>
            </g>
        </g>
    </g>
</svg>
