<svg xmlns="http://www.w3.org/2000/svg" width="15" height="16" viewBox="0 0 15 16">
    <g fill="none" fill-rule="evenodd">
        <g fill="#939393">
            <g>
                <g>
                    <g>
                        <g>
                            <g>
                                <path d="M7.5 1.449l.178.002c3.26.095 5.873 2.767 5.873 6.049 0 3.342-2.71 6.052-6.051 6.052-3.342 0-6.051-2.71-6.051-6.052.003-3.34 2.71-6.048 6.051-6.051zm0 .676C4.533 2.128 2.128 4.533 2.125 7.5c0 2.969 2.406 5.375 5.375 5.375s5.375-2.406 5.375-5.375S10.47 2.125 7.5 2.125zm0 3.67c.167 0 .307.138.335.32l.006.07v4.675c0 .216-.153.39-.341.39-.167 0-.307-.138-.335-.32l-.006-.07V6.185c0-.215.153-.39.341-.39zm0-2.045c.167 0 .307.12.335.28l.006.06v.683c0 .188-.153.34-.341.34-.167 0-.307-.12-.335-.279l-.006-.061V4.09c0-.188.153-.341.341-.341z" transform="translate(-759 -660) translate(200 326) translate(0 157) translate(326) translate(21 92) translate(212 85.5)"/>
                            </g>
                        </g>
                    </g>
                </g>
            </g>
        </g>
    </g>
</svg>
