<svg xmlns="http://www.w3.org/2000/svg" xmlns:xlink="http://www.w3.org/1999/xlink" width="52" height="52" viewBox="0 0 52 52">
    <defs>
        <path id="vd86hm1msa" d="M1.794 0.148L6.658 0.148 6.658 9.869 1.794 9.869z"/>
    </defs>
    <g fill="none" fill-rule="evenodd">
        <g>
            <g>
                <g>
                    <g>
                        <path fill="#58DAC5" d="M18.66 42.544c-1.112 0-2.012-.903-2.012-2.011V38.12l-1.7 1.118c-.42.314-1.068.475-1.571.368-.454-.056-.93-.338-1.253-.775-.317-.423-.454-.953-.38-1.487.077-.532.356-1.004.789-1.328l4.082-3.063.033-8.086-7.01 3.91-.648 5.126c-.064.536-.334 1.019-.764 1.35-.397.31-1.019.472-1.527.404-.475-.052-.955-.322-1.29-.745-.336-.435-.482-.962-.419-1.494l.237-1.947-2.208 1.125c-.905.536-2.21.194-2.746-.733-.556-.962-.225-2.193.73-2.751l2.094-1.206-1.82-.914C.783 26.779.4 26.389.202 25.888 0 25.39.008 24.843.216 24.349c.42-.983 1.619-1.477 2.626-1.068l4.713 2.011 6.96-3.98-6.892-4.118L2.858 19.2c-.957.418-2.214-.062-2.642-1.06-.21-.498-.215-1.046-.014-1.545.2-.494.581-.886 1.075-1.1l1.81-.772-2.082-1.347c-.463-.265-.799-.702-.936-1.222-.14-.518-.068-1.06.199-1.525.543-.934 1.834-1.279 2.756-.735l2.087 1.203-.12-2.033c-.064-.53.082-1.059.415-1.482.331-.423.809-.692 1.345-.754 1.272-.085 2.118.745 2.239 1.757l.612 5.07 6.928 4.034.118-8.024-4.118-3.125c-.43-.324-.706-.794-.784-1.328-.078-.527.059-1.062.383-1.494.328-.433.8-.71 1.333-.783.487-.066 1.09.086 1.484.381l1.577 1.184.125-2.475c0-1.11.9-2.013 2.011-2.013 1.111 0 2.014.903 2.014 2.013v2.411l1.697-1.118c.83-.635 2.177-.458 2.82.402.324.428.46.962.383 1.492-.076.534-.355 1.004-.785 1.328l-4.084 3.063-.03 8.02 7.066-3.947.65-5.127c.13-1.075 1.203-1.896 2.288-1.751.591.073 1.137.437 1.456.985.218.374.308.811.253 1.253l-.234 1.95 2.206-1.13c.905-.536 2.21-.194 2.748.735.27.468.34 1.007.204 1.527-.137.518-.47.953-.936 1.225l-2.092 1.205 1.82.912c.492.213.874.605 1.075 1.104.201.494.197 1.043-.016 1.541-.423.995-1.65 1.494-2.65 1.057l-4.69-2.002-7.017 4.016 6.95 4.15 4.764-2.004c.967-.414 2.22.068 2.643 1.063.25.589.213 1.241-.109 1.797-.217.38-.548.671-.952.846l-1.811.773 2.082 1.345c.468.272.802.707.939 1.224.137.515.066 1.057-.199 1.52-.272.473-.707.806-1.229.945-.106.024-.409.067-.518.067-.352 0-.7-.093-1.004-.267l-2.092-1.208.118 2.03c.066.534-.08 1.064-.416 1.484-.333.424-.806.69-1.338.757-.68.012-1.141-.142-1.493-.419-.414-.321-.683-.798-.75-1.335l-.612-5.075-6.987-4.072-.118 8.095 4.115 3.123c.889.676 1.069 1.94.402 2.826-.636.854-1.955 1.048-2.822.398l-1.572-1.182-.123 2.477c0 1.108-.903 2.011-2.014 2.011z" transform="translate(-45 -405) translate(45 45) translate(0 360) translate(7.09 4.727)"/>
                        <path fill="#00AD8E" d="M29.808 17.165L28.799 16.735 21.053 21.172 28.749 25.76 29.759 25.329 22.793 21.172zM20.797 38.055l-.123 2.475c0 1.108-.908 2.014-2.016 2.014-.326 0-.605-.074-.882-.201.68-.327 1.135-1.033 1.135-1.813l.125-3.76 1.588 1.183c.026.026.15.102.173.102M20.675 2.016v2.418c-.024 0-1.764 1.111-1.764 1.111V2.016c0-.782-.453-1.486-1.134-1.815.276-.125.553-.203.882-.203 1.108 0 2.016.91 2.016 2.018M25.565 5.218c-.076.53-.353 1.01-.783 1.312L20.7 9.603l-.026 8.015-1.763.983.05-8.998 4.058-3.073c.454-.303.73-.783.806-1.312.076-.532-.076-1.059-.378-1.49-.201-.276-.452-.477-.73-.604.831-.402 1.914-.15 2.47.605.328.43.453.957.378 1.489M25.187 38.84c-.555.756-1.638 1.009-2.47.579.277-.15.53-.329.705-.58.683-.88.506-2.14-.378-2.821l-4.132-3.128.125-9.097 1.74 1.01-.102 8.087 4.108 3.128c.884.68 1.085 1.94.404 2.822M32.395 33.448c.05.553-.1 1.082-.428 1.486-.329.428-.806.707-1.335.754-.454.026-.806-.047-1.109-.175.277-.15.503-.328.704-.579.329-.404.48-.933.405-1.486l-.225-3.078 1.839 1.059.149 2.019zM37.108 31.883c-.276.48-.704.808-1.234.957-.101.026-.404.052-.505.052-.303 0-.606-.052-.856-.201.328-.177.629-.456.832-.808.276-.452.352-1.007.2-1.513-.124-.527-.453-.957-.933-1.234l-2.066-1.335 1.79-.783c.404-.175.756-.454.957-.83.328-.557.354-1.21.102-1.815-.178-.453-.554-.808-1.007-1.009l.125-.05c.983-.404 2.217.076 2.645 1.06.253.604.23 1.257-.1 1.815-.226.375-.555.654-.957.83l-1.815.782 2.092 1.335c.454.277.806.707.931 1.234.128.506.078 1.061-.2 1.513M32.395 9.047l-.253 1.94-1.865.96.355-2.9c.05-.451-.026-.881-.253-1.257-.201-.355-.504-.631-.856-.783.352-.174.754-.252 1.158-.2.582.073 1.135.425 1.463.983.201.376.3.806.25 1.257" transform="translate(-45 -405) translate(45 45) translate(0 360) translate(7.09 4.727)"/>
                        <g transform="translate(-45 -405) translate(45 45) translate(0 360) translate(7.09 4.727) translate(30.727 9.455)">
                            <mask id="sqj4p45tob" fill="#fff">
                                <use xlink:href="#vd86hm1msa"/>
                            </mask>
                            <path fill="#00AD8E" d="M6.457 7.106c.2.503.2 1.057-.026 1.536-.428 1.007-1.638 1.513-2.645 1.06l-.102-.053c.428-.175.806-.527.984-1.007.227-.48.227-1.033.023-1.536-.2-.506-.579-.884-1.082-1.11l-1.815-.909L3.885 3.88c.48-.253.806-.707.934-1.21.151-.532.076-1.06-.2-1.537C4.414.78 4.111.502 3.733.351c.908-.454 2.144-.128 2.647.782.277.478.353 1.005.201 1.536-.125.504-.477.958-.931 1.21L3.557 5.088l1.817.908c.504.227.882.605 1.083 1.111" mask="url(#sqj4p45tob)"/>
                        </g>
                    </g>
                </g>
            </g>
        </g>
    </g>
</svg>
