<svg xmlns="http://www.w3.org/2000/svg" width="40" height="40" viewBox="0 0 40 40">
    <defs>
        <linearGradient id="rfhexc406a" x1="12.477%" x2="59.992%" y1="39.813%" y2="53.74%">
            <stop offset="0%" stop-color="#FFB639"/>
            <stop offset="100%" stop-color="#FFA100"/>
        </linearGradient>
        <linearGradient id="ncbdabo82b" x1="0%" x2="100%" y1="50%" y2="50%">
            <stop offset="0%" stop-color="#FFC86B"/>
            <stop offset="100%" stop-color="#F9A81D"/>
        </linearGradient>
        <linearGradient id="uxk22d907c" x1="0%" x2="100%" y1="50%" y2="50%">
            <stop offset="0%" stop-color="#FFB639"/>
            <stop offset="100%" stop-color="#FFA100"/>
        </linearGradient>
    </defs>
    <g fill="none" fill-rule="evenodd">
        <g>
            <g>
                <g>
                    <g>
                        <g>
                            <g transform="translate(-660 -942) translate(200 559) translate(0 357) translate(434) translate(26 26) matrix(-1 0 0 1 38.182 18.182)">
                                <path fill="url(#rfhexc406a)" fill-rule="nonzero" d="M20.082 0H4.808C3.703 0 0 6.437 0 8.935v6.408c0 .789.64 1.428 1.429 1.428h33.158c.789 0 1.429-.64 1.429-1.428V12.1l-.006-.186c-.075-1.361-.976-2.548-2.283-2.98l-6.623-1.993L21.582.677c-.38-.43-.926-.677-1.5-.677z"/>
                                <path fill="#000" fill-rule="nonzero" d="M20.082 0c.574 0 1.12.247 1.5.677l5.522 6.264 6.623 1.994c1.307.431 2.208 1.618 2.283 2.979l.006.186v3.243c0 .789-.64 1.428-1.429 1.428h-1.818c.789 0 1.428-.64 1.428-1.428V12.1l-.005-.186c-.076-1.361-.977-2.548-2.283-2.98l-6.623-1.993L19.764.677c-.38-.43-.926-.677-1.5-.677zM26.776 12.9c2.08 0 3.767 1.687 3.767 3.767 0 .035 0 .07-.002.105h-7.529l-.002-.105c0-2.015 1.583-3.66 3.573-3.762zM4.872 12.9c2.08 0 3.766 1.687 3.766 3.767 0 .035 0 .07-.002.105H1.43c-.111 0-.22-.013-.323-.037v-.068c0-2.08 1.686-3.767 3.766-3.767z" opacity=".1"/>
                                <path fill="#B8E9FF" d="M1.898 10c.496.035.888.448.888.952 0 .495-.378.902-.86.948l-.028.002L0 11.905V10h1.898z"/>
                                <circle cx="6.69" cy="16.667" r="2.857" fill="#939393"/>
                                <path fill="#333" fill-rule="nonzero" d="M6.69 12.9c-2.08 0-3.766 1.687-3.766 3.767s1.686 3.766 3.766 3.766 3.766-1.686 3.766-3.766S8.77 12.9 6.69 12.9zm0 1.819c1.076 0 1.948.872 1.948 1.948s-.872 1.948-1.948 1.948-1.948-.872-1.948-1.948.872-1.948 1.948-1.948z"/>
                                <circle cx="28.595" cy="16.667" r="2.857" fill="#939393"/>
                                <path fill="#333" fill-rule="nonzero" d="M28.595 12.9c-2.08 0-3.767 1.687-3.767 3.767s1.687 3.766 3.767 3.766 3.766-1.686 3.766-3.766-1.686-3.767-3.766-3.767zm0 1.819c1.075 0 1.948.872 1.948 1.948s-.873 1.948-1.948 1.948c-1.076 0-1.949-.872-1.949-1.948s.873-1.948 1.949-1.948z"/>
                                <path fill="#B8E9FF" fill-rule="nonzero" d="M35.27 10c.434.534.7 1.2.74 1.914l.006.186v.757h-2.28c-.744-.053-1.332-.672-1.332-1.428 0-.743.567-1.353 1.291-1.422l.04-.003.001-.004z"/>
                                <path fill="#333" d="M12.407 2.031v5.637H4.433L6.02 2.03h6.387zm8.588 0l4.893 5.637H14.02V2.03h6.975z"/>
                                <path fill="#FFF" d="M12.407 2.031v5.637H4.433L6.02 2.03h6.387zm4.999 0c1.8 1.6 3.323 3.507 4.485 5.637h-7.87V2.03z" opacity=".1"/>
                                <rect width="3.636" height="1.818" x="14.545" y="9.091" fill="#FFF" opacity=".2" rx=".5"/>
                            </g>
                            <path fill="url(#ncbdabo82b)" fill-rule="nonzero" d="M29.948 1.922l-7.643 4.011c-.3.157-.487.468-.487.805v5.807c0 4.257 2.29 8.185 5.994 10.283l2.11 1.196c.275.155.61.157.886.006l2.223-1.222c3.78-2.076 6.127-6.046 6.127-10.358V6.738c0-.342-.192-.655-.496-.81l-7.88-4.01c-.262-.135-.573-.133-.834.004z" transform="translate(-660 -942) translate(200 559) translate(0 357) translate(434) translate(26 26)"/>
                            <path fill="#000" fill-rule="nonzero" d="M29.948 1.922c.26-.137.572-.139.835-.005l7.879 4.011c.304.155.496.468.496.81v5.712c0 4.312-2.348 8.282-6.127 10.358l-2.223 1.222c-.06.033-.124.059-.189.077l1.889-1.04c3.779-2.076 6.127-6.045 6.127-10.357V6.998c0-.342-.192-.655-.497-.81L30.26 2.177c-.218-.112-.47-.129-.7-.052z" opacity=".097" transform="translate(-660 -942) translate(200 559) translate(0 357) translate(434) translate(26 26)"/>
                            <path fill="url(#uxk22d907c)" fill-rule="nonzero" d="M30.376 3.75l6.964 3.545v5.155l-.01.437c-.15 3.478-2.105 6.64-5.174 8.328l-1.781.976-1.667-.945-.386-.23c-2.906-1.822-4.686-5.019-4.686-8.47v-5.26l6.74-3.537z" transform="translate(-660 -942) translate(200 559) translate(0 357) translate(434) translate(26 26)"/>
                            <path fill="url(#uxk22d907c)" fill-rule="nonzero" d="M30.376 3.75l6.964 3.545v5.155l-.01.437c-.15 3.478-2.105 6.64-5.174 8.328l-1.781.976-1.667-.945-.386-.23c-2.906-1.822-4.686-5.019-4.686-8.47v-5.26l6.74-3.537z" transform="translate(-660 -942) translate(200 559) translate(0 357) translate(434) translate(26 26)"/>
                            <path fill="#000" fill-rule="nonzero" d="M33.585 10.206c.389-.32.946-.264 1.246.15.278.384.247.911-.059 1.25l-.082.08-4.81 4.167-.027.019c-.018.01-.026.019-.035.028-.018 0-.027.01-.036.02-.008 0-.026.009-.035.018l-.106.057-.035.009-.023.013-.048.015-.053.01-.013.008-.076.01H29.2l-.036-.009c-.017 0-.035-.01-.053-.01l-.035-.009-.053-.019-.035-.018c-.018 0-.036-.01-.053-.02l-.018-.005-.062-.041c-.009-.01-.018-.02-.035-.029l-.026-.014-.054-.042-.035-.038c-.018-.01-.027-.028-.036-.038l-.013-.022-2.082-2.599c-.319-.396-.266-.99.106-1.329.345-.315.85-.289 1.175.034l.072.08 1.503 1.875 4.156-3.601z" opacity=".3" transform="translate(-660 -942) translate(200 559) translate(0 357) translate(434) translate(26 26)"/>
                            <path fill="#000" fill-rule="nonzero" d="M30.376 3.75l6.964 3.545v5.155l-.01.437c-.15 3.478-2.105 6.64-5.174 8.328l-1.781.976-.075-.043 1.047-.574c2.977-1.636 4.904-4.66 5.156-8.013l.02-.315.009-.436V7.654L29.63 4.14l.745-.39z" opacity=".097" transform="translate(-660 -942) translate(200 559) translate(0 357) translate(434) translate(26 26)"/>
                        </g>
                    </g>
                </g>
            </g>
        </g>
    </g>
</svg>
