<svg width="24" height="23" viewBox="0 0 24 23" fill="none" xmlns="http://www.w3.org/2000/svg">
<g id="Filled/System/System/Help">
<g id="Icon">
<g id="Group">
<path id="Fill 15" fill-rule="evenodd" clip-rule="evenodd" d="M20.9833 11.9883C20.9741 16.9547 16.9413 20.9726 11.9749 20.9633C7.00844 20.9541 2.99063 16.9213 2.99987 11.9549C3.00911 6.98844 7.04191 2.97063 12.0083 2.97987C16.9747 2.98911 20.9926 7.02191 20.9833 11.9883Z" fill="#FF3F3E"/>
<path id="Fill 18" fill-rule="evenodd" clip-rule="evenodd" d="M12.0085 2.97947C11.7029 2.9789 11.4024 2.99496 11.1044 3.02254C15.6467 3.48493 19.1854 7.32375 19.1767 11.9846C19.1681 16.6466 15.6151 20.4723 11.0711 20.9165C11.369 20.9477 11.6695 20.9623 11.9751 20.9629C16.9402 20.9721 20.9743 16.9543 20.9835 11.9879C20.9928 7.0215 16.9737 2.98871 12.0085 2.97947Z" fill="#E70000"/>
<g id="Group 4">
<path id="Fill 21" fill-rule="evenodd" clip-rule="evenodd" d="M18.6925 11.9919C18.6856 15.6876 15.6845 18.6786 11.9884 18.6717C8.29222 18.6648 5.30098 15.6627 5.30786 11.967C5.31474 8.27117 8.31712 5.28024 12.0133 5.28711C15.7094 5.29399 18.6993 8.29608 18.6925 11.9919Z" fill="#E70000"/>
<path id="Fill 23" fill-rule="evenodd" clip-rule="evenodd" d="M11.8362 5.28673C11.5043 5.28611 11.1778 5.30976 10.8583 5.35363C14.1892 5.82197 16.7455 8.61575 16.7392 11.9882C16.7329 15.3619 14.1663 18.1462 10.8336 18.6021C11.153 18.6458 11.4794 18.6707 11.8113 18.6713C15.6051 18.6784 18.6852 15.6876 18.6921 11.9918C18.699 8.29602 15.63 5.29379 11.8362 5.28673Z" fill="#CA0000"/>
</g>
</g>
<g id="Group 3">
<path id="Combined Shape Copy" fill-rule="evenodd" clip-rule="evenodd" d="M11.1315 14.4244C11.131 14.7179 11.3684 14.9567 11.6625 14.9573L12.1944 14.9583C12.4879 14.9588 12.7268 14.7208 12.7273 14.4273L12.7282 13.9823C12.7282 13.9524 12.7308 13.9364 12.7317 13.9307C12.732 13.929 12.7321 13.9283 12.732 13.9283C12.7269 13.8692 12.8929 13.759 13.06 13.6482C13.1133 13.6128 13.1668 13.5773 13.2148 13.5434C13.3565 13.4436 13.5146 13.3316 13.6881 13.2005C14.5263 12.5657 14.9523 11.7358 14.9541 10.7334C14.9564 9.49574 13.9014 8.17879 11.9411 8.17514C10.3442 8.17217 9.34497 9.04291 9.02789 10.0341C8.91917 10.3746 9.18184 10.7226 9.53946 10.7233L10.1127 10.7244C10.3156 10.7247 10.5029 10.6122 10.589 10.428C10.7284 10.1284 11.1451 9.72548 11.9382 9.71795C12.9989 9.70773 13.3522 10.341 13.3578 10.7304C13.3667 11.3371 13.1676 11.5926 12.724 11.9277C12.5665 12.0471 12.4227 12.1491 12.2938 12.24L12.2932 12.2404C11.7231 12.6434 11.1341 13.0599 11.1324 13.9793L11.1315 14.4244ZM11.1274 16.6484C11.1269 16.9424 11.3643 17.1808 11.6584 17.1813L12.1903 17.1823C12.4838 17.1829 12.7227 16.9454 12.7232 16.6514L12.7242 16.1194C12.7247 15.8254 12.4868 15.5871 12.1932 15.5865L11.6613 15.5855C11.3673 15.585 11.1289 15.8224 11.1284 16.1165L11.1274 16.6484Z" fill="#CA0000"/>
<path id="Combined Shape" fill-rule="evenodd" clip-rule="evenodd" d="M11.1335 13.3824C11.133 13.6759 11.3704 13.9147 11.6644 13.9153L12.1964 13.9163C12.4899 13.9168 12.7287 13.6788 12.7293 13.3853L12.7301 12.9403C12.7302 12.9104 12.7327 12.8944 12.7337 12.8887C12.7339 12.8871 12.734 12.8863 12.7339 12.8863C12.7288 12.8272 12.8949 12.7171 13.062 12.6062C13.1153 12.5708 13.1688 12.5353 13.2168 12.5015C13.3584 12.4016 13.5165 12.2896 13.69 12.1585C14.5283 11.5237 14.9542 10.6938 14.9561 9.69139C14.9584 8.45375 13.9033 7.13679 11.943 7.13315C10.3462 7.13017 9.34692 8.00092 9.02984 8.99213C8.92113 9.3326 9.18379 9.68065 9.54142 9.68131L10.1147 9.68238C10.3176 9.68276 10.5048 9.57026 10.591 9.38604C10.7304 9.08643 11.147 8.68348 11.9402 8.67595C13.0009 8.66574 13.3541 9.299 13.3598 9.68842C13.3687 10.2951 13.1695 10.5506 12.726 10.8857C12.5684 11.0051 12.4247 11.1071 12.2957 11.198L12.2952 11.1984C11.7251 11.6014 11.136 12.0179 11.1343 12.9373L11.1335 13.3824ZM11.1294 15.6064C11.1288 15.9004 11.3663 16.1388 11.6603 16.1393L12.1922 16.1403C12.4857 16.1409 12.7246 15.9034 12.7252 15.6094L12.7261 15.0774C12.7267 14.7834 12.4887 14.5451 12.1952 14.5445L11.6633 14.5435C11.3692 14.543 11.1309 14.7804 11.1304 15.0745L11.1294 15.6064Z" fill="white"/>
</g>
</g>
</g>
</svg>
