<svg xmlns="http://www.w3.org/2000/svg" xmlns:xlink="http://www.w3.org/1999/xlink" width="40" height="40" viewBox="0 0 40 40">
    <defs>
        <path id="ywjjrbc4ya" d="M11.296 10.33h-.62l-.081.007c-.337.045-.597.358-.597.738 0 .41.304.745.678.745h.66l.048.167c.438 1.442 1.749 2.35 3.134 2.148 1.44-.211 2.515-1.56 2.513-3.155l.005-.136c.062-.858.71-1.537 1.508-1.553.84-.016 1.536.707 1.567 1.627-.016.086-.02.173-.007.257-.091.852-.75 1.496-1.531 1.498l-.122.01c-.316.064-.556.37-.556.734 0 .41.303.747.678.747 1.305-.004 2.45-.962 2.794-2.344h.682l.084-.005c.334-.048.592-.36.592-.74 0-.411-.303-.746-.676-.746h-.638l-.038-.169c-.364-1.502-1.675-2.503-3.1-2.342-1.477.168-2.598 1.533-2.598 3.162l-.006.14c-.065.87-.727 1.553-1.536 1.553-.851 0-1.54-.758-1.54-1.693 0-.933.689-1.69 1.54-1.69l.085-.006c.335-.046.593-.358.593-.74 0-.411-.304-.744-.678-.744-1.371.004-2.557 1.057-2.837 2.53z"/>
    </defs>
    <g fill="none" fill-rule="evenodd">
        <g>
            <g>
                <g>
                    <g>
                        <g>
                            <g transform="translate(-1094 -942) translate(200 559) translate(0 357) translate(868) translate(26 26) translate(3.636 7.273)">
                                <path fill="#AFAAA3" d="M30.907 9.09H1.817C.815 9.09 0 8.277 0 7.274V3.636C0 1.63 1.627 0 3.636 0h25.453c2.007 0 3.636 1.629 3.636 3.636v3.637c0 1.003-.815 1.818-1.818 1.818"/>
                                <path fill="#3E3D40" d="M29.998 7.273H2.727c-.502 0-.91-.408-.91-.91V3.636c0-1.003.815-1.818 1.819-1.818h25.453c1.003 0 1.818.815 1.818 1.818v2.727c0 .502-.408.91-.91.91"/>
                                <path fill="#00DBB5" d="M24.544 25.453H8.18c-1.003 0-1.818-.815-1.818-1.819V1.816h20v21.818c0 1.004-.813 1.819-1.818 1.819"/>
                                <path fill="#00AD8E" d="M23.63 19.757v3.873c0 1.004-.814 1.818-1.818 1.818H8.176c-1.004 0-1.818-.814-1.818-1.818v-3.873H23.63z"/>
                                <path fill="#07826A" d="M26.358 19.757v3.873c0 1.004-.815 1.818-1.818 1.818h-3.637.91c1.003 0 1.818-.814 1.818-1.818v-3.873h2.727z"/>
                                <path fill="#00AD8E" d="M23.631 19.757L26.358 19.757 26.358 1.811 23.631 1.811z"/>
                                <path fill="#07826A" d="M14.133 7.8c.376 0 .678.334.678.745 0 .38-.258.693-.593.738l-.085.006c-.851 0-1.542.758-1.542 1.693 0 .934.691 1.69 1.542 1.69.809 0 1.473-.683 1.536-1.552l.006-.138c0-1.63 1.122-2.997 2.598-3.164 1.425-.162 2.736.842 3.1 2.342l.036.17h.638c.375 0 .679.333.679.744 0 .38-.259.693-.593.74l-.086.006h-.68c-.343 1.382-1.489 2.342-2.794 2.343-.375 0-.68-.334-.68-.745 0-.365.242-.67.558-.733l.122-.012c.782-.002 1.44-.646 1.53-1.499-.012-.083-.008-.17.008-.254-.03-.922-.727-1.646-1.567-1.63-.798.017-1.446.697-1.507 1.553l-.006.139c.002 1.592-1.074 2.941-2.513 3.152-1.385.204-2.698-.705-3.134-2.147l-.047-.167h-.659c-.374 0-.68-.335-.68-.746 0-.38.26-.692.595-.738l.085-.005h.617c.283-1.473 1.467-2.53 2.838-2.531"/>
                                <path fill="#00AD8E" d="M6.362 3.175L26.358 3.175 26.358 1.811 6.362 1.811z"/>
                            </g>
                        </g>
                    </g>
                </g>
            </g>
        </g>
    </g>
</svg>
