<svg xmlns="http://www.w3.org/2000/svg" xmlns:xlink="http://www.w3.org/1999/xlink" width="171" height="130" viewBox="0 0 171 130">
    <defs>
        <filter id="gz8ncm2cka" width="102.9%" height="107.6%" x="-.7%" y="-1.9%" filterUnits="objectBoundingBox">
            <feOffset dx="2" dy="2" in="SourceAlpha" result="shadowOffsetOuter1"/>
            <feColorMatrix in="shadowOffsetOuter1" values="0 0 0 0 1 0 0 0 0 0.960784314 0 0 0 0 0.898039216 0 0 0 1 0"/>
        </filter>
        <filter id="4dly7d0suc" width="104.8%" height="104.8%" x="-1.2%" y="-1.2%" filterUnits="objectBoundingBox">
            <feOffset dx="2" dy="2" in="SourceAlpha" result="shadowOffsetOuter1"/>
            <feColorMatrix in="shadowOffsetOuter1" values="0 0 0 0 1 0 0 0 0 0.960784314 0 0 0 0 0.898039216 0 0 0 1 0"/>
        </filter>
        <circle id="jonq1xupld" cx="41.364" cy="41.364" r="41.364"/>
        <path id="hdtuks507b" d="M125.747 44.25c1.302-2.33 4.246-3.165 6.576-1.863 1.749 1.06 2.957 2.82 3.32 4.833 2.719-2.394 4.533-5.649 5.14-9.22.12-.634.718-1.06 1.356-.969.661.094 1.12.706 1.026 1.367-.804 4.781-3.478 9.038-7.418 11.838l-.427.294-.747.498c-2.313 3.778-7.135 5.108-11.04 3.102l-.328-.177c-.574-.34-.763-1.081-.423-1.655.315-.53.97-.732 1.52-.492l.136.07c1.969 1.123 4.407 1.02 6.275-.266-1.08-.018-2.142-.287-3.102-.784-2.33-1.301-3.165-4.245-1.864-6.576zm2.198 1.016l-.103.17c-.645 1.168-.22 2.638.948 3.283 1.308.73 3.775.675 4.344-.344.098-.186.146-.394.14-.604-.167-1.266-.86-2.398-1.9-3.123l-.239-.155c-1.057-.583-2.349-.302-3.069.606l-.121.167zm.99-24.25c-.451-.468-.451-1.21 0-1.679.431-.446 1.122-.489 1.602-.121l.107.092.855.854c.452.468.452 1.21 0 1.679-.431.445-1.121.489-1.602.121l-.107-.092-.854-.854zm1.062-4.271c0-.616.46-1.124 1.056-1.199l.152-.01h1.208c.667 0 1.209.542 1.209 1.209 0 .616-.461 1.124-1.057 1.199l-.152.01h-1.208c-.667 0-1.208-.542-1.208-1.21zm-4.833 4.833c0-.667.54-1.208 1.208-1.208.616 0 1.124.46 1.199 1.056l.01.152v1.208c0 .667-.542 1.208-1.21 1.208-.615 0-1.123-.46-1.198-1.056l-.01-.152v-1.208zm3.772-7.396c-.438-.438-.47-1.129-.094-1.603l.094-.105.854-.855c.468-.452 1.21-.452 1.679 0 .446.43.489 1.121.122 1.602l-.092.107-.855.854c-.188.189-.433.309-.695.344l-.159.01-.159-.01c-.261-.035-.506-.155-.695-.344zm-4.01.626c1.12-.727 2.616-.41 3.343.71.727 1.12.409 2.616-.71 3.343-1.12.727-2.616.409-3.343-.71-.727-1.12-.409-2.617.71-3.343zm.238-4.105c0-.667.54-1.208 1.208-1.208.616 0 1.124.461 1.199 1.057l.01.151v1.209c0 .667-.542 1.208-1.21 1.208-.615 0-1.123-.46-1.198-1.057l-.01-.151v-1.209zM100.013 34.98l2.574-3.768c4.225-6.197 10.27-10.929 17.302-13.541.62-.245 1.322.06 1.567.681.226.573-.017 1.215-.543 1.503l-.18.08c-6.563 2.438-12.207 6.855-16.152 12.64l-2.578 3.77c-.377.547-1.125.687-1.675.313-.132-.09-.244-.204-.33-.338-.266-.41-.26-.938.015-1.34zm21.232-21.651c-.452-.469-.452-1.21 0-1.679.43-.446 1.121-.489 1.602-.122l.107.092.854.855c.452.468.452 1.21 0 1.678-.43.446-1.12.49-1.602.122l-.107-.092-.854-.854zm31.386 14.236h1.208c.667 0 1.208.541 1.208 1.209 0 .667-.54 1.208-1.208 1.208h-1.208c-.667 0-1.208-.541-1.208-1.208 0-.668.54-1.209 1.208-1.209zm-2.417 2.417c.668 0 1.209.541 1.209 1.208v1.209c0 .667-.541 1.208-1.209 1.208-.667 0-1.208-.541-1.208-1.208v-1.209c0-.667.541-1.208 1.208-1.208zm0-6.041c.668 0 1.209.54 1.209 1.208v1.208c0 .667-.541 1.208-1.209 1.208-.667 0-1.208-.54-1.208-1.208v-1.208c0-.667.541-1.208 1.208-1.208zm-3.624 3.624h1.208c.667 0 1.208.541 1.208 1.209 0 .667-.54 1.208-1.208 1.208h-1.208c-.668 0-1.209-.541-1.209-1.208 0-.668.541-1.209 1.209-1.209zm-97.143-9.213c.245-.62.947-.926 1.567-.681 6.804 2.528 12.686 7.04 16.888 12.946l.414.595 2.574 3.768c.275.402.281.93.016 1.34-.087.134-.2.249-.33.338-.508.345-1.185.252-1.582-.195l-.094-.119-2.578-3.77c-3.814-5.591-9.215-9.905-15.5-12.389l-.694-.266c-.62-.245-.926-.946-.68-1.567zm-24.28 18.68c.637-.09 1.235.335 1.356.968.607 3.572 2.421 6.827 5.14 9.22.362-2.012 1.571-3.772 3.32-4.832 2.33-1.302 5.274-.467 6.575 1.863 1.302 2.33.467 5.275-1.863 6.576-.96.497-2.021.766-3.102.784 1.867 1.286 4.306 1.389 6.275.265.573-.34 1.315-.151 1.655.423.34.574.151 1.315-.423 1.655l-.056.032c-3.951 2.212-8.945.909-11.311-2.952l-.747-.503c-4.174-2.791-7.012-7.18-7.845-12.132-.095-.66.365-1.273 1.025-1.367zm8.864 10.74c-.005.21.043.418.14.604.57 1.02 3.037 1.074 4.344.344 1.169-.645 1.593-2.115.948-3.283-.61-1.107-1.962-1.546-3.096-1.041l-.207.104c-1.167.713-1.95 1.915-2.129 3.272zM21.897 28.773c0-.616.46-1.125 1.057-1.2l.151-.009h1.208c.668 0 1.209.541 1.209 1.209 0 .616-.461 1.124-1.057 1.199l-.152.009h-1.208c-.667 0-1.208-.541-1.208-1.208zm-2.417 2.416c0-.667.541-1.208 1.209-1.208.616 0 1.124.461 1.198 1.057l.01.151v1.209c0 .667-.541 1.208-1.208 1.208-.616 0-1.125-.461-1.2-1.057l-.009-.151v-1.209zm0-6.041c0-.667.541-1.208 1.209-1.208.616 0 1.124.46 1.198 1.056l.01.152v1.208c0 .667-.541 1.208-1.208 1.208-.616 0-1.125-.46-1.2-1.056l-.009-.152v-1.208zm-3.624 3.625c0-.616.46-1.125 1.056-1.2l.152-.009h1.208c.667 0 1.208.541 1.208 1.209 0 .616-.46 1.124-1.056 1.199l-.152.009h-1.208c-.667 0-1.208-.541-1.208-1.208zM44.53 20.37c.667 0 1.208.54 1.208 1.208v1.208c0 .667-.54 1.208-1.208 1.208-.667 0-1.208-.54-1.208-1.208v-1.208c0-.667.54-1.208 1.208-1.208zm-1.897-4.852c.727-1.12 2.223-1.437 3.343-.71 1.119.726 1.437 2.223.71 3.342-.727 1.12-2.223 1.438-3.343.711-1.119-.727-1.437-2.224-.71-3.343zm4.461-3.044l.854-.855c.48-.463 1.245-.45 1.709.03.452.468.452 1.21 0 1.679l-.854.854c-.48.464-1.245.45-1.709-.03-.452-.468-.452-1.21 0-1.678zm-7.69 7.688l.854-.854c.48-.464 1.245-.45 1.708.03.452.467.452 1.21 0 1.678l-.854.854c-.48.464-1.245.45-1.709-.03-.452-.468-.452-1.21 0-1.678zM44.53 9.495c.667 0 1.208.541 1.208 1.208v1.209c0 .667-.54 1.208-1.208 1.208-.667 0-1.208-.541-1.208-1.208v-1.209c0-.667.54-1.208 1.208-1.208zm-6.041 6.042h1.208c.667 0 1.208.54 1.208 1.208 0 .667-.54 1.208-1.208 1.208H38.49c-.667 0-1.208-.54-1.208-1.208 0-.667.54-1.208 1.208-1.208zm47.188 1.408c.611-.012 1.126.432 1.217 1.02l.014.164-.003 16.255c0 .667-.541 1.208-1.208 1.208-.612 0-1.117-.454-1.197-1.044l-.011-.164.003-16.255c.013-.649.536-1.172 1.185-1.184zm-44.565-5.326l.854.855c.472.472.472 1.237 0 1.708-.189.19-.434.309-.695.344l-.159.01c-.32 0-.628-.127-.854-.354l-.855-.854c-.463-.48-.45-1.245.03-1.709.468-.452 1.21-.452 1.679 0zm45.235-8.733l.105.094 4.29 4.29c.438.438.47 1.13.094 1.603l-.094.106-4.29 4.29c-.438.438-1.129.469-1.603.093l-.105-.093-4.29-4.29c-.438-.438-.47-1.13-.094-1.604l.094-.105 4.29-4.29c.438-.438 1.129-.47 1.603-.094zM85.6 5.543l-2.581 2.581 2.581 2.581 2.581-2.58-2.58-2.582z"/>
    </defs>
    <g fill="none" fill-rule="evenodd">
        <g>
            <g>
                <g transform="translate(-755 -107) translate(755 107)">
                    <use fill="#000" filter="url(#gz8ncm2cka)" xlink:href="#hdtuks507b"/>
                    <path fill="#FFA100" d="M125.747 44.25c1.302-2.33 4.246-3.165 6.576-1.863 1.749 1.06 2.957 2.82 3.32 4.833 2.719-2.394 4.533-5.649 5.14-9.22.12-.634.718-1.06 1.356-.969.661.094 1.12.706 1.026 1.367-.804 4.781-3.478 9.038-7.418 11.838l-.427.294-.747.498c-2.313 3.778-7.135 5.108-11.04 3.102l-.328-.177c-.574-.34-.763-1.081-.423-1.655.315-.53.97-.732 1.52-.492l.136.07c1.969 1.123 4.407 1.02 6.275-.266-1.08-.018-2.142-.287-3.102-.784-2.33-1.301-3.165-4.245-1.864-6.576zm2.198 1.016l-.103.17c-.645 1.168-.22 2.638.948 3.283 1.308.73 3.775.675 4.344-.344.098-.186.146-.394.14-.604-.167-1.266-.86-2.398-1.9-3.123l-.239-.155c-1.057-.583-2.349-.302-3.069.606l-.121.167zm.99-24.25c-.451-.468-.451-1.21 0-1.679.431-.446 1.122-.489 1.602-.121l.107.092.855.854c.452.468.452 1.21 0 1.679-.431.445-1.121.489-1.602.121l-.107-.092-.854-.854zm1.062-4.271c0-.616.46-1.124 1.056-1.199l.152-.01h1.208c.667 0 1.209.542 1.209 1.209 0 .616-.461 1.124-1.057 1.199l-.152.01h-1.208c-.667 0-1.208-.542-1.208-1.21zm-4.833 4.833c0-.667.54-1.208 1.208-1.208.616 0 1.124.46 1.199 1.056l.01.152v1.208c0 .667-.542 1.208-1.21 1.208-.615 0-1.123-.46-1.198-1.056l-.01-.152v-1.208zm3.772-7.396c-.438-.438-.47-1.129-.094-1.603l.094-.105.854-.855c.468-.452 1.21-.452 1.679 0 .446.43.489 1.121.122 1.602l-.092.107-.855.854c-.188.189-.433.309-.695.344l-.159.01-.159-.01c-.261-.035-.506-.155-.695-.344zm-4.01.626c1.12-.727 2.616-.41 3.343.71.727 1.12.409 2.616-.71 3.343-1.12.727-2.616.409-3.343-.71-.727-1.12-.409-2.617.71-3.343zm.238-4.105c0-.667.54-1.208 1.208-1.208.616 0 1.124.461 1.199 1.057l.01.151v1.209c0 .667-.542 1.208-1.21 1.208-.615 0-1.123-.46-1.198-1.057l-.01-.151v-1.209zM100.013 34.98l2.574-3.768c4.225-6.197 10.27-10.929 17.302-13.541.62-.245 1.322.06 1.567.681.226.573-.017 1.215-.543 1.503l-.18.08c-6.563 2.438-12.207 6.855-16.152 12.64l-2.578 3.77c-.377.547-1.125.687-1.675.313-.132-.09-.244-.204-.33-.338-.266-.41-.26-.938.015-1.34zm21.232-21.651c-.452-.469-.452-1.21 0-1.679.43-.446 1.121-.489 1.602-.122l.107.092.854.855c.452.468.452 1.21 0 1.678-.43.446-1.12.49-1.602.122l-.107-.092-.854-.854zm31.386 14.236h1.208c.667 0 1.208.541 1.208 1.209 0 .667-.54 1.208-1.208 1.208h-1.208c-.667 0-1.208-.541-1.208-1.208 0-.668.54-1.209 1.208-1.209zm-2.417 2.417c.668 0 1.209.541 1.209 1.208v1.209c0 .667-.541 1.208-1.209 1.208-.667 0-1.208-.541-1.208-1.208v-1.209c0-.667.541-1.208 1.208-1.208zm0-6.041c.668 0 1.209.54 1.209 1.208v1.208c0 .667-.541 1.208-1.209 1.208-.667 0-1.208-.54-1.208-1.208v-1.208c0-.667.541-1.208 1.208-1.208zm-3.624 3.624h1.208c.667 0 1.208.541 1.208 1.209 0 .667-.54 1.208-1.208 1.208h-1.208c-.668 0-1.209-.541-1.209-1.208 0-.668.541-1.209 1.209-1.209zm-97.143-9.213c.245-.62.947-.926 1.567-.681 6.804 2.528 12.686 7.04 16.888 12.946l.414.595 2.574 3.768c.275.402.281.93.016 1.34-.087.134-.2.249-.33.338-.508.345-1.185.252-1.582-.195l-.094-.119-2.578-3.77c-3.814-5.591-9.215-9.905-15.5-12.389l-.694-.266c-.62-.245-.926-.946-.68-1.567zm-24.28 18.68c.637-.09 1.235.335 1.356.968.607 3.572 2.421 6.827 5.14 9.22.362-2.012 1.571-3.772 3.32-4.832 2.33-1.302 5.274-.467 6.575 1.863 1.302 2.33.467 5.275-1.863 6.576-.96.497-2.021.766-3.102.784 1.867 1.286 4.306 1.389 6.275.265.573-.34 1.315-.151 1.655.423.34.574.151 1.315-.423 1.655l-.056.032c-3.951 2.212-8.945.909-11.311-2.952l-.747-.503c-4.174-2.791-7.012-7.18-7.845-12.132-.095-.66.365-1.273 1.025-1.367zm8.864 10.74c-.005.21.043.418.14.604.57 1.02 3.037 1.074 4.344.344 1.169-.645 1.593-2.115.948-3.283-.61-1.107-1.962-1.546-3.096-1.041l-.207.104c-1.167.713-1.95 1.915-2.129 3.272zM21.897 28.773c0-.616.46-1.125 1.057-1.2l.151-.009h1.208c.668 0 1.209.541 1.209 1.209 0 .616-.461 1.124-1.057 1.199l-.152.009h-1.208c-.667 0-1.208-.541-1.208-1.208zm-2.417 2.416c0-.667.541-1.208 1.209-1.208.616 0 1.124.461 1.198 1.057l.01.151v1.209c0 .667-.541 1.208-1.208 1.208-.616 0-1.125-.461-1.2-1.057l-.009-.151v-1.209zm0-6.041c0-.667.541-1.208 1.209-1.208.616 0 1.124.46 1.198 1.056l.01.152v1.208c0 .667-.541 1.208-1.208 1.208-.616 0-1.125-.46-1.2-1.056l-.009-.152v-1.208zm-3.624 3.625c0-.616.46-1.125 1.056-1.2l.152-.009h1.208c.667 0 1.208.541 1.208 1.209 0 .616-.46 1.124-1.056 1.199l-.152.009h-1.208c-.667 0-1.208-.541-1.208-1.208zM44.53 20.37c.667 0 1.208.54 1.208 1.208v1.208c0 .667-.54 1.208-1.208 1.208-.667 0-1.208-.54-1.208-1.208v-1.208c0-.667.54-1.208 1.208-1.208zm-1.897-4.852c.727-1.12 2.223-1.437 3.343-.71 1.119.726 1.437 2.223.71 3.342-.727 1.12-2.223 1.438-3.343.711-1.119-.727-1.437-2.224-.71-3.343zm4.461-3.044l.854-.855c.48-.463 1.245-.45 1.709.03.452.468.452 1.21 0 1.679l-.854.854c-.48.464-1.245.45-1.709-.03-.452-.468-.452-1.21 0-1.678zm-7.69 7.688l.854-.854c.48-.464 1.245-.45 1.708.03.452.467.452 1.21 0 1.678l-.854.854c-.48.464-1.245.45-1.709-.03-.452-.468-.452-1.21 0-1.678zM44.53 9.495c.667 0 1.208.541 1.208 1.208v1.209c0 .667-.54 1.208-1.208 1.208-.667 0-1.208-.541-1.208-1.208v-1.209c0-.667.54-1.208 1.208-1.208zm-6.041 6.042h1.208c.667 0 1.208.54 1.208 1.208 0 .667-.54 1.208-1.208 1.208H38.49c-.667 0-1.208-.54-1.208-1.208 0-.667.54-1.208 1.208-1.208zm47.188 1.408c.611-.012 1.126.432 1.217 1.02l.014.164-.003 16.255c0 .667-.541 1.208-1.208 1.208-.612 0-1.117-.454-1.197-1.044l-.011-.164.003-16.255c.013-.649.536-1.172 1.185-1.184zm-44.565-5.326l.854.855c.472.472.472 1.237 0 1.708-.189.19-.434.309-.695.344l-.159.01c-.32 0-.628-.127-.854-.354l-.855-.854c-.463-.48-.45-1.245.03-1.709.468-.452 1.21-.452 1.679 0zm45.235-8.733l.105.094 4.29 4.29c.438.438.47 1.13.094 1.603l-.094.106-4.29 4.29c-.438.438-1.129.469-1.603.093l-.105-.093-4.29-4.29c-.438-.438-.47-1.13-.094-1.604l.094-.105 4.29-4.29c.438-.438 1.129-.47 1.603-.094zM85.6 5.543l-2.581 2.581 2.581 2.581 2.581-2.58-2.58-2.582z"/>
                </g>
                <g transform="translate(-755 -107) translate(755 107) translate(43.333 42.02)">
                    <use fill="#000" filter="url(#4dly7d0suc)" xlink:href="#jonq1xupld"/>
                    <circle cx="41.364" cy="41.364" r="41.364" fill="#FFA100"/>
                    <circle cx="40.051" cy="38.737" r="37.424" fill="#FFF"/>
                </g>
                <g fill="#FFA100">
                    <path d="M47.273 39.394c.725 0 1.313.588 1.313 1.313 0 5.077-4.116 9.192-9.192 9.192-5.077 0-9.192-4.115-9.192-9.192 0-.673.507-1.228 1.16-1.304l.153-.01h15.758zm-22.12-11.818c3.153 0 5.922 2.068 7.018 5.106.261.726-.112 1.524-.838 1.786-.677.244-1.418-.065-1.726-.697l-.06-.14-.076-.201c-.752-1.851-2.443-3.064-4.318-3.064-1.151 0-2.243.454-3.098 1.266-.558.534-1.44.51-1.974-.049-.53-.558-.51-1.44.049-1.97 1.367-1.301 3.143-2.037 5.023-2.037zm27.334 0c1.88 0 3.655.736 5.023 2.037.558.53.579 1.412.048 1.97-.533.558-1.416.583-1.974.05-.854-.813-1.946-1.267-3.097-1.267-1.876 0-3.567 1.213-4.318 3.064l-.077.201c-.262.725-1.06 1.099-1.786.837-.725-.262-1.099-1.06-.837-1.786 1.095-3.038 3.865-5.106 7.018-5.106z" transform="translate(-755 -107) translate(755 107) translate(44.646 43.333) rotate(15 38.82 38.737)"/>
                </g>
            </g>
        </g>
    </g>
</svg>
