<svg xmlns="http://www.w3.org/2000/svg" width="52" height="52" viewBox="0 0 52 52">
    <g fill="none" fill-rule="evenodd">
        <g>
            <g>
                <g>
                    <g>
                        <path fill="#FF3F3E" d="M23.702 3.234L21.92 5.016c-.357.357-.936.357-1.293 0l-1.785-1.782c-4.308-4.312-11.298-4.312-15.609 0-4.311 4.309-4.311 11.298 0 15.61l14.803 14.803c1.787 1.787 4.685 1.787 6.474 0l14.802-14.804c4.31-4.311 4.31-11.3 0-15.61-4.31-4.31-11.299-4.31-15.61 0" transform="translate(-45 -189) translate(45 45) translate(0 144) translate(4.727 9.455)"/>
                        <path fill="#E70000" d="M38.715 18.364c0-.763-.622-1.385-1.385-1.385h-1.42c-.92 0-1.731.577-2.067 1.47l-1.066 2.846c-.172.456-.491.71-.872.695-.395-.014-.716-.31-.858-.792L27.981 10.81c-.288-.976-1.139-1.636-2.12-1.636-.98 0-1.832.66-2.12 1.636L20.056 23.3l-2.522-8.55c-.482-1.633-1.825-2.725-3.42-2.782-1.584-.054-2.983.924-3.574 2.496l-.588 1.572c-.215.567-.757.943-1.364.943-.764 0-1.385.622-1.385 1.385v.007c0 .766.621 1.385 1.385 1.385h1.418c.922 0 1.733-.576 2.068-1.47l1.066-2.846c.17-.456.49-.711.872-.694.395.014.717.31.858.791l3.064 10.389c.29.976 1.141 1.635 2.122 1.635.981 0 1.832-.657 2.12-1.635l3.685-12.488 2.522 8.547c.482 1.634 1.825 2.726 3.42 2.782 1.58.057 2.983-.924 3.574-2.496l.589-1.571c.215-.568.756-.944 1.364-.944.763 0 1.385-.619 1.385-1.385v-.007z" transform="translate(-45 -189) translate(45 45) translate(0 144) translate(4.727 9.455)"/>
                        <path fill="#E70000" d="M39.316 18.849L24.52 33.648c-1.371 1.37-3.357 1.699-5.011.992.52-.238 1.04-.57 1.465-.992l14.797-14.8c4.301-4.325 4.301-11.295 0-15.62C34.045 1.523 31.94.483 29.743.155c3.38-.546 6.95.47 9.573 3.073 4.302 4.325 4.302 11.295 0 15.62" transform="translate(-45 -189) translate(45 45) translate(0 144) translate(4.727 9.455)"/>
                        <path fill="#E7E5E2" d="M37.029 16.598c0-.763-.622-1.385-1.385-1.385h-1.419c-.921 0-1.732.577-2.068 1.47l-1.066 2.846c-.17.456-.491.71-.872.695-.395-.014-.716-.31-.858-.792L26.295 9.044c-.288-.976-1.139-1.635-2.12-1.635-.98 0-1.832.659-2.12 1.635l-3.685 12.49-2.522-8.55c-.482-1.633-1.825-2.725-3.42-2.782-1.584-.056-2.983.925-3.574 2.496l-.588 1.572c-.213.567-.757.943-1.364.943-.764 0-1.385.622-1.385 1.385v.007c0 .764.621 1.386 1.385 1.386H8.32c.922 0 1.733-.577 2.068-1.47l1.069-2.846c.17-.457.486-.712.87-.695.394.014.716.31.857.791l3.064 10.389c.29.976 1.141 1.635 2.122 1.635.981 0 1.832-.66 2.12-1.635l3.688-12.49 2.52 8.55c.481 1.633 1.824 2.725 3.42 2.781 1.578.057 2.982-.924 3.573-2.496l.589-1.571c.215-.568.756-.943 1.364-.943.763 0 1.385-.622 1.385-1.386v-.007z" transform="translate(-45 -189) translate(45 45) translate(0 144) translate(4.727 9.455)"/>
                    </g>
                </g>
            </g>
        </g>
    </g>
</svg>
