<?xml version="1.0" encoding="UTF-8"?>
<svg width="30px" height="30px" viewBox="0 0 30 30" version="1.1" xmlns="http://www.w3.org/2000/svg" xmlns:xlink="http://www.w3.org/1999/xlink">
    <title>E3E9A933-AE26-42CC-8B5A-907F9B3AA1AD</title>
    <g id="Seguros---Cotización---Autos" stroke="none" stroke-width="1" fill="none" fill-rule="evenodd">
        <g id="M---Seguros---Cotiz-Auto---Paso-7---Planes-4---Modal-Coberturas" transform="translate(-15.000000, -245.000000)">
            <g id="Modal-vertical-Copy" transform="translate(15.000000, 150.000000)">
                <g id="Responsabilidad-Civil" transform="translate(0.000000, 95.000000)">
                    <g id="Group-29" transform="translate(5.454545, 2.727273)">
                        <path d="M15.2908636,24.4622727 L10.8017727,22.9186364 C10.0163182,22.6486364 9.16131818,22.6486364 8.37586364,22.9186364 L3.88677273,24.4622727 C2.90768182,24.7990909 1.88904545,24.0722727 1.88904545,23.0359091 L1.88904545,14.8295455 L17.2899545,14.8295455 L17.2899545,23.0359091 C17.2899545,24.0722727 16.2699545,24.7990909 15.2908636,24.4622727" id="Fill-1" fill="#E7E5E2"></path>
                        <path d="M17.2896818,14.8288636 L17.2896818,23.0365909 C17.2896818,24.0702273 16.2696818,24.7997727 15.2905909,24.4615909 L14.7260455,24.2679545 C15.1051364,23.9993182 15.3628636,23.5561364 15.3628636,23.0365909 L15.3628636,18.4479545 C13.7578636,19.6615909 11.7574091,20.3815909 9.58922727,20.3815909 C6.43513636,20.3815909 3.63559091,18.8584091 1.88877273,16.5075 L1.88877273,14.8288636 L17.2896818,14.8288636 Z" id="Fill-4" fill="#D6D1CA"></path>
                        <path d="M1.88890909,23.0360455 C1.88890909,24.0710455 2.90754545,24.7992273 3.88663636,24.4624091 L5.36345455,23.9551364 L5.36345455,14.8283182 L1.88890909,14.8283182 L1.88890909,23.0360455 Z" id="Fill-6" fill="#FF3F3E"></path>
                        <path d="M5.36318182,19.4019545 L5.36318182,14.8283182 L1.88863636,14.8283182 L1.88863636,16.5083182 C2.79545455,17.7274091 3.98727273,18.7255909 5.36318182,19.4019545" id="Fill-9" fill="#E70000"></path>
                        <path d="M13.8147273,14.8288636 L13.8147273,23.9543182 L15.2915455,24.4615909 C16.2706364,24.7997727 17.2892727,24.0702273 17.2892727,23.0365909 L17.2892727,14.8288636 L13.8147273,14.8288636 Z" id="Fill-11" fill="#FF3F3E"></path>
                        <path d="M15.3634091,18.4483636 L15.3634091,23.0356364 C15.3634091,23.5565455 15.1056818,23.9983636 14.7252273,24.2683636 L15.2911364,24.462 C16.2702273,24.7988182 17.2902273,24.0706364 17.2902273,23.0356364 L17.2902273,14.8292727 L13.8143182,14.8292727 L13.8143182,19.4015455 C14.3625,19.1329091 14.8806818,18.8138182 15.3634091,18.4483636" id="Fill-13" fill="#E70000"></path>
                        <path d="M19.1780455,9.58881818 C19.1780455,14.8851818 14.8853182,19.1779091 9.58895455,19.1779091 C4.29259091,19.1779091 -0.000136363636,14.8851818 -0.000136363636,9.58881818 C-0.000136363636,4.29245455 4.29259091,-0.000272727273 9.58895455,-0.000272727273 C14.8853182,-0.000272727273 19.1780455,4.29245455 19.1780455,9.58881818" id="Fill-15" fill="#FFC976"></path>
                        <path d="M9.58936364,-0.000681818182 C9.26345455,-0.000681818182 8.943,0.0170454545 8.62527273,0.0470454545 C13.4702727,0.531136364 17.2516364,4.61795455 17.2516364,9.58840909 C17.2516364,14.5602273 13.4702727,18.6470455 8.62527273,19.1297727 C8.943,19.1625 9.26345455,19.1775 9.58936364,19.1775 C14.8843636,19.1775 19.1784545,14.8847727 19.1784545,9.58840909 C19.1784545,4.29204545 14.8843636,-0.000681818182 9.58936364,-0.000681818182" id="Fill-18" fill="#FFAB1C"></path>
                        <path d="M16.3615909,9.58881818 C16.3615909,13.3292727 13.3302273,16.362 9.58977273,16.362 C5.84931818,16.362 2.81659091,13.3292727 2.81659091,9.58881818 C2.81659091,5.84836364 5.84931818,2.81563636 9.58977273,2.81563636 C13.3302273,2.81563636 16.3615909,5.84836364 16.3615909,9.58881818" id="Fill-21" fill="#FFAB1C"></path>
                        <path d="M9.58936364,2.81590909 C9.26209091,2.81590909 8.94027273,2.84045455 8.62527273,2.88545455 C11.9102727,3.35318182 14.4357273,6.17590909 14.4357273,9.58909091 C14.4357273,13.0036364 11.9102727,15.8263636 8.62527273,16.2940909 C8.94027273,16.3377273 9.26209091,16.3622727 9.58936364,16.3622727 C13.3298182,16.3622727 16.3611818,13.3295455 16.3611818,9.58909091 C16.3611818,5.84863636 13.3298182,2.81590909 9.58936364,2.81590909" id="Fill-23" fill="#FF9D00"></path>
                        <path d="M8.54590909,13.7862273 C8.37136364,13.7862273 8.19681818,13.7194091 8.06318182,13.5871364 L5.67818182,11.2007727 C5.41227273,10.9348636 5.41227273,10.5039545 5.67818182,10.2366818 C5.94409091,9.97077273 6.37636364,9.97077273 6.64227273,10.2366818 L8.54590909,12.1403182 L13.0963636,7.58986364 C13.3636364,7.32395455 13.7945455,7.32395455 14.0604545,7.58986364 C14.3277273,7.85577273 14.3277273,8.28804545 14.0604545,8.55395455 L9.02863636,13.5871364 C8.895,13.7194091 8.72045455,13.7862273 8.54590909,13.7862273" id="Fill-25" fill="#F4950C"></path>
                        <path d="M8.54590909,12.7635 C8.37136364,12.7635 8.19681818,12.6966818 8.06318182,12.5644091 L5.67818182,10.1780455 C5.41227273,9.91213636 5.41227273,9.48122727 5.67818182,9.21395455 C5.94409091,8.94804545 6.37636364,8.94804545 6.64227273,9.21395455 L8.54590909,11.1175909 L13.0963636,6.56713636 C13.3636364,6.30122727 13.7945455,6.30122727 14.0604545,6.56713636 C14.3277273,6.83304545 14.3277273,7.26531818 14.0604545,7.53122727 L9.02863636,12.5644091 C8.895,12.6966818 8.72045455,12.7635 8.54590909,12.7635" id="Fill-27" fill="#E7E5E2"></path>
                    </g>
                </g>
            </g>
        </g>
    </g>
</svg>