<svg xmlns="http://www.w3.org/2000/svg" width="52" height="52" viewBox="0 0 52 52">
    <g fill="none" fill-rule="evenodd">
        <g>
            <g>
                <g>
                    <g>
                        <path fill="#FFC976" d="M37.818 20.848v16.97c0 1.306-1.059 2.365-2.364 2.365H7.091c-1.305 0-2.364-1.06-2.364-2.364V20.848c.142-.095.284-.213.425-.333L18.885 8.01c1.355-1.229 3.423-1.229 4.775 0l13.732 12.504c.142.12.284.238.426.333" transform="translate(-45 -333) translate(45 45) translate(0 288) translate(4.727 7.09)"/>
                        <path fill="#FFAB1C" d="M37.818 20.848v16.97c0 1.299-1.064 2.365-2.364 2.365H31.91c1.3 0 2.363-1.066 2.363-2.364V17.676l3.12 2.839c.142.12.284.238.426.333" transform="translate(-45 -333) translate(45 45) translate(0 288) translate(4.727 7.09)"/>
                        <path fill="#5B5B5B" d="M24.816 23.643h-7.091c-1.96 0-3.546 1.586-3.546 3.546v12.995h14.182V27.19c0-1.96-1.588-3.546-3.545-3.546" transform="translate(-45 -333) translate(45 45) translate(0 288) translate(4.727 7.09)"/>
                        <path fill="#3E3D40" d="M28.363 27.182v12.997h-3.545V27.182c0-1.962-1.584-3.546-3.546-3.546h3.546c1.962 0 3.545 1.584 3.545 3.546" transform="translate(-45 -333) translate(45 45) translate(0 288) translate(4.727 7.09)"/>
                        <path fill="#96003E" d="M39.449 21.32c-.568 0-1.135-.164-1.631-.471-.142-.095-.284-.213-.426-.334L23.66 8.012c-1.348-1.227-3.428-1.227-4.775 0L5.152 20.515c-.142.121-.283.24-.425.334-.497.307-1.064.47-1.631.47C1.229 21.32 0 19.785 0 18.201c0-.803.307-1.61 1.016-2.247l3.71-3.378L15.93 2.363l.568-.518c2.718-2.458 6.83-2.458 9.549 0l.567.518 11.204 10.213 3.71 3.378c2.08 1.89.733 5.365-2.08 5.365" transform="translate(-45 -333) translate(45 45) translate(0 288) translate(4.727 7.09)"/>
                        <path fill="#FFAB1C" d="M25.503 9.715c-1.347-1.231-3.427-1.231-4.774 0L6.996 22.22c-.142.118-.284.236-.425.331-.497.307-1.064.473-1.631.473-.071 0-.142 0-.213-.024v-2.15c.142-.095.284-.214.425-.334L18.885 8.01c1.347-1.226 3.427-1.226 4.775 0l1.843 1.704z" transform="translate(-45 -333) translate(45 45) translate(0 288) translate(4.727 7.09)"/>
                        <path fill="#630731" d="M41.954 20.022c-.52.78-1.418 1.3-2.505 1.3-.567 0-1.135-.168-1.631-.473-.142-.095-.284-.213-.426-.331L23.66 8.014c-1.348-1.231-3.428-1.231-4.775 0l.97-.898c1.347-1.229 3.427-1.229 4.774 0L38.362 19.62c.141.118.283.236.425.33.496.308 1.064.473 1.63.473.592 0 1.112-.141 1.537-.401" transform="translate(-45 -333) translate(45 45) translate(0 288) translate(4.727 7.09)"/>
                    </g>
                </g>
            </g>
        </g>
    </g>
</svg>
