<svg width="23" height="23" viewBox="0 0 23 23" fill="none" xmlns="http://www.w3.org/2000/svg">
<g id="Outlined/Channels/Mis Datos">
<path id=" &#226;&#134;&#179;Color" fill-rule="evenodd" clip-rule="evenodd" d="M4.77912 16.7017C4.71368 16.6194 4.64982 16.5361 4.58755 16.4518L4.56523 16.4243C3.01876 14.3114 2.46351 11.6246 3.05938 9.06381C3.68113 6.38925 5.49086 4.14458 7.97265 2.96858C10.4544 1.79333 13.3373 1.81508 15.8011 3.02858C18.2656 4.24133 20.04 6.51299 20.6212 9.19734C21.1672 11.719 20.604 14.3449 19.0902 16.4148L19.0973 16.4243L18.7852 16.8084C17.6896 18.1451 16.2463 19.1218 14.6411 19.6507L14.2775 19.7619L14.0136 19.8324C13.3951 19.9875 12.757 20.0775 12.1093 20.0979L11.8313 20.1023C9.08471 20.1038 6.4883 18.852 4.77912 16.7017ZM11.8374 13.9544C9.67665 13.9544 7.61265 14.8514 6.13733 16.4303C6.7518 17.0878 7.46842 17.6272 8.25164 18.0327C9.34838 18.5988 10.5743 18.9023 11.8313 18.9023C13.8999 18.9023 15.8842 18.0803 17.3468 16.6178L17.5318 16.4253L17.3501 16.2365C15.8901 14.7783 13.9081 13.9544 11.8374 13.9544ZM6.31569 5.58669C7.77835 4.12427 9.76286 3.30228 11.8313 3.30228C13.8999 3.30228 15.8843 4.12419 17.3468 5.58669C18.8093 7.04934 19.6313 9.03366 19.6313 11.1023C19.6313 12.6762 19.1554 14.2014 18.2827 15.4842C16.5961 13.7502 14.272 12.7598 11.8313 12.7598C9.39053 12.7598 7.06636 13.7502 5.37891 15.485C4.50715 14.2013 4.03128 12.6762 4.03128 11.1023C4.03128 9.03366 4.85319 7.04919 6.31569 5.58669ZM11.8313 4.5022C12.786 4.5022 13.7018 4.88171 14.3768 5.5567C15.0518 6.23169 15.4313 7.14746 15.4313 8.10223C15.4313 9.05701 15.0518 9.97273 14.3768 10.6478C13.7018 11.3228 12.786 11.7023 11.8313 11.7023C10.8765 11.7023 9.96077 11.3228 9.28574 10.6478C8.61074 9.97277 8.23124 9.05701 8.23124 8.10223C8.23124 7.14746 8.61074 6.23173 9.28574 5.5567C9.96073 4.88171 10.8765 4.5022 11.8313 4.5022ZM9.61425 7.18351C9.98552 6.28728 10.8608 5.70224 11.8312 5.70224C12.468 5.70224 13.0785 5.955 13.5285 6.40499C13.9785 6.85498 14.2312 7.46548 14.2312 8.10223C14.2312 9.07275 13.6462 9.948 12.75 10.3193C11.853 10.6913 10.8202 10.4858 10.134 9.79951C9.44775 9.1133 9.24225 8.08052 9.61425 7.18351Z" fill="#D52B1E"/>
</g>
</svg>
