<svg xmlns="http://www.w3.org/2000/svg" width="63" height="63" fill="none" viewBox="0 0 63 63">
  <path fill="#E7E5E2" fill-rule="evenodd" d="M37.718 21.422a1.399 1.399 0 01-.997.411H26.477a1.408 1.408 0 01-.995-2.404c.253-.253.606-.414.995-.414H36.72a1.41 1.41 0 01.997 2.407zm6.268.411c-1.635 0-2.987-1.316-2.973-2.948a1.976 1.976 0 00-1.976-1.998H24.321c-1.108 0-2.148.837-2.137 1.948a2.963 2.963 0 01-.87 2.13 2.963 2.963 0 01-2.1.868h-8.75a4.227 4.227 0 00-4.228 4.227v26.362a4.227 4.227 0 004.228 4.227h42.272a4.229 4.229 0 004.228-4.227V26.06a4.229 4.229 0 00-4.228-4.227h-8.75z" clip-rule="evenodd"/>
  <path fill="#D6D1CA" fill-rule="evenodd" d="M56.965 26.062v26.353a4.223 4.223 0 01-4.227 4.227h-4.227a4.223 4.223 0 004.227-4.227V26.062a4.222 4.222 0 00-4.227-4.228h4.227a4.222 4.222 0 014.227 4.228" clip-rule="evenodd"/>
  <path fill="#00AD8E" fill-rule="evenodd" d="M25.933 51.153H11.888a1.41 1.41 0 01-1.41-1.41v-17.52c0-.778.632-1.409 1.41-1.409h14.045c.778 0 1.41.631 1.41 1.41v17.52a1.41 1.41 0 01-1.41 1.409" clip-rule="evenodd"/>
  <path fill="#5B5B5B" fill-rule="evenodd" d="M51.33 33.647H32.058a1.41 1.41 0 010-2.818h19.27a1.41 1.41 0 010 2.818M51.33 41.567H32.058a1.41 1.41 0 010-2.818h19.27a1.41 1.41 0 010 2.818M39.385 49.147h-7.328a1.41 1.41 0 010-2.818h7.328a1.41 1.41 0 010 2.818" clip-rule="evenodd"/>
  <path fill="#07826A" fill-rule="evenodd" d="M27.345 32.235v17.5c0 .787-.62 1.41-1.409 1.41H21.71c.79 0 1.41-.623 1.41-1.41v-17.5c0-.79-.62-1.41-1.41-1.41h4.227c.79 0 1.41.62 1.41 1.41" clip-rule="evenodd"/>
  <path fill="#FFC976" fill-rule="evenodd" d="M24.609 37.937a5.697 5.697 0 11-11.394-.002 5.697 5.697 0 0111.394.002M27.345 49.359v.366c0 .786-.62 1.41-1.41 1.41H11.902c-.789 0-1.409-.624-1.409-1.41v-.366c1.635-2.99 4.791-5.017 8.427-5.017a9.558 9.558 0 016.763 2.819 9.746 9.746 0 011.663 2.198" clip-rule="evenodd"/>
  <path fill="#FFAB1C" fill-rule="evenodd" d="M22.95 33.897a5.719 5.719 0 00-4.03-1.663c-.762 0-1.466.141-2.115.423a5.635 5.635 0 011.889 1.24c1.042 1.071 1.662 2.534 1.662 4.03a5.668 5.668 0 01-3.579 5.27 5.531 5.531 0 002.142.423 5.695 5.695 0 005.693-5.693c0-1.496-.592-2.959-1.663-4.03M27.346 49.37v.366c0 .786-.62 1.409-1.41 1.409h-4.255c.79 0 1.41-.623 1.41-1.41v-.366a9.749 9.749 0 00-1.664-2.198 9.496 9.496 0 00-4.65-2.564 8.915 8.915 0 012.142-.254 9.558 9.558 0 016.764 2.818 9.749 9.749 0 011.663 2.198" clip-rule="evenodd"/>
  <path fill="#E7E5E2" fill-rule="evenodd" d="M41.014 18.876c0-.536-.225-1.043-.592-1.41a1.893 1.893 0 00-1.38-.591H24.33c-1.128 0-2.17.846-2.142 1.942 0 .059 0 .143-.028.2a2.947 2.947 0 01-.846 1.944c-.084.085-.169.17-.254.198.226.422.677.676 1.184.676h4.227c-.76 0-1.409-.62-1.409-1.41 0-.394.17-.732.423-.986.254-.253.592-.422.986-.422h10.315a1.422 1.422 0 011.353 1.409c0 .282-.085.535-.226.76a2.852 2.852 0 001.832.649h4.227c-1.634 0-2.987-1.325-2.959-2.96" clip-rule="evenodd"/>
  <path fill="#00AD8E" fill-rule="evenodd" d="M35.744 20.84h-8.289a1.328 1.328 0 01-1.327-1.327v-8.787c0-.732.595-1.327 1.327-1.327h8.289c.732 0 1.327.595 1.327 1.327v8.787c0 .733-.595 1.328-1.327 1.328" clip-rule="evenodd"/>
  <path fill="#07826A" fill-rule="evenodd" d="M35.743 9.4h-4.145c.735 0 1.327.595 1.327 1.328v8.787c0 .733-.592 1.327-1.327 1.327h4.145c.733 0 1.328-.594 1.328-1.327v-8.787c0-.733-.595-1.328-1.328-1.328" clip-rule="evenodd"/>
</svg>
