<svg xmlns="http://www.w3.org/2000/svg" width="70" height="70" viewBox="0 0 70 70">
    <g fill="none" fill-rule="evenodd">
        <g>
            <g>
                <g>
                    <g>
                        <path fill="#FCB79F" d="M3.878 29.686c-.029 0-.058.003-.083.006-.248.041-.449.175-.55.366-.093.178-.086.379.019.601.14.153.61.223 1.209.194.006-.082.016-.168.019-.254.019-.239-.01-.566-.226-.76-.108-.096-.252-.153-.388-.153m-1.292 8.202c-.592 0-1.161-.33-1.435-.903-.382-.792-.045-1.744.748-2.122.455-.217.92-.49 1.323-.904C2.032 33.768.96 33.22.39 32.018c-.534-1.12-.518-2.377.039-3.44.56-1.069 1.626-1.826 2.85-2.023 1.117-.2 2.282.159 3.125.929.764.69 1.203 1.642 1.266 2.717.77-.153 1.569.267 1.836 1.031.287.83-.146 1.737-.976 2.027-.265.092-.793.267-1.461.426-.694 1.814-1.963 3.173-3.796 4.048-.223.108-.455.155-.687.155" transform="translate(-804 -328) translate(635 303) translate(169 25) translate(6.364 6.364)"/>
                        <path fill="#FCB79F" d="M36.053 17.518h-12.79c-.16.032-.35.063-.51.095-1.877.35-3.595.891-5.154 1.655-6.11 2.832-9.832 8.273-9.832 14.827 0 5.696 2.8 10.401 8.05 13.583l1.209 6.24c.19 1.082 1.145 1.877 2.259 1.877h2.895c1.05 0 1.973-.7 2.26-1.753l.795-3.115c2.545.254 5.695.19 8.05.032l.477 2.895c.191 1.114 1.146 1.941 2.291 1.941h2.864c1.05 0 1.973-.732 2.227-1.753l1.4-5.597c3.182-1.686 5.632-4.04 7.16-6.904.222-.414.54-.7.954-.891l3.5-1.369c.89-.353 1.463-1.209 1.463-2.163V32.79c0-.955-.572-1.817-1.463-2.164l-1.623-.636c-1.082-.446-1.877-1.178-2.26-2.069-.667-1.495-1.558-2.895-2.64-4.107.127-.76.223-1.62.255-2.543.063-1.75.031-3.277-.032-4.263-.032-.668-.382-1.273-.891-1.687-.541-.413-1.21-.54-1.877-.413-.955.19-2.355.54-3.628 1.05-1.24.477-2.609 1.177-3.69 1.782l-1.719-.223z" transform="translate(-804 -328) translate(635 303) translate(169 25) translate(6.364 6.364)"/>
                        <path fill="#5B5B5B" d="M39.362 19.26c-.445 1.05-1.463 1.783-2.704 1.783H20.303c-.159 0-.35 0-.509-.032-.986-.194-1.814-.862-2.195-1.75 1.559-.764 3.277-1.305 5.154-1.658.16-.029.35-.06.51-.095h12.79l1.718.226c.541.222.987.57 1.305 1.05.127.155.22.315.286.477" transform="translate(-804 -328) translate(635 303) translate(169 25) translate(6.364 6.364)"/>
                        <path fill="#E7E5E2" d="M34.215 31.814c0 .589-.525 1.066-1.17 1.066-.599 0-1.089-.407-1.162-.932l-.006-.134c0-1.34-1.193-2.421-2.66-2.421s-2.657 1.081-2.657 2.421c0 1.27 1.075 2.313 2.44 2.412l.217.01c2.558 0 4.706 1.762 4.97 4.082.254 2.236-1.32 4.298-3.682 4.868l-.264.057v1.002c0 .589-.525 1.066-1.17 1.066-.596 0-1.089-.407-1.159-.932l-.01-.134v-1.069c-2.173-.54-3.678-2.335-3.684-4.39 0-.586.525-1.067 1.174-1.067.573 0 1.05.382 1.149.875l.019.191c.003 1.232 1.015 2.263 2.354 2.406.13-.02.268-.016.401.013 1.445-.048 2.584-1.143 2.559-2.463-.026-1.254-1.095-2.269-2.44-2.367l-.217-.007c-2.501 0-4.62-1.69-4.951-3.948-.322-2.177 1.107-4.239 3.37-4.923l.267-.076v-1.034c0-.589.521-1.066 1.167-1.066.599 0 1.092.407 1.162.932l.01.134v.97c2.312.443 3.97 2.304 3.973 4.458" transform="translate(-804 -328) translate(635 303) translate(169 25) translate(6.364 6.364)"/>
                        <path fill="#DDA292" d="M31.25 43.935l-.26.061v.999c0 .582-.519 1.06-1.18 1.06-.538 0-1-.338-1.117-.799.117.041.238.06.378.06.64 0 1.162-.48 1.162-1.06v-1.02l.28-.039c2.357-.582 3.936-2.64 3.675-4.88-.099-.818-.417-1.56-.917-2.2.917.739 1.518 1.764 1.658 2.94.261 2.24-1.32 4.296-3.678 4.878M31.49 30.58c-.42-.28-.958-.439-1.52-.439-1.477 0-2.658 1.079-2.658 2.419 0 .442.121.862.36 1.2-.681-.42-1.12-1.14-1.12-1.939 0-1.34 1.2-2.418 2.66-2.418.98 0 1.817.477 2.278 1.177M34.969 32.56c0 .598-.538 1.06-1.18 1.06-.538 0-1-.338-1.117-.8.117.042.238.061.378.061.64 0 1.158-.48 1.158-1.06 0-1.02-.36-1.96-.999-2.72 1.082.84 1.76 2.078 1.76 3.459M31.51 37.56c-.378-.242-.84-.401-1.32-.443h-.22c-1.638 0-3.099-.719-4.018-1.858.881.68 2.02 1.1 3.258 1.1l.223.02c.878.057 1.638.519 2.078 1.18" transform="translate(-804 -328) translate(635 303) translate(169 25) translate(6.364 6.364)"/>
                        <path fill="#DDA292" d="M55.621 34.757v2.351c0 .955-.573 1.817-1.464 2.167l-3.5 1.368c-.413.188-.731.477-.954.89-1.527 2.861-3.977 5.219-7.16 6.905l-1.4 5.6c-.254 1.019-1.176 1.747-2.227 1.747h-2.863c-1.146 0-2.1-.824-2.291-1.938l-.477-2.895c-2.355.16-5.505.22-8.05-.035l-.796 3.121c-.286 1.05-1.209 1.747-2.259 1.747h-2.895c-1.114 0-2.069-.795-2.26-1.874l-1.208-6.236c-5.25-3.182-8.05-7.894-8.05-13.59 0-.413 0-.827.031-1.209.35 5.187 3.118 9.485 8.018 12.441l1.21 6.236c.19 1.082 1.145 1.878 2.259 1.878h2.895c1.05 0 1.973-.7 2.26-1.75l.795-3.115c2.545.254 5.695.187 8.05.031l.477 2.896c.19 1.11 1.145 1.938 2.29 1.938h2.864c1.05 0 1.973-.729 2.228-1.75l1.4-5.597c3.182-1.69 5.632-4.044 7.159-6.905.223-.413.54-.7.954-.894l3.5-1.365c.891-.353 1.464-1.209 1.464-2.163M42.002 21.678c0 1.623-1.305 2.988-2.96 2.988H22.689c-.954 0-1.813-.474-2.354-1.206h16.322c1.655 0 2.96-1.336 2.96-2.99 0-.223-.032-.45-.064-.637l-.191-.573c-.064-.162-.16-.318-.286-.477l1.081.127c.7.287 1.273.827 1.591 1.56.064.19.128.346.191.54.032.191.064.446.064.668M40.762 16.237c-.477.923-1.05 1.719-1.75 2.45-.318-.445-.732-.763-1.24-.954.89-.51 1.972-1.05 2.99-1.496" transform="translate(-804 -328) translate(635 303) translate(169 25) translate(6.364 6.364)"/>
                        <path fill="#3E3D40" d="M39.011 18.686c-.859.958-1.877 1.753-3.054 2.354h-2.418c1.559-.763 2.927-1.905 3.945-3.34l.286.031c.51.194.923.51 1.241.955" transform="translate(-804 -328) translate(635 303) translate(169 25) translate(6.364 6.364)"/>
                        <path fill="#FFC976" d="M39.616 11.135c0 6.154-4.986 11.137-11.137 11.137-6.15 0-11.136-4.983-11.136-11.137C17.343 4.985 22.329 0 28.479 0c6.15 0 11.137 4.986 11.137 11.136" transform="translate(-804 -328) translate(635 303) translate(169 25) translate(6.364 6.364)"/>
                        <path fill="#FFAB1C" d="M36.345 11.135c0 4.344-3.522 7.869-7.865 7.869s-7.866-3.525-7.866-7.869c0-4.343 3.523-7.865 7.866-7.865s7.865 3.522 7.865 7.865" transform="translate(-804 -328) translate(635 303) translate(169 25) translate(6.364 6.364)"/>
                        <path fill="#FF9D00" d="M36.34 11.145c0 4.327-3.5 7.862-7.86 7.862-.413 0-.795-.035-1.177-.099 3.786-.57 6.65-3.85 6.65-7.763 0-3.943-2.864-7.223-6.65-7.793.382-.066.764-.095 1.177-.095 4.36 0 7.86 3.532 7.86 7.888" transform="translate(-804 -328) translate(635 303) translate(169 25) translate(6.364 6.364)"/>
                        <path fill="#FFAB1C" d="M39.616 11.145c0 6.144-4.996 11.136-11.137 11.136-.382 0-.763-.032-1.145-.064 5.568-.636 9.895-5.342 9.895-11.072 0-5.76-4.327-10.469-9.895-11.07.382-.032.763-.067 1.145-.067 6.141 0 11.137 4.967 11.137 11.137" transform="translate(-804 -328) translate(635 303) translate(169 25) translate(6.364 6.364)"/>
                        <path fill="#FFCFBA" d="M39.616 20.47c0 1.654-1.305 2.987-2.96 2.987H20.302c-1.623 0-2.96-1.333-2.96-2.987 0-.449.096-.828.255-1.21.382.888 1.21 1.556 2.196 1.75.159.032.35.032.509.032h16.354c1.241 0 2.26-.732 2.705-1.782l.19.573c.033.188.065.414.065.637" transform="translate(-804 -328) translate(635 303) translate(169 25) translate(6.364 6.364)"/>
                    </g>
                </g>
            </g>
        </g>
    </g>
</svg>
