<svg width="21" height="19" viewBox="0 0 21 19" fill="none" xmlns="http://www.w3.org/2000/svg">
<path fill-rule="evenodd" clip-rule="evenodd" d="M10.0128 1.5C9.53677 1.5 9.11277 1.746 8.87477 2.159L1.67677 14.724C1.44277 15.134 1.44477 15.623 1.68177 16.032C1.91877 16.441 2.34277 16.686 2.81577 16.686H17.1988C17.6708 16.686 18.0948 16.441 18.3318 16.032C18.5698 15.623 18.5718 15.134 18.3358 14.724L11.1508 2.159C10.9138 1.746 10.4898 1.5 10.0128 1.5ZM17.1988 18.186H2.81577C1.80177 18.186 0.892769 17.662 0.383769 16.784C-0.125231 15.907 -0.128231 14.858 0.374769 13.979L7.57477 1.413C8.08077 0.528 8.99177 0 10.0128 0L10.0138 0C11.0338 0 11.9468 0.529 12.4528 1.415L19.6388 13.979C20.1418 14.858 20.1388 15.907 19.6298 16.784C19.1208 17.662 18.2118 18.186 17.1988 18.186Z" fill="#715318"/>
<path fill-rule="evenodd" clip-rule="evenodd" d="M10.0039 11.164C9.58992 11.164 9.25392 10.828 9.25392 10.414V7.314C9.25392 6.9 9.58992 6.564 10.0039 6.564C10.4179 6.564 10.7539 6.9 10.7539 7.314V10.414C10.7539 10.828 10.4179 11.164 10.0039 11.164Z" fill="#715318"/>
<path fill-rule="evenodd" clip-rule="evenodd" d="M10.0059 14.499C9.45292 14.499 9.00092 14.052 9.00092 13.499C9.00092 12.946 9.44392 12.499 9.99592 12.499H10.0059C10.5589 12.499 11.0059 12.946 11.0059 13.499C11.0059 14.052 10.5589 14.499 10.0059 14.499Z" fill="#715318"/>
</svg>
