<svg width="24" height="24" viewBox="0 0 24 24" fill="none" xmlns="http://www.w3.org/2000/svg">
<path fill-rule="evenodd" clip-rule="evenodd" d="M18.4481 3.48672C18.9633 3.04811 19.6541 2.7934 20.3793 2.9765C21.1046 3.15959 21.5917 3.71168 21.8369 4.34225C22.0812 4.97059 22.1104 5.72044 21.9236 6.46048L18.619 19.5498C18.5809 19.7008 18.4967 19.8363 18.3781 19.9373L16.2759 21.7271C16.0911 21.8845 15.8415 21.9427 15.6061 21.8833C15.3707 21.8239 15.1787 21.6542 15.0907 21.4279L14.0901 18.8547C14.0336 18.7095 14.0237 18.5503 14.0619 18.3993L17.3664 5.30998C17.5532 4.56994 17.9348 3.92378 18.4481 3.48672ZM19.4206 4.62881C19.1774 4.83588 18.9426 5.19444 18.8208 5.67715L15.5749 18.5343L16.1065 19.9013L17.2233 18.9504L20.4692 6.09331C20.5911 5.61059 20.5547 5.1836 20.4389 4.8859C20.324 4.59043 20.1565 4.4673 20.0122 4.43086C19.8678 4.39443 19.6619 4.42329 19.4206 4.62881Z" fill="#3B3A45"/>
<path d="M12.3247 21.4022C12.2909 21.2558 12.0877 20.513 12.0122 20.3514C11.8283 19.9578 11.5872 19.6774 11.0433 19.6774C10.5352 19.6774 10.1993 19.9516 9.65776 20.3936C9.61436 20.429 9.56963 20.4656 9.52338 20.5031C9.25144 20.7238 8.88218 21.0101 8.43025 21.1429C7.92502 21.2914 7.39757 21.2297 6.8586 20.9267C6.51424 20.7332 6.242 20.4785 6.06472 20.1558C5.88846 19.8351 5.83571 19.5011 5.84218 19.1956C5.85301 18.684 6.04123 18.1465 6.18006 17.75C6.19372 17.711 6.20689 17.6734 6.21937 17.6373C6.38833 17.1487 6.46002 16.8679 6.43777 16.6775C6.43029 16.6136 6.41313 16.5785 6.38398 16.5449C6.34798 16.5034 6.28311 16.3868 6.06472 16.3044C5.86548 16.2292 5.59666 16.2529 5.31033 16.5033C5.02399 16.7538 3.8101 18.3112 3.51354 18.66C3.21699 19.0089 2.78961 19.0546 2.41189 18.8007C2.14677 18.6225 2.02348 18.3296 2.13454 18.0311C2.24561 17.7327 2.3387 17.6126 2.43922 17.4467C2.6387 17.1173 2.92997 16.6772 3.28964 16.2541C3.64364 15.8376 4.09714 15.3978 4.62974 15.1125C5.17718 14.8193 5.85455 14.6689 6.56838 14.9383C6.94887 15.0819 7.27471 15.2825 7.51715 15.562C7.76645 15.8495 7.88942 16.1766 7.92762 16.5033C7.9961 17.0891 7.98493 17.1561 7.87946 17.6639L7.79743 17.9178C7.74664 18.0585 7.53571 18.4999 7.53163 18.5117C7.36419 18.9958 7.3474 18.9649 7.34185 19.2273C7.33952 19.3371 7.35884 19.3962 7.37933 19.4335C7.3988 19.4689 7.44799 19.5373 7.59359 19.6191C7.81499 19.7436 7.92681 19.7274 8.00729 19.7037C8.14106 19.6644 8.30396 19.5609 8.57815 19.3384C8.62462 19.3007 8.67433 19.259 8.72735 19.2146L8.72742 19.2146C9.20975 18.8107 9.96598 18.1774 11.0433 18.1774C12.3629 18.1774 13.0714 19.0038 13.408 19.7245C13.5726 20.077 13.6599 20.4203 13.7068 20.6692L13.7583 20.9999C13.7583 20.9999 13.7759 21.3273 13.7583 21.4218C13.7094 21.6844 13.408 21.9061 12.9927 21.9061C12.6138 21.9061 12.3585 21.5486 12.3247 21.4022Z" fill="#3B3A45"/>
</svg>
