<svg xmlns="http://www.w3.org/2000/svg" xmlns:xlink="http://www.w3.org/1999/xlink" width="170" height="40" viewBox="0 0 170 40">
    <defs>
        <path id="vx9hpw80xa" d="M0 0H170V40H0z"/>
    </defs>
    <g fill="none" fill-rule="evenodd">
        <g>
            <g>
                <g>
                    <g transform="translate(-321 -498) translate(200 326) translate(0 157) translate(121 15)">
                        <mask id="fa4bjd869b" fill="#fff">
                            <use xlink:href="#vx9hpw80xa"/>
                        </mask>
                        <g mask="url(#fa4bjd869b)">
                            <g fill="#004A93" fill-rule="nonzero">
                                <path d="M10.77 17.325H6.418l2.314-7.54 2.04 7.54zm-6.393 7.631l1.375-4.606h5.592l1.375 4.606h4.629L12.42 7.494c-.275-1.146-.825-1.513-2.04-1.513H3.552v1.582h.55c.825 0 1.238.252 1.238.893 0 .39 0 .665-.413 1.604L0 24.956M23.192 24.956V7.38c0-.916-.55-1.398-1.49-1.398h-4.24v1.582h.276c.825 0 1.237.343 1.237 1.077v16.316m11.848 0V7.38c0-.916-.55-1.398-1.49-1.398h-4.24v1.582h.276c.825 0 1.237.343 1.237 1.077v16.316" transform="translate(25 7)"/>
                                <g>
                                    <path d="M5.844 7.654c0-1.26-.963-1.994-2.452-1.994C1.765 5.66.94 6.394.94 7.654c0 1.284.825 2.04 2.452 2.04 1.49 0 2.452-.757 2.452-2.04m-.138 17.302v-12.81c0-.894-.55-1.398-1.375-1.398H.091v1.535h.276c.825 0 1.1.344 1.1 1.123v11.55m14.323-6.898V20.9c-.825.825-1.765 1.283-2.59 1.283s-1.237-.39-1.237-1.466c0-1.17.275-1.627 1.237-1.994.688-.275 1.375-.458 2.59-.665m-6.005-3.391l.413-.16c1.1-.436 1.764-.597 2.59-.757.412-.046.962-.115 1.237-.115 1.375 0 1.765.459 1.765 1.696v.344c-1.902.32-2.452.412-3.552.665-.55.137-1.1.32-1.628.55-1.764.71-2.59 2.062-2.59 4.216 0 2.681 1.1 3.965 3.553 3.965.962 0 1.902-.23 2.59-.665.687-.32.962-.481 1.764-1.237v.435c0 .894.413 1.306 1.238 1.306h4.102v-1.466h-.138c-.825 0-1.237-.367-1.237-1.1V15.4c0-3.62-1.238-4.858-4.767-4.858-1.238 0-2.315.137-3.415.39-1.1.251-1.627.458-2.864 1.1M27.66 24.955v-9.625c.963-.893 1.628-1.237 2.59-1.237s1.238.412 1.238 1.856v9.006h4.24v-9.694c0-1.993-.276-2.841-.826-3.597-.687-.734-1.49-1.077-2.727-1.077-1.627 0-2.865.595-4.767 2.245v-.756c0-.894-.412-1.33-1.237-1.33h-4.102v1.536h.137c.825 0 1.238.344 1.238 1.123v11.55" transform="translate(25 7) translate(32.77)"/>
                                    <g>
                                        <path d="M11.81 10.567H5.594l6.06 8.547v2.952H2.643c-1.088 0-1.554-.466-1.554-1.554v-2.641h1.554v.31c0 .777.466 1.088 1.243 1.088h3.263L.932 10.722V7.77H11.81M35.897 8.702v16.006c0 1.243-.622 1.71-1.71 1.71h-3.73v-1.71h.467c.621 0 .932-.31.932-1.088V8.702h4.04zm2.175 0h3.885v12.121c0 1.243-.622 1.71-1.71 1.71h-2.175V8.702zm-8.391 0v13.83h-2.176c-1.243 0-1.71-.466-1.71-1.709V8.703h3.886zm17.093 8.08c0-7.458-5.439-13.052-12.898-13.052S20.98 9.168 20.98 16.783c0 7.459 5.438 13.053 12.897 13.053 7.46 0 12.898-5.594 12.898-13.053m2.487 0c0 8.857-6.527 15.384-15.385 15.384-8.702 0-15.384-6.527-15.384-15.384 0-8.858 6.682-15.384 15.384-15.384 8.858 0 15.385 6.526 15.385 15.384" transform="translate(25 7) translate(32.77) matrix(1 0 0 -1 37.004 32.854)"/>
                                    </g>
                                </g>
                            </g>
                        </g>
                    </g>
                </g>
            </g>
        </g>
    </g>
</svg>
