<svg width="170" height="40" xmlns="http://www.w3.org/2000/svg" xmlns:xlink="http://www.w3.org/1999/xlink">
 <!-- Created with Method Draw - http://github.com/duopixel/Method-Draw/ -->

 <g>
  <title>background</title>
  <rect fill="#ededed" id="canvas_background" height="42" width="172" y="-1" x="-1"/>
  <g display="none" overflow="visible" y="0" x="0" height="100%" width="100%" id="canvasGrid">
   <rect fill="url(#gridpattern)" stroke-width="0" y="0" x="0" height="100%" width="100%"/>
  </g>
 </g>
 <g>
  <title>Layer 1</title>
  <defs>
   <path d="m0,0l170,0l0,40l-170,0l0,-40z" id="svg_7"/>
  </defs>
  <g id="svg_19">
   <g transform="matrix(1.384083160479591,0,0,1.384083160479591,0,0) " id="svg_9" fill-rule="evenodd" fill="none">
    <mask transform="translate(-140.88748168945312,0) translate(203.99998474121094,0) translate(0,196.74996948242188) " id="svg_6">
     <use id="svg_10" xlink:href="#svg_7"/>
    </mask>
    <use x="63.1125" y="196.74997" id="svg_11" xlink:href="#svg_7" fill="#FFF"/>
    <g id="svg_12" mask="url(#svg_6)">
     <g id="svg_13" fill-rule="nonzero" fill="#004A93">
      <path id="svg_14" d="m103.9045,221.49997l-3.959,0l2.104,-6.854l1.855,6.854zm-5.813,6.938l1.251,-4.188l5.083,0l1.25,4.188l4.209,0l-4.482,-15.875c-0.25,-1.042 -0.75,-1.375 -1.854,-1.375l-6.206,0l0,1.437l0.5,0c0.75,0 1.125,0.23 1.125,0.813c0,0.354 0,0.604 -0.375,1.458l-4.48,13.541m21.083,0.001l0,-15.981c0,-0.833 -0.5,-1.27 -1.354,-1.27l-3.854,0l0,1.437l0.25,0c0.75,0 1.125,0.313 1.125,0.98l0,14.832m10.77,0l0,-15.977c0,-0.833 -0.5,-1.27 -1.353,-1.27l-3.855,0l0,1.437l0.25,0c0.75,0 1.125,0.313 1.125,0.98l0,14.832"/>
      <g id="svg_15">
       <path id="svg_16" transform="translate(29.79199981689453,0) " d="m99.4255,212.70797c0,-1.146 -0.875,-1.812 -2.23,-1.812c-1.479,0 -2.229,0.667 -2.229,1.812c0,1.167 0.75,1.854 2.23,1.854c1.353,0 2.228,-0.687 2.228,-1.854m-0.125,15.73l0,-11.647c0,-0.813 -0.5,-1.271 -1.25,-1.271l-3.854,0l0,1.396l0.25,0c0.75,0 1,0.312 1,1.02l0,10.5m13.021,-6.27l0,2.584c-0.75,0.75 -1.604,1.167 -2.354,1.167s-1.125,-0.355 -1.125,-1.334c0,-1.062 0.25,-1.479 1.125,-1.812c0.625,-0.25 1.25,-0.417 2.354,-0.604m-5.458,-3.084l0.375,-0.146c1,-0.395 1.604,-0.541 2.354,-0.687c0.375,-0.042 0.875,-0.104 1.125,-0.104c1.25,0 1.604,0.416 1.604,1.541l0,0.313c-1.729,0.292 -2.229,0.375 -3.229,0.604c-0.5,0.125 -1,0.292 -1.48,0.5c-1.603,0.646 -2.353,1.875 -2.353,3.834c0,2.437 1,3.604 3.229,3.604c0.875,0 1.729,-0.209 2.354,-0.605c0.625,-0.291 0.875,-0.437 1.604,-1.125l0,0.396c0,0.813 0.375,1.188 1.125,1.188l3.73,0l0,-1.334l-0.126,0c-0.75,0 -1.125,-0.333 -1.125,-1l0,-6.312c0,-3.292 -1.125,-4.417 -4.333,-4.417c-1.125,0 -2.104,0.125 -3.104,0.354c-1,0.23 -1.48,0.417 -2.604,1m17.104,11.75l0,-8.75c0.875,-0.812 1.479,-1.124 2.354,-1.124s1.125,0.374 1.125,1.687l0,8.188l3.854,0l0,-8.813c0,-1.813 -0.25,-2.583 -0.75,-3.27c-0.625,-0.668 -1.354,-0.98 -2.479,-0.98c-1.48,0 -2.604,0.542 -4.333,2.042l0,-0.688c0,-0.812 -0.375,-1.208 -1.125,-1.208l-3.73,0l0,1.396l0.125,0c0.75,0 1.125,0.312 1.125,1.02l0,10.5"/>
       <g id="svg_17">
        <path id="svg_18" transform="translate(29.79199981689453,0) matrix(1,0,0,-1,33.64,29.867) " d="m104.8485,-196.14397l-5.65,0l5.51,7.77l0,2.684l-8.195,0c-0.99,0 -1.413,-0.424 -1.413,-1.412l0,-2.402l1.413,0l0,0.283c0,0.706 0.423,0.988 1.13,0.988l2.966,0l-5.65,-7.77l0,-2.683l9.888,0m21.898,0.847l0,14.55c0,1.131 -0.565,1.555 -1.554,1.555l-3.39,0l0,-1.554l0.424,0c0.565,0 0.847,-0.283 0.847,-0.99l0,-13.559l3.673,0l0,-0.002zm1.978,0l3.532,0l0,11.02c0,1.13 -0.565,1.553 -1.554,1.553l-1.979,0l0,-12.573l0.001,0zm-7.629,0l0,12.573l-1.977,0c-1.13,0 -1.554,-0.424 -1.554,-1.554l0,-11.019l3.531,0zm15.54,7.346c0,-6.78 -4.944,-11.867 -11.725,-11.867s-11.727,4.945 -11.727,11.867c0,6.781 4.945,11.867 11.726,11.867c6.78,0 11.725,-5.086 11.725,-11.867m2.26,0c0,8.052 -5.933,13.986 -13.985,13.986c-7.911,0 -13.986,-5.934 -13.986,-13.986s6.076,-13.986 13.987,-13.986c8.052,0 13.985,5.934 13.985,13.986"/>
       </g>
      </g>
     </g>
    </g>
   </g>
  </g>
 </g>
</svg>