<svg xmlns="http://www.w3.org/2000/svg" xmlns:xlink="http://www.w3.org/1999/xlink" width="170" height="40" viewBox="0 0 170 40">
    <defs>
        <path id="txblzwywea" d="M0 0H170V40H0z"/>
    </defs>
    <g fill="none" fill-rule="evenodd">
        <g>
            <g>
                <g>
                    <g>
                        <g transform="translate(-755 -754) translate(200 326) translate(0 157) translate(435 256) translate(120 15)">
                            <mask id="tug1e26ttb" fill="#fff">
                                <use xlink:href="#txblzwywea"/>
                            </mask>
                            <path fill="#DA322A" d="M27 8c8.284 0 15 6.716 15 15 0 8.284-6.716 15-15 15-8.282 0-15-6.716-15-15 0-8.284 6.718-15 15-15zm0 1.43c-7.497 0-13.572 6.075-13.572 13.57 0 7.493 6.075 13.57 13.572 13.57 7.495 0 13.57-6.077 13.57-13.57 0-7.495-6.075-13.57-13.57-13.57zm0 6.065c1.245 0 2.442.22 3.554.624.638.279 1.209.86 1.449 1.553.63-.145 1.277-.004 1.789.384.76.638 1.532 1.502 2.056 2.407.52.9.862 1.859 1.035 2.83.015.085.027.187.03.304.03.794-.367 1.585-1.11 2.013-.327.19-.687.286-1.043.297l-.178-.002-4.88-.013-.108.003c-.357.01-1.042.011-1.64.013h-.219v4.597h-1.47v-4.597h-.4l-.415-.002c-.42-.002-.82-.005-1.06-.011l-.094-.003-4.88.013-.177.002c-.356-.011-.714-.107-1.043-.297-.742-.428-1.141-1.219-1.108-2.013 0-.117.014-.22.027-.303.173-.972.517-1.93 1.04-2.831.52-.905 1.182-1.684 1.942-2.323.512-.376 1.226-.564 1.885-.45.183-.63.62-1.146 1.188-1.443.108-.06.208-.103.29-.134 1.108-.4 2.3-.618 3.54-.618zm56.774-.35l4.312 15.003h-5.54l-.708-2.464h-5.91l-.707 2.464h-5.54l4.308-15.004h9.785zm16.442.01c2.417 0 4.374 1.954 4.374 4.371 0 2.415-1.957 4.372-4.374 4.372h-4.828v6.25H89.85V15.154h10.366zm21.02-.01v2.463h-9.188v3.813h9.188v2.462h-9.188v6.265h-5.539V15.144h14.727zm12.926.004c2.07 0 3.749 1.68 3.749 3.75 0 2.07-1.679 3.749-3.75 3.749 2.031 0 3.684 1.612 3.75 3.626v3.872h-5.448v-3.63c.004-.039.004-.079.004-.12 0-1.357-1.105-2.461-2.462-2.461h-1.202v6.21l-5.629.003V15.149h10.988zm-79.124-.005l3.664 7.502 3.663-7.502h5.538v15.002h-5.538v-7.5l-3.663 7.5-3.664-7.5v7.5H49.5V15.144h5.538zm99.678 0v2.464h-9.188v3.813h9.188v2.462h-9.188v3.8h9.188v2.463H139.99V15.144h14.726zm-75.835 2.247l-2.247 7.831h4.497l-2.25-7.83zM27 16.967c-1.066 0-2.09.186-3.038.53-.033.012-.058.025-.078.04-.313.148-.53.464-.53.833 0 .156.04.303.108.432l.057.093 3.066 5.278c.073.156.232.264.413.264.151 0 .285-.072.368-.183l.043-.07 3.068-5.282c.11-.151.171-.338.171-.537 0-.383-.231-.71-.562-.848l-.033-.015c-.954-.347-1.98-.535-3.053-.535zm-5.933 2.282c-.006.005-.015.01-.021.017-.631.532-1.184 1.176-1.62 1.933-.433.75-.718 1.546-.86 2.355-.006.027-.01.052-.006.072-.023.28.113.56.373.71.102.059.212.092.323.099l.111-.002 4.965-.01c.139.01.282-.059.354-.188.059-.1.064-.217.026-.318l-.036-.073-2.474-4.306c-.062-.14-.166-.259-.309-.34-.268-.157-.59-.125-.826.051zm11.036-.052c-.105.062-.19.144-.252.24l-.055.1-2.472 4.307-.037.073c-.039.1-.034.217.024.318.06.104.162.168.271.185l.083.003 4.966.01.111.002c.111-.007.222-.04.325-.1.259-.148.395-.429.373-.709.001-.02.001-.045-.005-.072-.145-.81-.428-1.605-.863-2.355-.436-.757-.987-1.401-1.618-1.933l-.023-.017c-.233-.176-.557-.208-.828-.052zm97.902-2.324h-1.202v4.487h1.202c1.36 0 2.462-1.102 2.462-2.462 0-1.357-1.244-2.025-2.462-2.025zm-33.322-.002h-1.201v4.488h1.201c1.392 0 2.462-1.101 2.462-2.46 0-1.36-1.213-2.028-2.462-2.028z" mask="url(#tug1e26ttb)"/>
                        </g>
                    </g>
                </g>
            </g>
        </g>
    </g>
</svg>
