<svg xmlns="http://www.w3.org/2000/svg" xmlns:xlink="http://www.w3.org/1999/xlink" width="99" height="31" viewBox="0 0 99 31">
    <defs>
        <path id="q1p9e02j9a" d="M0 0H170V40H0z"/>
        <path id="ggqxmduhgc" d="M0 16.02c0 8.37 7.587 15.182 16.914 15.182 2.385.004 4.748-.455 6.958-1.352-1.796-1.22-2.956-3.153-2.956-5.33 0-3.69 3.335-6.68 7.45-6.68 1.812-.014 3.574.593 4.992 1.72.313-1.154.472-2.344.474-3.54C33.829 7.686 26.24.908 16.91.908 7.58.908 0 7.686 0 16.02z"/>
    </defs>
    <g fill="none" fill-rule="evenodd">
        <g>
            <g>
                <g>
                    <g>
                        <g transform="translate(-1225 -500) translate(200 326) translate(0 157) translate(870) translate(120 15)">
                            <mask id="4moh8yftkb" fill="#fff">
                                <use xlink:href="#q1p9e02j9a"/>
                            </mask>
                            <g mask="url(#4moh8yftkb)">
                                <g>
                                    <g transform="translate(35 1) translate(.567 .098)">
                                        <mask id="0bo04ebp5d" fill="#fff">
                                            <use xlink:href="#ggqxmduhgc"/>
                                        </mask>
                                        <path fill="#095B95" d="M0 31.202L33.829 31.202 33.829 0.908 0 0.908z" mask="url(#0bo04ebp5d)"/>
                                        <path fill="#095B95" d="M32.966 16.056c0 8.866-7.19 16.053-16.055 16.052C8.044 32.106.858 24.918.859 16.052.859 7.187 8.046.002 16.91 0c8.865-.002 16.054 7.184 16.055 16.05v.006z" mask="url(#0bo04ebp5d)"/>
                                        <path fill="#095B95" d="M32.939 16.056c0 8.848-7.173 16.02-16.02 16.02-8.849 0-16.021-7.172-16.021-16.02C.898 7.21 8.066.039 16.91.036c8.849-.001 16.024 7.17 16.028 16.02" mask="url(#0bo04ebp5d)"/>
                                        <path fill="#095B96" d="M32.912 16.056c0 8.835-7.163 15.997-15.998 15.997C8.08 32.053.917 24.89.917 16.056.917 7.222 8.077.06 16.911.059c8.835-.002 15.999 7.16 16 15.995v.002z" mask="url(#0bo04ebp5d)"/>
                                        <path fill="#065C97" d="M32.88 16.056c0 8.818-7.15 15.966-15.968 15.965C8.093 32.02.946 24.87.947 16.05.947 7.236 8.094.09 16.91.088c8.818-.001 15.968 7.147 15.97 15.966v.003z" mask="url(#0bo04ebp5d)"/>
                                        <path fill="#0C5C97" d="M32.851 16.056c-.002 8.802-7.138 15.936-15.94 15.934C8.108 31.99.974 24.852.976 16.05.978 7.25 8.111.117 16.911.115 25.713.114 32.849 7.248 32.85 16.05v.006z" mask="url(#0bo04ebp5d)"/>
                                        <path fill="#0C5C98" d="M32.824 16.056c-.001 8.786-7.125 15.908-15.912 15.907-8.786-.001-15.908-7.125-15.907-15.911C1.006 7.268 8.126.147 16.911.145c8.787-.002 15.911 7.12 15.913 15.907v.004z" mask="url(#0bo04ebp5d)"/>
                                        <path fill="#095D98" d="M32.794 16.056c.001 8.771-7.108 15.882-15.88 15.884-8.77 0-15.882-7.109-15.883-15.88C1.03 7.288 8.139.177 16.91.176c8.768-.004 15.88 7.101 15.883 15.87v.01z" mask="url(#0bo04ebp5d)"/>
                                        <path fill="#095D99" d="M32.765 16.056c0 8.754-7.097 15.851-15.852 15.851-8.754 0-15.851-7.097-15.851-15.851C1.062 7.302 8.157.206 16.91.204c8.754-.001 15.852 7.094 15.854 15.849v.003z" mask="url(#0bo04ebp5d)"/>
                                        <path fill="#095D99" d="M32.736 16.056c0 8.74-7.085 15.825-15.825 15.825-8.74 0-15.826-7.085-15.826-15.825C1.085 7.316 8.171.23 16.911.23s15.825 7.085 15.825 15.825" mask="url(#0bo04ebp5d)"/>
                                        <path fill="#0C5E9A" d="M32.708 16.056c.001 8.723-7.07 15.796-15.793 15.797-8.723 0-15.795-7.07-15.796-15.793C1.118 7.337 8.188.264 16.91.263c8.723-.001 15.796 7.07 15.797 15.793" mask="url(#0bo04ebp5d)"/>
                                        <path fill="#0C5E9A" d="M32.68 16.056c0 8.707-7.058 15.767-15.766 15.767-8.707 0-15.766-7.058-15.767-15.765C1.147 7.35 8.204.292 16.91.29 25.618.29 32.678 7.346 32.68 16.054v.002z" mask="url(#0bo04ebp5d)"/>
                                        <path fill="#085F9B" d="M32.65 16.056c0 8.691-7.045 15.737-15.737 15.737-8.691 0-15.737-7.046-15.737-15.737C1.176 7.366 8.22.32 16.911.318c8.691 0 15.738 7.046 15.74 15.738" mask="url(#0bo04ebp5d)"/>
                                        <path fill="#085F9C" d="M32.625 16.056c0 8.676-7.033 15.71-15.71 15.71-8.676 0-15.71-7.034-15.71-15.71C1.206 7.38 8.237.349 16.912.346c8.676-.002 15.712 7.03 15.714 15.707v.003z" mask="url(#0bo04ebp5d)"/>
                                        <path fill="#0E5F9C" d="M32.593 16.056c0 8.66-7.02 15.68-15.68 15.681-8.66 0-15.68-7.02-15.681-15.68C1.232 7.398 8.25.378 16.91.378c8.66-.002 15.68 7.016 15.682 15.676v.003z" mask="url(#0bo04ebp5d)"/>
                                        <path fill="#0C609D" d="M32.563 16.056c0 8.644-7.008 15.65-15.652 15.65-8.644 0-15.651-7.008-15.65-15.652C1.26 7.41 8.266.404 16.91.404c8.644-.001 15.651 7.006 15.652 15.65v.002z" mask="url(#0bo04ebp5d)"/>
                                        <path fill="#0C609D" d="M32.535 16.056c0 8.627-6.993 15.621-15.62 15.622-8.628 0-15.622-6.993-15.623-15.62C1.292 7.43 8.284.438 16.911.436c8.625-.004 15.62 6.986 15.624 15.612v.008z" mask="url(#0bo04ebp5d)"/>
                                        <path fill="#0C609E" d="M32.503 16.056c0 8.61-6.982 15.59-15.593 15.59-8.611-.002-15.591-6.983-15.59-15.594C1.32 7.442 8.3.462 16.91.462c8.612 0 15.593 6.98 15.593 15.59v.004z" mask="url(#0bo04ebp5d)"/>
                                        <path fill="#09619E" d="M32.479 16.056c0 8.596-6.969 15.564-15.565 15.564S1.35 24.652 1.35 16.056C1.35 7.46 8.316.494 16.91.49 25.506.488 32.477 7.453 32.48 16.048v.008z" mask="url(#0bo04ebp5d)"/>
                                        <path fill="#0F619F" d="M32.448 16.056c0 8.578-6.954 15.532-15.533 15.532-8.578 0-15.532-6.954-15.532-15.532C1.383 7.48 8.334.526 16.911.524 25.489.52 32.445 7.473 32.448 16.05v.005z" mask="url(#0bo04ebp5d)"/>
                                        <path fill="#0F619F" d="M32.418 16.056c-.002 8.563-6.945 15.503-15.508 15.5-8.563-.002-15.503-6.945-15.501-15.508C1.41 7.488 8.35.548 16.91.547c8.561-.003 15.505 6.936 15.507 15.498v.01z" mask="url(#0bo04ebp5d)"/>
                                        <path fill="#0B62A0" d="M32.39 16.056c-.002 8.547-6.932 15.475-15.48 15.473-8.547-.001-15.475-6.932-15.473-15.48C1.439 7.506 8.365.579 16.911.577c8.548 0 15.478 6.93 15.479 15.478v.002z" mask="url(#0bo04ebp5d)"/>
                                        <path fill="#0B62A2" d="M32.362 16.056c0 8.532-6.917 15.449-15.45 15.449-8.532 0-15.449-6.917-15.449-15.45C1.463 7.526 8.38.609 16.911.608 25.443.606 32.36 7.52 32.36 16.054v.002z" mask="url(#0bo04ebp5d)"/>
                                        <path fill="#0B62A2" d="M32.332 16.056c0 8.515-6.905 15.418-15.42 15.417-8.516-.001-15.418-6.906-15.417-15.421C1.495 7.538 8.397.637 16.91.635c8.515-.002 15.42 6.9 15.421 15.416v.005z" mask="url(#0bo04ebp5d)"/>
                                        <path fill="#0D63A3" d="M32.304 16.056c0 8.5-6.892 15.39-15.391 15.39-8.5-.001-15.39-6.892-15.39-15.392 0-8.499 6.89-15.388 15.388-15.39C25.41.662 32.3 7.55 32.304 16.05v.006z" mask="url(#0bo04ebp5d)"/>
                                        <path fill="#0D63A3" d="M32.274 16.056c-.002 8.483-6.881 15.358-15.364 15.356-8.484-.002-15.359-6.88-15.357-15.364C1.555 7.568 8.43.693 16.911.692c8.482-.003 15.36 6.872 15.363 15.355v.009z" mask="url(#0bo04ebp5d)"/>
                                        <path fill="#0D63A3" d="M32.247 16.056c0 8.47-6.866 15.336-15.336 15.336S1.574 24.526 1.574 16.056 8.44.719 16.91.719c8.47 0 15.336 6.867 15.336 15.337" mask="url(#0bo04ebp5d)"/>
                                        <path fill="#0964A3" d="M32.216 16.056c-.001 8.451-6.853 15.301-15.304 15.3-8.452 0-15.302-6.853-15.301-15.304.001-8.45 6.85-15.3 15.3-15.3C25.36.75 32.214 7.6 32.216 16.05v.005z" mask="url(#0bo04ebp5d)"/>
                                        <path fill="#0964A4" d="M32.189 16.056c0 8.436-6.838 15.275-15.275 15.276-8.436 0-15.275-6.838-15.276-15.274C1.638 7.622 8.475.783 16.911.78c8.436 0 15.277 6.838 15.278 15.275" mask="url(#0bo04ebp5d)"/>
                                        <path fill="#0C65A4" d="M32.16 16.056c0 8.42-6.826 15.247-15.247 15.248-8.42 0-15.247-6.826-15.247-15.246C1.665 7.638 8.49.81 16.91.81c8.42-.002 15.247 6.823 15.248 15.243v.003z" mask="url(#0bo04ebp5d)"/>
                                        <path fill="#0C65A5" d="M32.131 16.056c0 8.404-6.812 15.218-15.217 15.218-8.404 0-15.218-6.812-15.218-15.216S8.506.84 16.91.839c8.404-.002 15.218 6.81 15.22 15.215v.002z" mask="url(#0bo04ebp5d)"/>
                                        <path fill="#0C65A5" d="M32.103 16.056c0 8.388-6.8 15.188-15.189 15.188-8.388 0-15.188-6.8-15.188-15.188C1.726 7.669 8.524.87 16.911.867c8.389 0 15.19 6.8 15.192 15.189" mask="url(#0bo04ebp5d)"/>
                                        <path fill="#0966A6" d="M32.071 16.056c0 8.372-6.787 15.158-15.16 15.158-8.372 0-15.158-6.788-15.157-15.16C1.754 7.683 8.54.897 16.91.896c8.37-.003 15.158 6.78 15.16 15.15v.01z" mask="url(#0bo04ebp5d)"/>
                                        <path fill="#0F66A7" d="M32.043 16.056c-.001 8.356-6.777 15.128-15.132 15.126-8.356-.001-15.129-6.776-15.127-15.132C1.785 7.696 8.557.925 16.91.923 25.265.92 32.04 7.691 32.043 16.046v.01z" mask="url(#0bo04ebp5d)"/>
                                        <path fill="#0F66A7" d="M32.015 16.056c0 8.34-6.762 15.1-15.102 15.1s-15.101-6.762-15.1-15.102C1.812 7.715 8.571.955 16.91.954c8.34-.002 15.102 6.758 15.104 15.098v.004z" mask="url(#0bo04ebp5d)"/>
                                        <path fill="#0C67A9" d="M31.985 16.056c0 8.323-6.749 15.07-15.072 15.07-8.324 0-15.071-6.749-15.07-15.072C1.842 7.732 8.588.985 16.91.984c8.321-.004 15.07 6.74 15.074 15.062v.01z" mask="url(#0bo04ebp5d)"/>
                                        <path fill="#0C67A9" d="M31.954 16.056c0 8.308-6.735 15.043-15.043 15.043-8.309 0-15.044-6.735-15.044-15.043 0-8.309 6.735-15.044 15.044-15.044 8.308 0 15.043 6.735 15.043 15.044" mask="url(#0bo04ebp5d)"/>
                                        <path fill="#0C67AA" d="M31.928 16.056c0 8.293-6.722 15.017-15.015 15.017-8.294 0-15.017-6.722-15.018-15.015 0-8.294 6.722-15.017 15.016-15.018 8.292 0 15.016 6.721 15.017 15.014v.002z" mask="url(#0bo04ebp5d)"/>
                                        <path fill="#0868AA" d="M31.9 16.056c0 8.276-6.71 14.986-14.987 14.986-8.276 0-14.986-6.71-14.986-14.986S8.635 1.07 16.911 1.07c8.277 0 14.987 6.709 14.989 14.986" mask="url(#0bo04ebp5d)"/>
                                        <path fill="#0E68AB" d="M31.87 16.056c0 8.26-6.697 14.956-14.958 14.956-8.26 0-14.956-6.696-14.956-14.956S8.65 1.1 16.91 1.099c8.26 0 14.957 6.696 14.958 14.957" mask="url(#0bo04ebp5d)"/>
                                        <path fill="#0E68AB" d="M31.842 16.056c-.001 8.244-6.686 14.927-14.93 14.926-8.245 0-14.928-6.685-14.927-14.93.001-8.243 6.683-14.925 14.926-14.927 8.244-.001 14.93 6.681 14.93 14.926v.005z" mask="url(#0bo04ebp5d)"/>
                                        <path fill="#0B69AC" d="M31.816 16.056c0 8.23-6.672 14.9-14.902 14.9s-14.9-6.67-14.9-14.9c0-8.228 6.668-14.9 14.897-14.901C25.14 1.152 31.813 7.82 31.816 16.05v.006z" mask="url(#0bo04ebp5d)"/>
                                        <path fill="#0B69AC" d="M31.785 16.056c0 8.213-6.66 14.87-14.872 14.869-8.213-.001-14.87-6.66-14.87-14.873C2.046 7.842 8.7 1.185 16.912 1.183c8.213-.002 14.873 6.655 14.874 14.869v.004z" mask="url(#0bo04ebp5d)"/>
                                        <path fill="#0B69AD" d="M31.759 16.056c0 8.197-6.644 14.843-14.842 14.843-8.197 0-14.843-6.644-14.843-14.841 0-8.196 6.641-14.84 14.837-14.844 8.196-.004 14.844 6.638 14.848 14.835v.007z" mask="url(#0bo04ebp5d)"/>
                                        <path fill="#0E6AAE" d="M31.724 16.056c-.001 8.18-6.634 14.811-14.814 14.81-8.181-.001-14.812-6.634-14.81-14.814 0-8.18 6.631-14.81 14.81-14.81 8.18-.003 14.812 6.626 14.814 14.805v.009z" mask="url(#0bo04ebp5d)"/>
                                        <path fill="#0E6AAE" d="M31.696 16.056c0 8.165-6.62 14.783-14.784 14.783-8.165 0-14.784-6.62-14.783-14.785C2.129 7.89 8.747 1.272 16.91 1.27c8.162-.003 14.782 6.611 14.785 14.774v.01z" mask="url(#0bo04ebp5d)"/>
                                        <path fill="#0E6AAF" d="M31.668 16.056c0 8.146-6.604 14.75-14.75 14.75-8.147 0-14.751-6.604-14.751-14.75 0-8.144 6.6-14.747 14.744-14.75 8.146-.005 14.753 6.596 14.757 14.743v.007z" mask="url(#0bo04ebp5d)"/>
                                        <path fill="#0A6BAF" d="M31.639 16.056c0 8.132-6.593 14.725-14.726 14.725-8.132 0-14.725-6.593-14.725-14.725S8.78 1.332 16.911 1.33c8.13-.003 14.725 6.586 14.728 14.717v.009z" mask="url(#0bo04ebp5d)"/>
                                        <path fill="#0A6BB0" d="M31.61 16.056c0 8.116-6.58 14.695-14.697 14.695-8.116 0-14.695-6.58-14.694-14.697 0-8.115 6.577-14.693 14.692-14.695 8.115-.003 14.697 6.574 14.7 14.69v.007z" mask="url(#0bo04ebp5d)"/>
                                        <path fill="#116BB0" d="M31.582 16.056c0 8.101-6.567 14.668-14.669 14.668-8.1 0-14.668-6.567-14.668-14.668 0-8.1 6.565-14.667 14.666-14.669 8.1-.001 14.67 6.565 14.671 14.666v.003z" mask="url(#0bo04ebp5d)"/>
                                        <path fill="#0D6DB1" d="M31.553 16.056c0 8.085-6.556 14.64-14.641 14.639-8.086 0-14.64-6.556-14.64-14.641S8.826 1.416 16.911 1.414c8.085-.001 14.64 6.552 14.642 14.637v.005z" mask="url(#0bo04ebp5d)"/>
                                        <path fill="#0D6DB1" d="M31.524 16.056c0 8.069-6.542 14.61-14.61 14.609-8.07 0-14.61-6.542-14.61-14.611.001-8.067 6.54-14.607 14.607-14.61 8.069 0 14.612 6.54 14.613 14.609v.003z" mask="url(#0bo04ebp5d)"/>
                                        <path fill="#0D6DB2" d="M31.497 16.056c0 8.053-6.53 14.582-14.584 14.581-8.053 0-14.582-6.53-14.581-14.583 0-8.052 6.527-14.58 14.579-14.582C24.965 1.47 31.495 8 31.497 16.052v.004z" mask="url(#0bo04ebp5d)"/>
                                        <path fill="#0B6DB2" d="M31.466 16.056c0 8.038-6.517 14.555-14.555 14.555-8.04 0-14.556-6.517-14.556-14.555C2.355 8.017 8.872 1.5 16.911 1.5c8.038 0 14.555 6.517 14.555 14.556" mask="url(#0bo04ebp5d)"/>
                                        <path fill="#0B6DB3" d="M31.437 16.056c0 8.021-6.503 14.523-14.524 14.523-8.022 0-14.524-6.504-14.524-14.525C2.39 8.034 8.891 1.532 16.911 1.53c8.021-.001 14.525 6.5 14.526 14.523v.002z" mask="url(#0bo04ebp5d)"/>
                                        <path fill="#116DB3" d="M31.41 16.056c0 8.006-6.49 14.495-14.497 14.494-8.005 0-14.495-6.49-14.494-14.496C2.419 8.05 8.907 1.56 16.91 1.559c8.006-.002 14.497 6.488 14.5 14.494v.003z" mask="url(#0bo04ebp5d)"/>
                                        <path fill="#0E6EB4" d="M31.38 16.056c0 7.99-6.476 14.466-14.466 14.467-7.99 0-14.466-6.476-14.467-14.465 0-7.99 6.475-14.466 14.464-14.468 7.99 0 14.467 6.476 14.469 14.466" mask="url(#0bo04ebp5d)"/>
                                        <path fill="#0E6EB5" d="M31.35 16.056c0 7.973-6.465 14.436-14.438 14.435-7.974-.001-14.437-6.466-14.436-14.44.001-7.97 6.463-14.433 14.435-14.434 7.972-.002 14.437 6.459 14.44 14.432v.007z" mask="url(#0bo04ebp5d)"/>
                                        <path fill="#0E6EB5" d="M31.32 16.056c0 7.957-6.451 14.407-14.408 14.407-7.958-.001-14.408-6.452-14.407-14.41 0-7.955 6.45-14.405 14.406-14.406 7.956-.002 14.408 6.447 14.41 14.404v.005z" mask="url(#0bo04ebp5d)"/>
                                        <path fill="#106FB6" d="M31.292 16.056c0 7.94-6.439 14.378-14.38 14.377-7.94 0-14.378-6.438-14.377-14.38 0-7.939 6.436-14.375 14.376-14.377 7.941 0 14.38 6.436 14.381 14.378v.002z" mask="url(#0bo04ebp5d)"/>
                                        <path fill="#106FB7" d="M31.265 16.056c-.001 7.926-6.428 14.35-14.353 14.349-7.926-.001-14.35-6.427-14.35-14.353.001-7.924 6.425-14.348 14.349-14.35 7.925-.001 14.351 6.422 14.354 14.347v.007z" mask="url(#0bo04ebp5d)"/>
                                        <path fill="#0D70B7" d="M31.233 16.056c-.001 7.908-6.414 14.318-14.322 14.317C9 30.37 2.592 23.959 2.594 16.05 2.595 8.144 9.004 1.735 16.91 1.733c7.908-.002 14.32 6.408 14.322 14.317v.006z" mask="url(#0bo04ebp5d)"/>
                                        <path fill="#0D70B8" d="M31.206 16.056c0 7.893-6.4 14.29-14.293 14.29-7.892 0-14.29-6.4-14.29-14.292 0-7.891 6.396-14.289 14.288-14.29 7.891-.004 14.292 6.391 14.295 14.283v.009z" mask="url(#0bo04ebp5d)"/>
                                        <path fill="#1072B9" d="M31.178 16.056c0 7.876-6.386 14.262-14.263 14.262-7.876 0-14.262-6.386-14.262-14.262 0-7.875 6.383-14.26 14.258-14.262 7.876-.003 14.264 6.38 14.267 14.257v.005z" mask="url(#0bo04ebp5d)"/>
                                        <path fill="#0C73BA" d="M31.147 16.056c0 7.86-6.374 14.233-14.235 14.232C9.05 30.287 2.679 23.913 2.68 16.052c0-7.86 6.371-14.23 14.23-14.232 7.861-.002 14.235 6.368 14.237 14.229v.007z" mask="url(#0bo04ebp5d)"/>
                                        <path fill="#0C73BA" d="M31.12 16.056c-.003 7.845-6.364 14.202-14.21 14.2-7.844-.003-14.202-6.365-14.2-14.21.004-7.841 6.36-14.197 14.2-14.2 7.846-.002 14.207 6.355 14.21 14.2v.01z" mask="url(#0bo04ebp5d)"/>
                                        <path fill="#0C73BA" d="M31.006 16.056c0 7.783-6.309 14.092-14.092 14.093-7.783 0-14.092-6.308-14.093-14.091 0-7.782 6.307-14.092 14.09-14.094 7.782-.002 14.093 6.305 14.095 14.088v.004z" mask="url(#0bo04ebp5d)"/>
                                        <path fill="#0C73BA" d="M30.891 16.056c0 7.72-6.259 13.977-13.978 13.977-7.72 0-13.978-6.26-13.977-13.98 0-7.718 6.256-13.975 13.975-13.976 7.72-.002 13.979 6.255 13.98 13.975v.004z" mask="url(#0bo04ebp5d)"/>
                                        <path fill="#0C73BA" d="M30.782 16.056c-.002 7.656-6.21 13.862-13.867 13.86-7.656-.001-13.862-6.21-13.86-13.866C3.056 8.397 9.258 2.193 16.91 2.19c7.658-.004 13.868 6.203 13.871 13.86v.006z" mask="url(#0bo04ebp5d)"/>
                                        <path fill="#0C73BA" d="M30.666 16.056c.001 7.595-6.154 13.753-13.75 13.755-7.595.002-13.753-6.154-13.755-13.75C3.16 8.467 9.315 2.309 16.911 2.307c7.595-.001 13.753 6.155 13.755 13.75" mask="url(#0bo04ebp5d)"/>
                                        <path fill="#0C73BA" d="M30.552 16.056c0 7.532-6.107 13.637-13.639 13.637-7.532 0-13.637-6.107-13.637-13.64C3.277 8.524 9.38 2.42 16.911 2.418c7.532-.002 13.64 6.103 13.641 13.636v.003z" mask="url(#0bo04ebp5d)"/>
                                        <path fill="#0C73BA" d="M30.44 16.056c.002 7.47-6.053 13.527-13.523 13.528-7.47.002-13.527-6.052-13.528-13.522C3.387 8.592 9.44 2.535 16.91 2.533c7.469-.003 13.526 6.049 13.53 13.518v.005z" mask="url(#0bo04ebp5d)"/>
                                        <path fill="#0C73BA" d="M30.323 16.056c0 7.406-6.004 13.41-13.41 13.41-7.407 0-13.41-6.004-13.41-13.41 0-7.406 6.002-13.41 13.408-13.41 7.406-.001 13.411 6.003 13.412 13.41" mask="url(#0bo04ebp5d)"/>
                                        <path fill="#0C73BA" d="M30.21 16.056c0 7.343-5.953 13.296-13.297 13.296-7.343 0-13.296-5.953-13.296-13.296 0-7.342 5.951-13.295 13.294-13.296 7.343-.002 13.297 5.95 13.299 13.293v.003z" mask="url(#0bo04ebp5d)"/>
                                        <path fill="#0C73BA" d="M30.098 16.056c-.003 7.28-5.907 13.18-13.187 13.178C9.63 29.23 3.73 23.327 3.733 16.046c.002-7.277 5.9-13.175 13.178-13.178 7.279-.004 13.183 5.893 13.187 13.172v.016z" mask="url(#0bo04ebp5d)"/>
                                        <path fill="#0C73BA" d="M29.983 16.056c0 7.218-5.851 13.07-13.07 13.07-7.218 0-13.069-5.852-13.069-13.07 0-7.217 5.85-13.068 13.067-13.07 7.218-.001 13.07 5.849 13.072 13.067v.003z" mask="url(#0bo04ebp5d)"/>
                                        <path fill="#0C73BA" d="M29.87 16.056c0 7.155-5.802 12.955-12.957 12.955-7.156 0-12.956-5.802-12.956-12.957 0-7.154 5.8-12.954 12.954-12.955 7.156 0 12.958 5.8 12.959 12.957" mask="url(#0bo04ebp5d)"/>
                                        <path fill="#0C73BA" d="M29.755 16.056c0 7.093-5.749 12.843-12.841 12.844C9.82 28.9 4.07 23.15 4.07 16.058c0-7.093 5.748-12.843 12.84-12.844 7.093 0 12.844 5.749 12.845 12.842" mask="url(#0bo04ebp5d)"/>
                                        <path fill="#0C73BA" d="M29.641 16.056c-.002 7.029-5.701 12.726-12.73 12.724-7.03-.001-12.727-5.7-12.725-12.73C4.188 9.023 9.884 3.327 16.91 3.325c7.029-.001 12.728 5.696 12.73 12.725v.006z" mask="url(#0bo04ebp5d)"/>
                                        <path fill="#0C73BA" d="M29.528 16.056c0 6.967-5.65 12.614-12.616 12.614-6.968 0-12.615-5.649-12.615-12.616 0-6.966 5.647-12.613 12.614-12.614 6.965-.003 12.614 5.641 12.617 12.607v.009z" mask="url(#0bo04ebp5d)"/>
                                        <path fill="#0C73BA" d="M29.414 16.056c0 6.905-5.598 12.504-12.503 12.504-6.906 0-12.504-5.599-12.504-12.504 0-6.906 5.598-12.504 12.504-12.504 6.905 0 12.503 5.598 12.503 12.504" mask="url(#0bo04ebp5d)"/>
                                        <path fill="#0C73BA" d="M29.302 16.056c0 6.841-5.545 12.388-12.387 12.388-6.841 0-12.388-5.545-12.388-12.386 0-6.84 5.543-12.387 12.384-12.389 6.84-.003 12.388 5.54 12.391 12.382v.005z" mask="url(#0bo04ebp5d)"/>
                                        <path fill="#0C73BA" d="M29.188 16.056c0 6.779-5.496 12.274-12.275 12.274-6.778 0-12.274-5.495-12.274-12.274 0-6.778 5.494-12.273 12.272-12.275 6.777-.002 12.274 5.49 12.277 12.268v.007z" mask="url(#0bo04ebp5d)"/>
                                        <path fill="#0C73BB" d="M29.074 16.056c0 6.717-5.445 12.162-12.161 12.162-6.717 0-12.162-5.445-12.162-12.162 0-6.716 5.444-12.161 12.16-12.162 6.715-.002 12.161 5.44 12.163 12.156v.006z" mask="url(#0bo04ebp5d)"/>
                                        <path fill="#0C73BB" d="M28.961 16.056c0 6.653-5.393 12.046-12.047 12.046-6.653 0-12.046-5.393-12.046-12.046 0-6.652 5.39-12.045 12.043-12.047 6.654-.001 12.05 5.392 12.05 12.047" mask="url(#0bo04ebp5d)"/>
                                        <path fill="#0C73BB" d="M28.848 16.056c0 6.59-5.343 11.934-11.935 11.934-6.59 0-11.934-5.343-11.934-11.934 0-6.59 5.342-11.933 11.932-11.935 6.59-.003 11.934 5.336 11.937 11.926v.009z" mask="url(#0bo04ebp5d)"/>
                                        <path fill="#0C73BB" d="M28.73 16.056c0 6.528-5.291 11.82-11.82 11.82-6.528 0-11.82-5.292-11.82-11.82 0-6.528 5.292-11.82 11.82-11.82 6.529 0 11.82 5.292 11.82 11.82" mask="url(#0bo04ebp5d)"/>
                                        <path fill="#0C73BB" d="M28.618 16.056c-.001 6.464-5.243 11.703-11.707 11.702-6.465-.002-11.704-5.244-11.702-11.708.001-6.462 5.24-11.7 11.702-11.702 6.465 0 11.707 5.24 11.707 11.706v.002z" mask="url(#0bo04ebp5d)"/>
                                        <path fill="#0C73BB" d="M28.504 16.056c-.002 6.402-5.194 11.59-11.595 11.587-6.402-.002-11.59-5.193-11.588-11.595.002-6.4 5.19-11.587 11.59-11.588 6.4-.003 11.59 5.182 11.593 11.582v.014z" mask="url(#0bo04ebp5d)"/>
                                        <path fill="#0C73BB" d="M28.392 16.056c0 6.34-5.14 11.478-11.48 11.478-6.34 0-11.48-5.14-11.479-11.48 0-6.339 5.139-11.477 11.478-11.478C23.25 4.574 28.39 9.712 28.39 16.05v.005z" mask="url(#0bo04ebp5d)"/>
                                        <path fill="#0C73BB" d="M28.278 16.056c0 6.276-5.089 11.364-11.365 11.364-6.277 0-11.365-5.09-11.364-11.366 0-6.275 5.086-11.362 11.362-11.364 6.276-.002 11.365 5.084 11.367 11.36v.006z" mask="url(#0bo04ebp5d)"/>
                                        <path fill="#0C73BB" d="M28.165 16.056c-.001 6.213-5.039 11.25-11.252 11.248-6.214 0-11.25-5.039-11.25-11.252C5.666 9.84 10.7 4.805 16.912 4.803c6.214 0 11.253 5.036 11.254 11.25v.003z" mask="url(#0bo04ebp5d)"/>
                                        <path fill="#0C73BB" d="M28.047 16.056c0 6.15-4.986 11.136-11.136 11.136-6.15 0-11.137-4.986-11.137-11.136 0-6.15 4.986-11.137 11.137-11.137 6.15 0 11.136 4.986 11.136 11.137" mask="url(#0bo04ebp5d)"/>
                                        <path fill="#0C73BB" d="M27.936 16.056c0 6.088-4.936 11.023-11.024 11.023-6.089 0-11.024-4.937-11.023-11.025 0-6.087 4.934-11.022 11.022-11.023 6.088-.001 11.024 4.933 11.025 11.022v.003z" mask="url(#0bo04ebp5d)"/>
                                        <path fill="#0874BB" d="M27.826 16.056c0 6.026-4.886 10.91-10.912 10.91-6.027 0-10.912-4.886-10.911-10.912 0-6.025 4.883-10.909 10.908-10.91 6.026-.003 10.913 4.88 10.915 10.907v.005z" mask="url(#0bo04ebp5d)"/>
                                        <path fill="#0874BB" d="M27.71 16.056c0 5.963-4.835 10.797-10.798 10.796-5.964 0-10.797-4.835-10.797-10.798 0-5.962 4.834-10.795 10.796-10.797 5.963 0 10.798 4.833 10.799 10.796v.003z" mask="url(#0bo04ebp5d)"/>
                                        <path fill="#0874BB" d="M27.596 16.056c-.002 5.899-4.785 10.679-10.684 10.677-5.9-.002-10.68-4.786-10.678-10.685.003-5.896 4.781-10.674 10.677-10.677 5.9 0 10.684 4.784 10.685 10.685" mask="url(#0bo04ebp5d)"/>
                                        <path fill="#0874BB" d="M27.481 16.056c0 5.837-4.731 10.57-10.568 10.57-5.838 0-10.57-4.73-10.571-10.568 0-5.838 4.731-10.57 10.569-10.571 5.837 0 10.57 4.731 10.57 10.569" mask="url(#0bo04ebp5d)"/>
                                        <path fill="#0874BB" d="M27.37 16.056c-.004 5.772-4.687 10.45-10.46 10.445-5.772-.003-10.449-4.686-10.445-10.459C6.469 10.275 11.143 5.6 16.91 5.596c5.772-.003 10.455 4.673 10.459 10.446v.014z" mask="url(#0bo04ebp5d)"/>
                                        <path fill="#0874BC" d="M27.255 16.056c-.001 5.711-4.631 10.34-10.342 10.34-5.712 0-10.341-4.631-10.34-10.342 0-5.71 4.628-10.339 10.338-10.34 5.711-.001 10.343 4.628 10.344 10.34v.002z" mask="url(#0bo04ebp5d)"/>
                                        <path fill="#0874BC" d="M27.142 16.056c0 5.65-4.579 10.23-10.228 10.23-5.65.001-10.23-4.579-10.231-10.228 0-5.65 4.578-10.23 10.228-10.231 5.648-.003 10.229 4.574 10.231 10.222v.007z" mask="url(#0bo04ebp5d)"/>
                                        <path fill="#0874BC" d="M27.028 16.056c0 5.586-4.53 10.115-10.116 10.114-5.587 0-10.115-4.53-10.115-10.116 0-5.586 4.528-10.114 10.114-10.115 5.586-.001 10.115 4.526 10.117 10.112v.005z" mask="url(#0bo04ebp5d)"/>
                                        <path fill="#0475BC" d="M26.914 16.056c0 5.523-4.479 10-10.002 10-5.524 0-10.001-4.479-10-10.002 0-5.523 4.476-10 9.999-10 5.521-.003 10 4.471 10.003 9.993v.009z" mask="url(#0bo04ebp5d)"/>
                                        <path fill="#0475BC" d="M26.8 16.056c-.002 5.46-4.43 9.886-9.89 9.885-5.46-.001-9.885-4.429-9.884-9.89 0-5.458 4.426-9.883 9.885-9.884 5.46-.001 9.887 4.424 9.888 9.885v.004z" mask="url(#0bo04ebp5d)"/>
                                        <path fill="#0475BC" d="M26.687 16.056c.003 5.398-4.37 9.777-9.769 9.78-5.398.003-9.777-4.37-9.78-9.769-.003-5.398 4.37-9.777 9.769-9.78h.004c5.395-.004 9.772 4.366 9.776 9.76v.009z" mask="url(#0bo04ebp5d)"/>
                                        <path fill="#0475BC" d="M26.574 16.056c0 5.335-4.325 9.66-9.66 9.66-5.336 0-9.66-4.325-9.66-9.66 0-5.334 4.323-9.659 9.657-9.66 5.333-.004 9.659 4.316 9.663 9.649v.01z" mask="url(#0bo04ebp5d)"/>
                                        <path fill="#0475BC" d="M26.46 16.056c0 5.273-4.274 9.548-9.548 9.548-5.273 0-9.547-4.275-9.547-9.548s4.273-9.547 9.546-9.548c5.273-.001 9.548 4.273 9.55 9.546v.002z" mask="url(#0bo04ebp5d)"/>
                                        <path fill="#0475BD" d="M26.345 16.056c0 5.21-4.223 9.432-9.432 9.432-5.21 0-9.433-4.223-9.433-9.432 0-5.209 4.222-9.432 9.43-9.433 5.209-.002 9.433 4.219 9.435 9.427v.006z" mask="url(#0bo04ebp5d)"/>
                                        <path fill="#0076BD" d="M26.233 16.056c0 5.147-4.172 9.32-9.319 9.32-5.146 0-9.32-4.171-9.32-9.318 0-5.146 4.17-9.319 9.317-9.32 5.146-.002 9.32 4.169 9.322 9.316v.002z" mask="url(#0bo04ebp5d)"/>
                                        <path fill="#0076BD" d="M26.117 16.056c-.002 5.083-4.124 9.202-9.207 9.2-5.084 0-9.203-4.123-9.201-9.206.001-5.081 4.12-9.2 9.202-9.201 5.082-.002 9.204 4.117 9.206 9.2v.007z" mask="url(#0bo04ebp5d)"/>
                                        <path fill="#0076BD" d="M26.004 16.056c0 5.02-4.072 9.09-9.092 9.089-5.021-.002-9.09-4.072-9.09-9.093.002-5.019 4.07-9.087 9.089-9.089 5.021 0 9.093 4.07 9.093 9.093" mask="url(#0bo04ebp5d)"/>
                                        <path fill="#0076BD" d="M25.898 16.056c0 4.959-4.02 8.98-8.98 8.98-4.959 0-8.979-4.021-8.979-8.98 0-4.956 4.015-8.975 8.972-8.98 4.96-.003 8.983 4.014 8.987 8.974v.006z" mask="url(#0bo04ebp5d)"/>
                                        <path fill="#0076BD" d="M25.778 16.056c-.002 4.895-3.972 8.863-8.867 8.86-4.896 0-8.863-3.97-8.862-8.866.002-4.893 3.968-8.86 8.862-8.861 4.895-.002 8.865 3.965 8.867 8.86v.007z" mask="url(#0bo04ebp5d)"/>
                                        <path fill="#0077BE" d="M25.665 16.056c0 4.833-3.92 8.751-8.752 8.75-4.834 0-8.752-3.919-8.751-8.752 0-4.832 3.917-8.75 8.749-8.751 4.833-.002 8.752 3.914 8.754 8.747v.006z" mask="url(#0bo04ebp5d)"/>
                                        <path fill="#0077BE" d="M25.55 16.056c0 4.77-3.868 8.635-8.637 8.634-4.77 0-8.636-3.868-8.635-8.638.001-4.768 3.865-8.633 8.633-8.635 4.77 0 8.639 3.866 8.64 8.637v.002z" mask="url(#0bo04ebp5d)"/>
                                        <path fill="#0077BE" d="M25.437 16.056c-.003 4.707-3.82 8.521-8.527 8.519-4.708-.002-8.522-3.82-8.52-8.527.002-4.705 3.816-8.518 8.52-8.52 4.708-.001 8.525 3.814 8.527 8.52v.008z" mask="url(#0bo04ebp5d)"/>
                                        <path fill="#0077BE" d="M25.324 16.056c0 4.645-3.765 8.41-8.41 8.41-4.646 0-8.411-3.765-8.411-8.41 0-4.644 3.764-8.41 8.408-8.411 4.643-.003 8.41 3.758 8.413 8.402v.009z" mask="url(#0bo04ebp5d)"/>
                                        <path fill="#0078BE" d="M25.214 16.056c.001 4.583-3.714 8.3-8.297 8.3-4.583.001-8.299-3.713-8.3-8.296-.001-4.582 3.712-8.298 8.294-8.3 4.582-.004 8.3 3.708 8.303 8.29v.006z" mask="url(#0bo04ebp5d)"/>
                                        <path fill="#0078BF" d="M25.095 16.056c0 4.518-3.662 8.181-8.18 8.182-4.519 0-8.182-3.662-8.183-8.18 0-4.518 3.66-8.18 8.179-8.183 4.518 0 8.183 3.662 8.184 8.18" mask="url(#0bo04ebp5d)"/>
                                        <path fill="#0078BF" d="M24.984 16.056c0 4.457-3.613 8.07-8.07 8.07-4.456 0-8.07-3.613-8.07-8.07 0-4.456 3.611-8.068 8.067-8.07 4.457-.002 8.072 3.61 8.073 8.068v.002z" mask="url(#0bo04ebp5d)"/>
                                        <path fill="#0079BF" d="M24.87 16.056c0 4.393-3.563 7.955-7.956 7.955-4.394 0-7.956-3.562-7.956-7.955 0-4.393 3.56-7.954 7.953-7.956 4.393-.002 7.956 3.558 7.958 7.95v.006z" mask="url(#0bo04ebp5d)"/>
                                        <path fill="#0079BF" d="M24.754 16.056c-.002 4.33-3.514 7.84-7.844 7.838-4.331-.002-7.84-3.513-7.839-7.844.002-4.329 3.51-7.837 7.84-7.838 4.33-.002 7.841 3.507 7.843 7.837v.007z" mask="url(#0bo04ebp5d)"/>
                                        <path fill="#0079C0" d="M24.64 16.056c0 4.267-3.46 7.726-7.728 7.726-4.267 0-7.726-3.46-7.726-7.728.001-4.266 3.459-7.725 7.725-7.726 4.268 0 7.728 3.46 7.73 7.728" mask="url(#0bo04ebp5d)"/>
                                        <path fill="#007AC0" d="M24.53 16.056c-.003 4.205-3.414 7.612-7.62 7.61-4.205-.003-7.612-3.415-7.61-7.62.003-4.202 3.409-7.607 7.61-7.61 4.209 0 7.62 3.412 7.62 7.62" mask="url(#0bo04ebp5d)"/>
                                        <path fill="#007AC0" d="M24.412 16.056c-.001 4.142-3.36 7.498-7.501 7.497-4.142 0-7.499-3.36-7.498-7.501.001-4.14 3.357-7.497 7.498-7.498 4.142 0 7.5 3.359 7.5 7.502" mask="url(#0bo04ebp5d)"/>
                                        <path fill="#007AC1" d="M24.302 16.056c0 4.08-3.308 7.387-7.389 7.387-4.08 0-7.387-3.309-7.387-7.39.001-4.078 3.306-7.384 7.385-7.386 4.08-.003 7.389 3.302 7.391 7.382v.007z" mask="url(#0bo04ebp5d)"/>
                                        <path fill="#007BC1" d="M24.185 16.056c0 4.016-3.258 7.272-7.274 7.27-4.017 0-7.272-3.258-7.271-7.274 0-4.015 3.255-7.27 7.27-7.271 4.017-.002 7.274 3.253 7.275 7.269v.006z" mask="url(#0bo04ebp5d)"/>
                                        <path fill="#007BC1" d="M24.073 16.056c0 3.954-3.206 7.159-7.16 7.158-3.955 0-7.16-3.206-7.159-7.16 0-3.953 3.204-7.157 7.157-7.159 3.954 0 7.16 3.204 7.162 7.159v.002z" mask="url(#0bo04ebp5d)"/>
                                        <path fill="#007BC1" d="M23.96 16.056c-.001 3.891-3.157 7.045-7.048 7.044-3.892-.001-7.046-3.157-7.045-7.048.001-3.89 3.154-7.043 7.044-7.044 3.89-.003 7.046 3.149 7.049 7.039v.009z" mask="url(#0bo04ebp5d)"/>
                                        <path fill="#007CC2" d="M23.846 16.056c0 3.83-3.105 6.935-6.935 6.935-3.83 0-6.936-3.105-6.936-6.935 0-3.83 3.105-6.936 6.936-6.936 3.83 0 6.935 3.105 6.935 6.936" mask="url(#0bo04ebp5d)"/>
                                        <path fill="#007CC2" d="M23.731 16.056c0 3.765-3.053 6.817-6.819 6.816-3.765 0-6.817-3.053-6.816-6.818 0-3.764 3.05-6.815 6.815-6.817 3.766 0 6.82 3.052 6.82 6.819" mask="url(#0bo04ebp5d)"/>
                                        <path fill="#007DC2" d="M23.619 16.056c-.001 3.702-3.004 6.703-6.706 6.702-3.703-.001-6.704-3.003-6.703-6.706.001-3.7 3-6.7 6.7-6.702 3.702-.004 6.705 2.994 6.709 6.696v.01z" mask="url(#0bo04ebp5d)"/>
                                        <path fill="#007DC3" d="M23.505 16.056c0 3.64-2.95 6.591-6.59 6.592-3.64 0-6.59-2.95-6.591-6.59-.001-3.64 2.948-6.59 6.587-6.592 3.64-.001 6.593 2.949 6.594 6.59" mask="url(#0bo04ebp5d)"/>
                                        <path fill="#007EC3" d="M23.392 16.056c0 3.578-2.902 6.478-6.48 6.477-3.578 0-6.478-2.901-6.477-6.48 0-3.576 2.9-6.475 6.476-6.477 3.578 0 6.48 2.9 6.481 6.478v.002z" mask="url(#0bo04ebp5d)"/>
                                        <path fill="#007EC4" d="M23.279 16.056c0 3.515-2.85 6.365-6.365 6.366-3.515 0-6.365-2.849-6.366-6.364 0-3.515 2.848-6.365 6.363-6.367 3.515-.001 6.366 2.847 6.368 6.363v.002z" mask="url(#0bo04ebp5d)"/>
                                        <path fill="#007EC4" d="M23.162 16.056c0 3.453-2.799 6.252-6.251 6.252-3.453 0-6.252-2.8-6.252-6.252 0-3.453 2.799-6.252 6.252-6.252 3.452 0 6.251 2.799 6.251 6.252" mask="url(#0bo04ebp5d)"/>
                                        <path fill="#007FC4" d="M23.051 16.056c0 3.39-2.749 6.137-6.139 6.136-3.39 0-6.137-2.749-6.136-6.138 0-3.388 2.746-6.135 6.135-6.137 3.39 0 6.14 2.748 6.14 6.139" mask="url(#0bo04ebp5d)"/>
                                        <path fill="#007FC5" d="M22.938 16.056c0 3.327-2.698 6.024-6.025 6.023-3.328 0-6.024-2.698-6.024-6.025 0-3.326 2.696-6.022 6.022-6.024 3.327 0 6.026 2.696 6.027 6.024v.002z" mask="url(#0bo04ebp5d)"/>
                                        <path fill="#0080C5" d="M22.82 16.056c0 3.263-2.646 5.908-5.91 5.908-3.263 0-5.908-2.647-5.908-5.91.001-3.263 2.646-5.908 5.909-5.908 3.261-.002 5.907 2.64 5.91 5.902v.008z" mask="url(#0bo04ebp5d)"/>
                                        <path fill="#0081C6" d="M22.71 16.056c0 3.201-2.595 5.797-5.797 5.797-3.201.001-5.797-2.594-5.797-5.795s2.594-5.797 5.795-5.798c3.2-.002 5.797 2.592 5.798 5.793v.003z" mask="url(#0bo04ebp5d)"/>
                                        <path fill="#0081C6" d="M22.596 16.056c-.001 3.138-2.546 5.681-5.684 5.68-3.139 0-5.682-2.546-5.68-5.684 0-3.137 2.542-5.679 5.679-5.68 3.138-.002 5.683 2.54 5.685 5.679v.005z" mask="url(#0bo04ebp5d)"/>
                                        <path fill="#0082C7" d="M22.479 16.056c0 3.075-2.493 5.568-5.568 5.568-3.076 0-5.569-2.493-5.569-5.568 0-3.075 2.493-5.568 5.569-5.568 3.075 0 5.568 2.493 5.568 5.568" mask="url(#0bo04ebp5d)"/>
                                        <path fill="#0082C7" d="M22.37 16.056c0 3.012-2.443 5.455-5.456 5.455-3.012 0-5.454-2.443-5.454-5.455 0-3.011 2.44-5.453 5.45-5.455 3.014-.001 5.458 2.441 5.46 5.455" mask="url(#0bo04ebp5d)"/>
                                        <path fill="#0083C8" d="M22.256 16.056c0 2.95-2.393 5.342-5.343 5.341-2.951 0-5.343-2.393-5.342-5.343 0-2.95 2.39-5.34 5.34-5.342 2.95-.001 5.343 2.39 5.345 5.34v.004z" mask="url(#0bo04ebp5d)"/>
                                        <path fill="#0083C8" d="M22.14 16.056c-.001 2.887-2.343 5.227-5.23 5.226-2.888-.001-5.228-2.343-5.227-5.23.001-2.886 2.341-5.226 5.228-5.226 2.885-.003 5.226 2.334 5.229 5.219v.01" mask="url(#0bo04ebp5d)"/>
                                        <path fill="#0084C9" d="M22.026 16.056c0 2.824-2.288 5.114-5.113 5.115-2.824 0-5.114-2.289-5.114-5.113 0-2.824 2.288-5.114 5.112-5.115 2.824 0 5.113 2.289 5.115 5.113" mask="url(#0bo04ebp5d)"/>
                                        <path fill="#0085C9" d="M21.915 16.056c0 2.761-2.239 5-5 5-2.762 0-5.001-2.239-5.001-5 0-2.76 2.236-4.999 4.997-5 2.762-.002 5.002 2.236 5.004 4.998v.002z" mask="url(#0bo04ebp5d)"/>
                                        <path fill="#0085C9" d="M21.8 16.056c0 2.697-2.186 4.884-4.884 4.884-2.697 0-4.884-2.187-4.884-4.884 0-2.698 2.187-4.885 4.884-4.885 2.698 0 4.885 2.187 4.885 4.885" mask="url(#0bo04ebp5d)"/>
                                        <path fill="#0086C9" d="M21.69 16.056c0 2.636-2.138 4.774-4.775 4.774-2.636 0-4.774-2.138-4.774-4.774 0-2.635 2.135-4.771 4.77-4.774 2.636-.003 4.776 2.132 4.778 4.769v.005z" mask="url(#0bo04ebp5d)"/>
                                        <path fill="#0087CA" d="M21.573 16.056c0 2.573-2.087 4.659-4.66 4.658-2.574 0-4.66-2.087-4.66-4.66.001-2.572 2.086-4.657 4.658-4.659 2.572-.002 4.66 2.082 4.662 4.655v.006z" mask="url(#0bo04ebp5d)"/>
                                        <path fill="#0087CA" d="M21.46 16.056c0 2.51-2.037 4.546-4.548 4.545-2.51 0-4.545-2.036-4.545-4.547 0-2.51 2.034-4.544 4.544-4.546 2.51-.001 4.547 2.033 4.549 4.544v.004z" mask="url(#0bo04ebp5d)"/>
                                        <path fill="#0088CB" d="M21.345 16.056c0 2.447-1.985 4.432-4.432 4.432-2.448 0-4.433-1.985-4.433-4.432s1.984-4.431 4.43-4.432c2.448-.001 4.433 1.982 4.435 4.43v.002z" mask="url(#0bo04ebp5d)"/>
                                        <path fill="#0089CC" d="M21.231 16.056c.001 2.385-1.932 4.32-4.318 4.321-2.385.001-4.32-1.932-4.321-4.317-.001-2.386 1.932-4.32 4.318-4.322 2.385-.002 4.32 1.93 4.321 4.315v.003z" mask="url(#0bo04ebp5d)"/>
                                        <path fill="#0089CC" d="M21.118 16.056c-.003 2.32-1.887 4.198-4.206 4.194-2.32-.003-4.198-1.886-4.195-4.206.003-2.318 1.883-4.195 4.2-4.195 2.32 0 4.2 1.881 4.2 4.2v.007z" mask="url(#0bo04ebp5d)"/>
                                        <path fill="#008ACD" d="M21.005 16.056c-.001 2.259-1.834 4.089-4.092 4.088-2.26-.001-4.09-1.833-4.089-4.092.001-2.257 1.83-4.086 4.087-4.088 2.26-.002 4.092 1.828 4.094 4.088v.004z" mask="url(#0bo04ebp5d)"/>
                                        <path fill="#008BCE" d="M20.892 16.056c.002 2.197-1.778 3.98-3.976 3.981-2.197.002-3.98-1.778-3.981-3.975-.002-2.198 1.778-3.98 3.976-3.982 2.197-.002 3.98 1.778 3.981 3.976" mask="url(#0bo04ebp5d)"/>
                                        <path fill="#008CCE" d="M20.777 16.056c0 2.134-1.73 3.864-3.864 3.864-2.135 0-3.865-1.73-3.865-3.864s1.729-3.864 3.863-3.865c2.132-.002 3.863 1.724 3.866 3.857v.008z" mask="url(#0bo04ebp5d)"/>
                                        <path fill="#008DCF" d="M20.665 16.056c-.002 2.071-1.684 3.75-3.755 3.747-2.072-.002-3.75-1.683-3.748-3.755.002-2.07 1.68-3.746 3.749-3.747 2.072 0 3.753 1.679 3.754 3.752v.003z" mask="url(#0bo04ebp5d)"/>
                                        <path fill="#008DD0" d="M20.551 16.056c0 2.008-1.63 3.636-3.638 3.635-2.01-.001-3.636-1.63-3.635-3.64 0-2.005 1.626-3.632 3.633-3.634 2.009-.002 3.639 1.626 3.64 3.635v.004z" mask="url(#0bo04ebp5d)"/>
                                        <path fill="#008ED0" d="M20.434 16.056c-.001 1.945-1.579 3.52-3.523 3.52-1.945-.002-3.521-1.58-3.52-3.524.001-1.945 1.579-3.52 3.523-3.52h.003c1.943 0 3.517 1.575 3.517 3.517v.007" mask="url(#0bo04ebp5d)"/>
                                        <path fill="#008FD1" d="M20.324 16.056c0 1.883-1.527 3.41-3.41 3.41-1.884 0-3.41-1.527-3.41-3.41 0-1.883 1.524-3.409 3.407-3.41 1.882-.003 3.41 1.522 3.413 3.405v.005z" mask="url(#0bo04ebp5d)"/>
                                        <path fill="#0090D2" d="M20.21 16.056c-.002 1.82-1.478 3.295-3.298 3.294-1.82-.001-3.296-1.478-3.294-3.298 0-1.819 1.474-3.292 3.293-3.294 1.82-.002 3.296 1.471 3.298 3.29v.008z" mask="url(#0bo04ebp5d)"/>
                                        <path fill="#0091D3" d="M20.095 16.056c0 1.758-1.425 3.182-3.182 3.182-1.758 0-3.183-1.424-3.183-3.182 0-1.757 1.424-3.182 3.18-3.183 1.758-.001 3.184 1.423 3.185 3.18v.003z" mask="url(#0bo04ebp5d)"/>
                                        <path fill="#0092D3" d="M19.982 16.056c0 1.695-1.374 3.069-3.07 3.069-1.695 0-3.069-1.374-3.069-3.07 0-1.694 1.373-3.067 3.068-3.069 1.695 0 3.07 1.373 3.07 3.068v.002z" mask="url(#0bo04ebp5d)"/>
                                        <path fill="#0093D4" d="M19.868 16.056c-.002 1.631-1.325 2.953-2.956 2.952-1.632-.001-2.954-1.325-2.953-2.956.002-1.63 1.322-2.95 2.952-2.952 1.631-.002 2.955 1.32 2.957 2.95v.006z" mask="url(#0bo04ebp5d)"/>
                                        <path fill="#0094D5" d="M19.755 16.056c0 1.57-1.271 2.842-2.84 2.842-1.57 0-2.843-1.27-2.843-2.84 0-1.569 1.27-2.841 2.839-2.843 1.569-.002 2.843 1.27 2.844 2.839v.002z" mask="url(#0bo04ebp5d)"/>
                                        <path fill="#0095D6" d="M19.639 16.056c0 1.506-1.22 2.728-2.726 2.728-1.507 0-2.728-1.22-2.729-2.726 0-1.507 1.22-2.728 2.727-2.729 1.505 0 2.727 1.219 2.728 2.725v.002z" mask="url(#0bo04ebp5d)"/>
                                        <path fill="#0096D6" d="M19.527 16.056c0 1.443-1.172 2.613-2.615 2.613-1.444 0-2.614-1.172-2.614-2.615.001-1.443 1.17-2.612 2.613-2.613 1.443-.002 2.614 1.167 2.616 2.61v.005z" mask="url(#0bo04ebp5d)"/>
                                        <path fill="#0096D7" d="M19.413 16.056c-.001 1.38-1.122 2.498-2.502 2.497-1.381-.002-2.499-1.123-2.497-2.503.001-1.378 1.118-2.495 2.497-2.497 1.38-.003 2.5 1.113 2.502 2.493v.01z" mask="url(#0bo04ebp5d)"/>
                                        <path fill="#0097D8" d="M19.3 16.056c0 1.318-1.07 2.386-2.387 2.385-1.318 0-2.386-1.07-2.386-2.387s1.067-2.384 2.384-2.386c1.318-.001 2.387 1.066 2.389 2.384v.004z" mask="url(#0bo04ebp5d)"/>
                                        <path fill="#0098D9" d="M19.187 16.056c-.002 1.255-1.021 2.272-2.276 2.27-1.256-.002-2.272-1.02-2.27-2.276.001-1.253 1.016-2.269 2.27-2.27 1.254-.003 2.273 1.012 2.276 2.266v.01" mask="url(#0bo04ebp5d)"/>
                                        <path fill="#0099DA" d="M19.074 16.056c0 1.193-.969 2.16-2.162 2.159-1.194-.001-2.16-.97-2.16-2.163.002-1.192.967-2.157 2.159-2.159 1.193-.001 2.162.966 2.163 2.16v.003z" mask="url(#0bo04ebp5d)"/>
                                        <path fill="#009BDB" d="M18.962 16.056c0 1.13-.915 2.047-2.046 2.047-1.13 0-2.047-.915-2.047-2.045s.913-2.045 2.042-2.048c1.13 0 2.048.915 2.051 2.046" mask="url(#0bo04ebp5d)"/>
                                        <path fill="#009CDC" d="M18.845 16.056c-.002 1.066-.868 1.93-1.934 1.928-1.067-.002-1.93-.867-1.929-1.934.002-1.064.864-1.927 1.929-1.928 1.066-.002 1.932.861 1.934 1.928v.006z" mask="url(#0bo04ebp5d)"/>
                                        <path fill="#009EDD" d="M18.732 16.056c0 1.004-.815 1.818-1.82 1.818-1.004 0-1.818-.816-1.817-1.82 0-1.003.813-1.817 1.816-1.818 1.004-.002 1.82.81 1.821 1.814v.006z" mask="url(#0bo04ebp5d)"/>
                                        <path fill="#009FDE" d="M18.62 16.056c-.002.941-.766 1.703-1.707 1.702-.942 0-1.704-.765-1.703-1.706 0-.94.761-1.7 1.7-1.703.943 0 1.708.762 1.71 1.705v.002z" mask="url(#0bo04ebp5d)"/>
                                        <path fill="#00A0DF" d="M18.506 16.056c0 .88-.714 1.592-1.593 1.591-.88 0-1.592-.714-1.592-1.593 0-.878.712-1.59 1.59-1.592.879-.001 1.593.71 1.595 1.59v.004z" mask="url(#0bo04ebp5d)"/>
                                        <path fill="#00A1DF" d="M18.39 16.056c-.001.816-.664 1.475-1.48 1.474-.815-.002-1.475-.664-1.474-1.48.002-.814.661-1.473 1.475-1.474.815-.002 1.477.657 1.48 1.472v.008z" mask="url(#0bo04ebp5d)"/>
                                        <path fill="#00A1E0" d="M18.278 16.056c0 .755-.612 1.367-1.367 1.367-.756 0-1.368-.612-1.368-1.367 0-.756.612-1.368 1.368-1.368.752-.003 1.364.604 1.367 1.356v.012z" mask="url(#0bo04ebp5d)"/>
                                        <path fill="#00A2E1" d="M18.164 16.056c0 .69-.559 1.25-1.25 1.251-.69 0-1.25-.559-1.25-1.25-.001-.69.557-1.249 1.247-1.25.69-.002 1.251.556 1.253 1.247v.002z" mask="url(#0bo04ebp5d)"/>
                                        <path fill="#00A3E2" d="M18.05 16.056c-.001.627-.51 1.135-1.137 1.135-.628 0-1.136-.51-1.136-1.137.001-.626.508-1.134 1.134-1.135.625-.004 1.135.501 1.139 1.127v.01z" mask="url(#0bo04ebp5d)"/>
                                        <path fill="#00A5E3" d="M17.936 16.056c0 .565-.458 1.023-1.023 1.023-.566 0-1.024-.458-1.024-1.023s.457-1.023 1.022-1.024c.564-.002 1.023.454 1.025 1.018v.006z" mask="url(#0bo04ebp5d)"/>
                                        <path fill="#00A6E5" d="M17.82 16.056c-.001.501-.409.907-.91.906-.502 0-.908-.408-.907-.91.001-.502.409-.908.91-.907.502 0 .908.408.907.909v.002z" mask="url(#0bo04ebp5d)"/>
                                        <path fill="#00A7E6" d="M17.708 16.056c0 .44-.357.796-.796.796-.44 0-.797-.357-.797-.796 0-.44.357-.796.797-.796h.001c.439 0 .794.354.795.792v.004z" mask="url(#0bo04ebp5d)"/>
                                        <path fill="#00A9E7" d="M17.594 16.056c0 .377-.306.684-.683.684-.378 0-.684-.307-.684-.684 0-.378.306-.684.684-.684.377 0 .683.306.683.684" mask="url(#0bo04ebp5d)"/>
                                        <path fill="#00ABE8" d="M17.482 16.056c0 .314-.256.568-.57.567-.313 0-.568-.255-.567-.57 0-.313.255-.567.568-.567.314 0 .569.255.569.569z" mask="url(#0bo04ebp5d)"/>
                                        <path fill="#00ACE9" d="M17.37 16.056c0 .252-.205.456-.456.456-.253 0-.457-.204-.457-.456s.204-.456.457-.456c.251 0 .455.204.456.456" mask="url(#0bo04ebp5d)"/>
                                        <path fill="#00ADEA" d="M17.253 16.056c0 .189-.153.342-.341.342-.19 0-.342-.153-.342-.342 0-.19.153-.342.342-.342.188 0 .341.153.341.342" mask="url(#0bo04ebp5d)"/>
                                        <path fill="#00AEEB" d="M17.14 16.056c0 .123-.1.224-.224.224h-.003c-.124.009-.232-.086-.24-.21-.009-.126.086-.234.21-.242h.03c.125 0 .226.1.226.224v.004" mask="url(#0bo04ebp5d)"/>
                                        <path fill="#00AFEC" d="M17.029 16.056c-.001.062-.053.112-.116.111-.062.001-.113-.048-.114-.11v-.001c0-.063.051-.115.114-.116.064.002.115.053.116.116" mask="url(#0bo04ebp5d)"/>
                                        <path fill="#FFF" d="M14.25 4.192c-.275-.091-.529-.236-.748-.425l-.013-.077h1.337c.283.472 1.27.606 1.825.606.436.008.87-.064 1.28-.21.216-.07.404-.21.534-.396h1.538c-.326.38-1.465.889-3.316.889-.912-.001-1.779-.138-2.437-.388zm2.29 3.429c-.346.012-.692.017-1.043.017-.488.006-.937-.01-1.368-.03.487-.877 1.012-1.773 1.577-2.688.277.032.555.05.833.054v2.647zm0 7.21c-.994-.029-1.975-.093-2.924-.196-.895-.097-1.767-.212-2.607-.36.716-1.981 1.683-4.068 2.898-6.28.499.033 1.021.05 1.591.046.336 0 .684-.01 1.041-.018v6.808zm0 6.582c-1.718-.057-3.429-.228-5.123-.511-.652-.112-1.281-.237-1.89-.376.178-1.856.627-3.804 1.347-5.861.87.151 1.782.28 2.72.378.956.097 1.945.166 2.945.195v6.175zm0 9.378c-1.82-.033-3.624-.335-5.354-.897-1.368-2.796-1.938-5.747-1.693-8.969.608.136 1.235.265 1.887.374 1.706.29 3.43.464 5.16.52v8.972zM4.601 25.935l.06-.031C3.647 23.48 3.24 21.072 3.45 18.777c1.523.835 3.47 1.551 5.744 2.082-.245 3.18.282 6.108 1.571 8.89-2.306-.81-4.41-2.112-6.163-3.814zM.304 16.02v-.026c.513.943 1.5 1.835 2.861 2.625-.233 2.223.103 4.517.996 6.863C1.75 22.914.304 19.615.304 16.02zm.4-3.225c.38-.56.764-1.091 1.173-1.597.67.668 1.741 1.299 3.109 1.856-.716 1.25-1.246 2.597-1.574 4-.086.375-.154.754-.204 1.14-1.484-.871-2.495-1.857-2.865-2.879l-.019.015c.042-.856.17-1.705.38-2.535zm.734-2.119c.06.094.127.184.2.269-.215.272-.428.552-.633.84.127-.375.272-.745.433-1.109zM7.747 3.76c-.18.377-.227.803-.134 1.21.057.236.153.46.285.664-2.32 1.24-4.29 2.887-6.04 5.04-.097-.112-.184-.232-.26-.358 1.28-2.684 3.437-4.959 6.149-6.556zm.704-.39c.142-.079.287-.152.433-.22l4.165.134c-.037.133-.034.274.009.405C11.372 4.1 9.74 4.704 8.19 5.487c-.138-.19-.237-.404-.293-.632-.11-.513.087-1.037.553-1.486zm1.817 3.524c-.826-.314-1.432-.69-1.829-1.107 1.54-.761 3.16-1.347 4.832-1.747.1.105.213.195.337.269-1.157.803-2.272 1.666-3.34 2.585zm.39.138c1.007-.843 2.11-1.687 3.322-2.525.06.025.12.051.187.076.38.138.773.238 1.173.3-.567.92-1.094 1.82-1.583 2.703-1.05-.062-2.09-.248-3.098-.554zm-5.166 5.8c1.139-1.874 2.742-3.702 4.824-5.507.852.31 1.92.538 3.234.644-1.195 2.198-2.149 4.275-2.853 6.252-1.959-.35-3.737-.83-5.205-1.389zm-.313-.116c-1.358-.544-2.427-1.154-3.082-1.79C3.84 8.8 5.81 7.164 8.131 5.944c.381.45.971.88 1.805 1.228-2.054 1.814-3.632 3.657-4.756 5.544zm.107.46c1.48.577 3.278 1.068 5.275 1.43-.708 2.05-1.152 3.996-1.33 5.85-2.27-.538-4.23-1.26-5.74-2.099.046-.397.113-.792.202-1.183.328-1.404.865-2.752 1.593-3.997zm6.612-11.182l1.612.669c-.089.063-.17.137-.24.22L9.705 2.77c.713-.307 1.446-.565 2.194-.773v-.003zm3.273-.603l.183.61c-.493.07-.974.21-1.429.413l-1.397-.581c.87-.211 1.752-.358 2.643-.439v-.003zm3.067 2.051c-.024.033-.115.142-.39.255-.384.136-.789.202-1.195.196-.894 0-1.474-.269-1.589-.449-.015-.024-.015-.055 0-.08.115-.178.699-.442 1.587-.442s1.465.264 1.587.442c.013.025.013.054 0 .078zm-2.765-1.038l.018-.01c.396-.058.796-.087 1.196-.088 1.583 0 2.786.385 3.223.815h-1.436c-.282-.475-1.27-.61-1.826-.61s-1.548.135-1.829.61h-1.294c.325-.3 1.031-.586 1.948-.725v.008zm1.204-1.088l-.112.586c-.302.003-.604.023-.904.06l-.176-.594c.395-.03.793-.047 1.192-.05v-.002zm.306-.006c.477 0 .947.023 1.407.06l-.431.622c-.36-.054-.724-.085-1.089-.092l.113-.59zm5.87.977l-3.117.26c-.44-.238-.916-.403-1.409-.488l.451-.656c1.388.138 2.755.435 4.075.884zm2.394 1.016c.489.382.977.91.88 1.433-.026.125-.076.245-.148.35-1.856-.873-3.774-1.392-5.59-1.74-.028-.16-.1-.309-.208-.43l3.568-.3c.508.206 1.012.437 1.498.687zm6.717 6.495c-.028.036-.055.074-.081.111-1.46-1.993-3.386-3.599-5.608-4.678.066-.123.114-.254.143-.39.058-.348-.016-.705-.207-1.002 2.477 1.481 4.473 3.542 5.753 5.957v.002zm.172.333c.074.149.14.299.207.45-.081-.131-.17-.258-.256-.383.017-.02.031-.047.049-.069v.002zm-2.95 2.19c-1.403-2.052-3.236-3.847-5.515-5.417 1.075-.36 1.919-.81 2.38-1.35 2.061 1 4.02 2.457 5.619 4.636-.696.85-1.537 1.57-2.484 2.128v.002zm-5.326 1.953c-.725-2.253-1.857-4.46-3.396-6.62.934-.14 1.856-.343 2.762-.608 2.35 1.574 4.23 3.382 5.666 5.446-1.457.823-3.183 1.401-5.032 1.782zm-4.045-6.93c-.944.131-1.948.22-2.98.263v-2.63c.323-.001.644-.02.964-.057.734.798 1.401 1.608 2.016 2.423zm-.335-2.85c.435-.195.75-.443.87-.747 1.744.332 3.588.825 5.367 1.643-.478.454-1.34.87-2.468 1.22-1.206-.792-2.466-1.498-3.77-2.115zm3.292 2.258c-.846.229-1.704.408-2.57.537-.602-.82-1.264-1.629-1.982-2.434.255-.043.508-.102.757-.177 1.31.605 2.578 1.298 3.795 2.074zm-5.937 8.088V8.01c1.053-.046 2.168-.148 3.251-.303 1.57 2.164 2.723 4.374 3.458 6.63-2.15.41-4.457.556-6.709.503zm5.253 15.22c-1.682.492-3.425.741-5.177.74h-.079v-8.98c.196.005.385.005.578.005.043-.14.105-.273.184-.396-.253 0-.509-.005-.763-.01v-6.178c2.288.052 4.64-.098 6.827-.53.23.751.413 1.515.549 2.288.097-.028.206-.053.306-.078-.134-.767-.314-1.527-.539-2.273 1.887-.39 3.643-.995 5.126-1.856.765 1.151 1.4 2.384 1.893 3.675.117.017.236.035.355.055-.5-1.371-1.156-2.68-1.954-3.9.943-.57 1.781-1.297 2.478-2.15.418.603.796 1.233 1.131 1.885.277.953.445 1.934.5 2.924-.349.536-.75 1.035-1.198 1.492.12.041.236.09.35.146.312-.334.602-.69.865-1.064v.163c0 .478-.026.956-.079 1.43.097.09.186.189.267.294.075-.57.113-1.145.114-1.72C33.829 7.686 26.24.909 16.911.909 8.91.909 2.193 5.896.446 12.579l-.01.018h.006C.15 13.713.002 14.862 0 16.016c0 8.37 7.587 15.182 16.913 15.182 1.902.002 3.792-.288 5.606-.86-.157-.07-.302-.164-.431-.278z" mask="url(#0bo04ebp5d)"/>
                                    </g>
                                    <path fill="#FFF" d="M28.419 15.85c7.355 0 10.648 3.974 10.648 7.911 0 4.994-4.318 8.218-11 8.216-6.306 0-10.543-3.194-10.543-7.952 0-4.813 4.478-8.175 10.895-8.175zm63.794.002c2.085 0 3.973.258 5.614.766l.452.14-1.413 3.517-.391-.128c-1.407-.46-2.878-.69-4.358-.684-1.766 0-2.69.5-2.69.989 0 .603 1.13.999 3.66 1.66 2.534.643 5.906 1.847 5.908 4.827 0 2.436-2.392 5.038-9.113 5.038-2.573 0-5.043-.49-6.245-.949l-.4-.152 1.28-3.572.409.143c1.69.577 3.46.88 5.245.898 1.804 0 2.976-.459 2.976-1.162 0-.615-.917-1.082-3.27-1.66-4.192-1.004-6.233-2.568-6.233-4.787 0-2.922 3.443-4.884 8.569-4.884zm-27.43.133c3.197 0 4.96.237 6.509.866 1.811.66 2.856 1.866 2.856 3.297 0 1.32-.905 2.42-2.527 3.126 2.067.715 3.26 2.044 3.259 3.71 0 1.404-.845 2.62-2.457 3.513-1.735.954-4.487 1.393-8.661 1.393-2.709 0-4.487-.14-5.308-.221l-.391-.037V16.349l.377-.052c1.332-.183 3.939-.312 6.343-.312zm-17.604-.003c3.408 0 5.616.376 7.16 1.216 1.443.792 2.205 1.993 2.205 3.473 0 1.73-1.413 3.024-3.063 3.708.934.523 1.618 1.37 2.106 2.595.183.457.365.934.547 1.398l.174.454c.377.978.748 1.9.982 2.22l.504.69h-6.043l-.132-.162c-.38-.475-.895-1.647-1.57-3.57-.496-1.592-1.185-2.056-3.07-2.073h-1.025v5.804h-5.692V16.333l.391-.04c1.754-.2 4.13-.311 6.526-.311zm34.782.11v15.642h-5.75V16.092h5.75zm-16.889 9.113h-1.32v3.316c.388.02.856.02 1.442.02l.094-.001c.97-.01 3.618-.172 3.618-1.69 0-1.525-3.012-1.645-3.933-1.645zm-36.781-5.832c-2.894 0-4.764 1.801-4.764 4.585 0 2.729 1.883 4.493 4.794 4.493 2.878.002 4.736-1.798 4.73-4.584 0-2.234-1.473-4.494-4.76-4.494zm19.424-.04c-.675 0-1.27.02-1.758.065v3.246h1.478c2.107 0 3.42-.646 3.42-1.688 0-1.315-1.708-1.611-3.14-1.623zm17.672-.046c-.756 0-1.273.026-1.635.05v2.605h1.157c2.117 0 3.486-.54 3.486-1.385 0-1.144-2.101-1.27-3.008-1.27z" transform="translate(35 1)"/>
                                    <path fill="#0C73BA" d="M28.437 16.288c6.6 0 10.202 3.396 10.202 7.473 0 4.842-4.271 7.78-10.55 7.78-6.38 0-10.11-3.31-10.11-7.516 0-4.43 4.114-7.737 10.458-7.737zm63.792 0c2.423 0 4.208.348 5.485.743l-1.084 2.695c-1.45-.473-2.968-.71-4.493-.7-2.106 0-3.126.658-3.126 1.427 0 .941 1.211 1.356 3.985 2.08 3.799.965 5.583 2.323 5.583 4.406 0 2.477-2.774 4.602-8.676 4.602-2.454 0-4.879-.46-6.092-.922l.979-2.759c1.736.593 3.556.903 5.39.918 2.233 0 3.42-.635 3.42-1.6 0-.919-1.023-1.445-3.606-2.08-3.573-.855-5.899-2.216-5.899-4.363 0-2.518 3.062-4.447 8.134-4.447zm-27.44.131c2.967 0 4.787.195 6.35.831 1.499.55 2.582 1.558 2.582 2.894 0 1.317-1.116 2.54-3.537 3.156v.042c2.454.462 4.273 1.733 4.273 3.639 0 1.338-.895 2.391-2.234 3.136-1.563.853-4.178 1.338-8.45 1.338-2.392 0-4.179-.113-5.265-.222l-.002-14.51c1.275-.172 3.863-.304 6.284-.304zm-17.599 0c3.188 0 5.42.327 6.952 1.16 1.275.703 1.979 1.732 1.979 3.092 0 1.886-1.946 3.176-3.797 3.638v.065c1.496.417 2.33 1.403 2.872 2.76.668 1.666 1.336 3.594 1.752 4.166h-4.976c-.349-.439-.86-1.62-1.5-3.44-.572-1.844-1.497-2.344-3.475-2.369h-1.465V31.3h-4.816l-.001-14.577c2.152-.213 4.313-.314 6.475-.304zm34.347.108V31.3h-4.879V16.527h4.879zM64.98 24.768h-1.66l.003 4.165c.371.032.8.04 1.363.041h.518c2.2 0 4.145-.59 4.145-2.124 0-1.49-1.945-2.082-4.369-2.082zm-36.673-5.83c-3.284.001-5.201 2.148-5.201 5.02 0 2.89 1.978 4.928 5.234 4.928 3.285 0 5.165-2.144 5.165-5.016 0-2.655-1.85-4.932-5.198-4.932zm19.423-.042c-.735-.009-1.47.027-2.2.107v4.078h1.913c2.425 0 3.857-.833 3.857-2.13 0-1.355-1.338-2.035-3.57-2.055zm17.664-.043c-.691-.008-1.382.02-2.07.086v3.44h1.592c2.551 0 3.925-.722 3.925-1.818 0-1.12-1.244-1.708-3.447-1.708zM44.523 7.779c.529 0 .96.346 1.296 1.037.052.163.083.332.093.503 0 .51-.397.923-1.19 1.236v.015c.208.356.482.533.823.533.456 0 .95-.37 1.48-1.113.268-.302.484-.476.65-.522.208-.408.573-.75 1.091-1.026.302-.136.63-.209.961-.213h.122c.496 0 .872.126 1.129.381.053.016.09.066.09.122-.058.036-.11.082-.152.137.061 1.345.092 2.347.092 3.005 0 1.27-.107 1.758-.32 2.1-.309.619-.725.93-1.25.93-.503 0-.981-.218-1.313-.595l-.03-.061v-.061c0-.15-.132-.39-.397-.717-.1-.15-.158-.323-.167-.503-.012-.116.034-.23.122-.305h.06c.039 0 .12.056.245.168.122 0 .183.026.183.076.097.293.349.592.762.88.146.078.284.17.412.274.224-.073.414-.224.534-.427.172-.346.26-.509.26-1.139l-.047-1.875.015-.305c-.107.099-.34.439-.7 1.02-.29.346-.576.52-.855.52h-.107c-.182 0-.39-.117-.61-.35-.172-.113-.26-.246-.26-.398-.037-.113-.064-.229-.078-.346v.007c-.143.027-.214.084-.214.168-.29.473-.74.825-1.27.992-.144.037-.293.057-.442.06h-.152c-.745 0-1.482-.539-2.212-1.617v-.03l-.076-1.204v-.121c0-.504.163-.82.489-.947.356-.192.667-.289.933-.29zm16.101.755c.521 0 .885.319 1.09.956.06.183.088.373.084.565v.14c.02.68-.285 1.33-.823 1.75-.24.161-.52.255-.808.272h-.054c-.538 0-.92-.346-1.148-1.037-.051-.18-.078-.366-.08-.553v-.08c-.003-.444.066-.886.207-1.308.028-.038.154-.105.378-.202.105-.103.2-.217.282-.339.16-.107.448-.164.856-.164h.016zm-6.9.274c.182-.005.352.089.444.245.088.95.235 1.723.442 2.318.128.131.204.305.213.488v.123c.004.076-.03.15-.091.196h-.196c-.382 0-.698-.362-.946-1.084l-.107-.168c-.44.495-.77.81-.991.946h-.015l-.152-.03c-.142.03-.28.076-.413.137l-.076.015c-.218 0-.35-.239-.396-.717l-.016-.229v-.17c0-.73.158-1.345.473-1.845.123-.132.24-.195.35-.195.14 0 .288.101.443.304 0 .148-.086.504-.259 1.068-.033.135-.049.274-.045.412v.061c.23-.115.439-.42.625-.915.244-.627.411-.941.5-.941l.137-.019h.076zm4.415-1.014c.316 0 .474.071.474.213.02.127.078.244.167.336v.03c-.907.457-1.563 1.199-1.968 2.227-.195.552-.293.994-.293 1.328-.305.14-.508.212-.61.212 0-.119-.127-.236-.381-.35 0-.167-.143-.859-.428-2.075-.06-.25-.091-.505-.09-.762V8.74c.047-.166.2-.263.457-.293h.045c.31 0 .5.218.565.655v.077l-.013.17c.36-.327.696-.679 1.007-1.052.364-.334.705-.502 1.022-.503h.046zM39.435 5.026c.816 0 1.355.178 1.616.533.03.046.046.1.047.154 0 .116-.143.195-.428.244-.07.017-.141.027-.213.03h-.244l-1.098-.03c-.38 0-.797.203-1.252.61-.122.144-.233.297-.335.457.176.243.428.42.717.504.521.182 1.365.446 2.531.793 1.433.45 2.15.973 2.15 1.57v.108c0 .782-1.002 1.422-3.005 1.922-.485.113-.981.175-1.48.182-.965 0-1.57-.208-1.815-.625-.059-.124-.09-.26-.091-.396 0-.413.228-.758.683-1.037.149-.078.313-.12.481-.123.033.088.05.18.047.275l-.09.761c.37.11.755.167 1.142.168.93.01 1.845-.244 2.638-.732.126-.102.243-.214.35-.335-.22-.262-.496-.47-.808-.61-.4-.201-1.326-.49-2.775-.87-1.23-.394-1.845-.872-1.845-1.433v-.107c0-.564.473-1.107 1.418-1.631.459-.247.97-.378 1.49-.382h.169zm24.719 3.055c.368 0 .572.09.61.27.049.108.085.222.108.34-.075.112-.233.198-.474.258-.737.114-1.105.213-1.105.298.11.175.385.325.828.45.764.183 1.318.355 1.661.514.318.196.477.45.477.762 0 .53-.467.883-1.4 1.061-.251.043-.506.066-.762.068-.944-.065-1.415-.174-1.415-.328-.096-.098-.15-.23-.15-.366v-.08c0-.195.106-.367.314-.53.534.255.979.382 1.335.382.265.01.523-.082.72-.26v-.014c-.29-.162-.816-.33-1.579-.503-.77-.232-1.154-.513-1.154-.843v-.05c0-.52.32-.92.964-1.197.278-.143.584-.222.897-.232h.125zM60.49 9.33c-.167 0-.32.107-.46.32-.039.057-.088.105-.145.141l.011.12-.027.723c.028.416.119.623.272.622.226-.103.41-.28.525-.5.102-.186.157-.394.16-.605v-.054c.006-.293-.117-.573-.336-.767zm-10.793-.259c-.232 0-.517.137-.855.411-.264.263-.417.617-.427.989v.111l.03.32c.275-.153.514-.417.718-.792.074-.131.144-.251.208-.36l.178-.295c.08-.131.15-.239.209-.322-.011-.04-.03-.062-.061-.062zm-5.328-.393c-.148 0-.223.05-.223.149-.07.138-.105.292-.097.446 0 .305.087.518.26.641.119 0 .296-.091.532-.274.038-.098.059-.201.062-.306.02-.281-.148-.542-.412-.64l-.122-.016z" transform="translate(35 1)"/>
                                </g>
                            </g>
                        </g>
                    </g>
                </g>
            </g>
        </g>
    </g>
</svg>
