<svg xmlns="http://www.w3.org/2000/svg" xmlns:xlink="http://www.w3.org/1999/xlink" width="170" height="40" viewBox="0 0 170 40">
    <defs>
        <path id="3iyd4v3n6a" d="M0 0H170V40H0z"/>
    </defs>
    <g fill="none" fill-rule="evenodd">
        <g>
            <g>
                <g>
                    <g>
                        <g transform="translate(-1191 -754) translate(200 326) translate(0 157) translate(870 256) translate(121 15)">
                            <mask id="hkaet2sztb" fill="#fff">
                                <use xlink:href="#3iyd4v3n6a"/>
                            </mask>
                            <g mask="url(#hkaet2sztb)">
                                <g>
                                    <g fill="#00467F" fill-rule="nonzero">
                                        <g>
                                            <path d="M3.76 11.763c-1.385 0-2.29-.142-3.392-.537V8.709c.961.368 1.979.622 3.025.622.933 0 1.3-.283 1.3-.792 0-.763-1.074-.961-2.176-1.3C1.329 6.899.085 6.192.085 4.24.085 2.234 1.272.877 4.1.877c1.074 0 1.866.14 2.714.395v2.432c-.933-.198-1.81-.34-2.544-.34-1.131 0-1.358.312-1.358.708 0 .65.905.82 1.895 1.102 1.272.34 2.714.99 2.714 3.167 0 2.093-1.413 3.422-3.76 3.422zM8.794 3.223S9.98 2.8 11.734 2.8c1.782 0 3.507.51 3.507 3.535v5.23h-1.867l-.31-.932h-.085s-.707 1.102-2.206 1.102c-1.583 0-2.714-.848-2.714-2.742 0-2.036 1.329-2.884 3.195-2.884.537 0 1.074.084 1.3.141v-.255c0-.508-.254-1.017-1.413-1.017-1.16 0-2.347.367-2.347.367v-2.12zm3.76 5.91V7.917c-.197-.056-.48-.085-.735-.085-.961 0-1.244.425-1.244.962 0 .509.368.848.933.848.453 0 .82-.226 1.046-.509zM19.114 11.565h-2.686V2.969h1.866l.283.99h.085c.679-.764 1.499-1.131 2.375-1.131 1.782 0 2.913 1.13 2.913 3.166v5.6h-2.715V6.22c0-.792-.31-1.103-1.046-1.103-.34 0-.763.141-1.131.594v5.853h.056zM35.43 3.676c-.481-.17-1.414-.311-2.093-.311-1.696 0-2.092.678-2.092 2.884 0 2.347.452 3.025 2.12 3.025.65 0 1.556-.14 2.093-.367v2.375c-.679.34-1.668.509-2.488.509-3.196 0-4.807-1.81-4.807-5.542 0-3.45 1.555-5.4 5.005-5.4.763 0 1.696.112 2.262.339v2.488zM39.162 11.565h-2.686V2.969h1.866l.368 1.499h.141c.396-1.103 1.046-1.669 1.781-1.669.34 0 .566.057.736.142v2.318c-.085-.028-.425-.056-.622-.056-.792 0-1.273.34-1.612 1.13v5.232h.028zM43.63 2.347c-1.018 0-1.47-.283-1.47-1.103 0-.707.452-1.103 1.47-1.103s1.47.396 1.47 1.103c0 .735-.424 1.103-1.47 1.103zm-1.386 9.218V2.969h2.771v8.596h-2.77zM49.285 11.763c-1.103 0-2.008-.142-2.771-.368V9.19c.735.254 1.781.452 2.488.452.65 0 .933-.283.933-.622 0-.622-.905-.622-1.781-.933-.962-.34-1.98-.764-1.98-2.404 0-1.696 1.047-2.855 3.252-2.855.905 0 1.753.113 2.488.339v2.092c-.65-.198-1.583-.339-2.12-.339-.707 0-1.018.254-1.018.566 0 .537.707.537 1.527.791 1.018.283 2.149.679 2.149 2.489-.029 1.78-.933 2.997-3.167 2.997zM56.354 5.033v3.76c0 .538.254.793.876.793.198 0 .65-.029.792-.085v1.979c-.311.141-.961.254-1.64.254-1.894 0-2.771-1.074-2.771-2.77v-3.93h-.82V2.968h.933V1.244L56.297.99v1.979h1.782v2.064h-1.725zM62.631 11.763c-2.8 0-4.072-1.3-4.072-4.44 0-3.138 1.273-4.495 4.072-4.495 2.828 0 4.043 1.357 4.043 4.495.029 3.14-1.187 4.44-4.043 4.44zm.028-2.12c.933 0 1.244-.453 1.244-2.348 0-1.923-.31-2.347-1.244-2.347-.933 0-1.272.424-1.272 2.347s.34 2.347 1.272 2.347zM65.006.423l-1.414 1.81h-2.007l.622-1.81h2.8zM70.379 3.62c.565-.594 1.329-.792 2.064-.792 1.894 0 3.082 1.385 3.082 4.41 0 3.111-1.046 4.496-3.28 4.496-.962 0-1.838-.424-2.347-1.102h-.085l-.283.933h-1.838V.537L70.38.283v2.036c0 .226-.113 1.329-.113 1.329h.113v-.029zm1.102 1.498c-.48 0-.876.226-1.13.622v3.11c.226.311.593.594 1.13.594.792 0 1.216-.34 1.216-2.149.029-1.923-.367-2.177-1.216-2.177zM76.882 3.223s1.188-.424 2.94-.424c1.782 0 3.507.51 3.507 3.535v5.23h-1.895l-.31-.932h-.085s-.707 1.102-2.206 1.102c-1.583 0-2.714-.848-2.714-2.742 0-2.036 1.329-2.884 3.195-2.884.537 0 1.074.084 1.3.141v-.255c0-.508-.254-1.017-1.413-1.017-1.16 0-2.347.367-2.347.367v-2.12h.028zm3.76 5.91V7.917c-.197-.056-.48-.085-.734-.085-.962 0-1.245.425-1.245.962 0 .509.368.848.934.848.424 0 .791-.226 1.046-.509zM84.573 11.565L84.573.537 87.316.283 87.316 11.565z" transform="translate(26) translate(31.103 11.31)"/>
                                        </g>
                                        <g>
                                            <path d="M1.838 5.457c-.622 0-1.075-.085-1.499-.31v-.651c.424.254.849.367 1.358.367.65 0 .99-.31.99-.848 0-.565-.51-.735-1.047-.905C.99 2.912.254 2.686.254 1.697c0-.792.51-1.414 1.64-1.414.481 0 .934.085 1.245.226v.622C2.743.99 2.347.905 1.923.905c-.707 0-.962.367-.962.763 0 .594.65.707 1.273.905.594.198 1.16.48 1.16 1.386.027.904-.538 1.498-1.556 1.498zM4.468.339L7.295.339 7.295.961 5.203.961 5.203 2.432 7.126 2.432 7.126 3.054 5.203 3.054 5.203 4.722 7.295 4.722 7.295 5.344 4.468 5.344zM11.989 5.174c-.396.17-.961.283-1.555.283-1.584 0-2.262-.791-2.262-2.601S8.907.254 10.519.254c.509 0 1.074.114 1.442.255v.622c-.396-.141-.933-.226-1.414-.226-1.16 0-1.668.452-1.668 1.98 0 1.47.424 1.978 1.527 1.978.339 0 .622-.028.848-.084V3.252h-.99v-.594h1.725v2.516zM16.909 3.563c0 1.329-.679 1.894-1.923 1.894-1.216 0-1.923-.594-1.923-1.894V.339h.736v3.224c0 .876.395 1.244 1.187 1.244.82 0 1.188-.396 1.188-1.244V.339h.735v3.224zM21.829 5.344c-.141.057-.255.085-.396.085-.622 0-.961-.424-1.244-.905l-.679-1.216h-.678v2.064h-.735V.34h1.753c1.102 0 1.611.481 1.611 1.442 0 .82-.452 1.33-1.215 1.47l.593 1.047c.17.311.453.565.877.565h.113v.481zM19.849.961h-1.017v1.725h.99c.65 0 .932-.254.932-.905 0-.593-.282-.82-.904-.82zM24.374 5.457c-1.499 0-2.093-.763-2.093-2.601S22.875.254 24.374.254c1.498 0 2.092.764 2.092 2.602 0 1.838-.594 2.601-2.092 2.601zm0-4.58c-.99 0-1.357.424-1.357 1.95 0 1.527.395 1.98 1.357 1.98.99 0 1.357-.453 1.357-1.98 0-1.526-.368-1.95-1.357-1.95zM28.841 5.457c-.622 0-1.074-.085-1.498-.31v-.651c.424.254.848.367 1.357.367.65 0 .99-.31.99-.848 0-.565-.51-.735-1.047-.905-.65-.198-1.385-.424-1.385-1.413 0-.792.509-1.414 1.64-1.414.48 0 .933.085 1.244.226v.622C29.746.99 29.35.905 28.926.905c-.707 0-.961.367-.961.763 0 .594.65.707 1.272.905.594.198 1.16.48 1.16 1.386.056.904-.538 1.498-1.556 1.498zM31.103 6.419c.142-.481.34-1.301.396-1.895h.764c-.17.707-.48 1.527-.679 1.895h-.48zM35.684.339L38.512.339 38.512.961 36.419.961 36.419 2.432 38.342 2.432 38.342 3.054 36.419 3.054 36.419 4.722 38.512 4.722 38.512 5.344 35.684 5.344zM39.614.34h.707l2.121 3.392c.057.085.255.481.255.481h.028s-.057-.424-.057-.848V.339h.707v5.033h-.707L40.52 1.951c-.056-.085-.226-.424-.226-.424h-.028s.028.367.028.82v3.025h-.707V.34h.028zM49.992 1.103c-.255-.113-.707-.198-1.103-.198-1.075 0-1.527.48-1.527 1.923 0 1.555.452 2.007 1.527 2.007.396 0 .82-.085 1.103-.254v.622c-.311.17-.764.283-1.188.283-1.498 0-2.177-.82-2.177-2.658 0-1.754.679-2.574 2.205-2.574.425 0 .877.085 1.16.227v.622zM52.282.34h.905l1.866 5.032h-.82l-.452-1.329h-2.15l-.452 1.33h-.763L52.282.338zm-.424 3.081h1.696L52.734.99h-.028l-.848 2.431zM57.032 5.457c-.622 0-1.074-.085-1.498-.31v-.651c.424.254.848.367 1.357.367.65 0 .99-.31.99-.848 0-.565-.51-.735-1.047-.905-.65-.198-1.385-.424-1.385-1.413 0-.792.509-1.414 1.64-1.414.48 0 .933.085 1.244.226v.622c-.396-.141-.792-.226-1.216-.226-.707 0-.961.367-.961.763 0 .594.65.707 1.272.905.594.198 1.16.48 1.16 1.386.056.904-.538 1.498-1.556 1.498zM60.963.34h.905l1.866 5.032h-.82l-.453-1.329h-2.149l-.48 1.33h-.764L60.963.338zm-.424 3.081h1.696L61.415.99h-.028l-.848 2.431z" transform="translate(26) translate(31.103 11.31) translate(23.752 15.552)"/>
                                        </g>
                                    </g>
                                    <path d="M15.863 13.94c-.792-.057-.792-.792-.792-1.103 0-.933.537-.198.594-1.018 0-.17-.113-.198-.17-.198-.17 0-.198.029-.226.029-.113-.057-.368-.368-.368-.849-.226-.028-.791-.056-1.102-.339-.311.057-.396.34-.396.537 0 .198.113.481.113.538 0 .226-.311.31-.311.48 0 .113.198.17.198.311 0 .142-.113.311-.113.538 0 .31.593.48.65.48-.113.028-.226.113-.707.113-.48 0-.961-.424-1.612-.424-.678 0-2.035 1.131-3.647 1.131-.198 0-.368 0-.51-.028-.225-.198-.31-.255-.48-.424l-.056-.142c-.029-.028-.198-.113-.34-.113-.282-.17-.763-.509-.961-.509-.028 0-.057 0-.057.057 0 .028.057.17.17.226-.113-.028-.283-.056-.34-.056-.028 0-.112 0-.112.028 0 .198.395.254.735.396.254.141.537.31.537.537 0 .056 0 .141-.113.141 0 0-.396-.226-.65-.226-.114 0-.142.028-.142.113 0 .142.311.255.679.396.198.113.367.226.594.226.113 0 .339-.056.339-.056.565.198 1.103.31 1.64.31.707 0 1.95-.593 2.488-.593.142 0 .255.028.255.198 0 .65-1.753 1.442-1.753 3.252 0 1.64 1.922 2.884 3.195 2.884.594 0 1.414-.396 1.414-1.273 0-1.838-2.517-1.159-2.517-1.95 0-.057.028-.142.141-.142.113 0 .679.254 1.244.254 1.527 0 .538-2.799 2.489-3.732zm-1.64-2.347c0 .113-.113.17-.226.17-.142 0-.198-.113-.198-.198 0-.17.084-.226.339-.226.17 0 .368.056.368.17 0 0-.057.084-.283.084z" transform="translate(26)"/>
                                    <path d="M15.665 15.297c0 .255.848.34.848.537 0 .114-.056.198-.31.198-.17 0-.227-.028-.34-.056-.029.056-.085.141-.226.141-.17 0-.227-.141-.227-.141s-.028.113-.17.17c-.339.31-.395.904-.395 1.272 0 0 .141-.113.396-.113.254 0 .622.028.848.056l.48-.933c.029-.056.114-.424.566-.424.537 0 .877.424.877.537 0 .057-.029.113-.17.113-.113 0-.198-.028-.283-.056-.028.113-.141.17-.254.17-.17 0-.255-.114-.255-.255-.226.057-.367.283-.367.735 0 .481.056.735.198 1.216.735-.678 1.81-.565 1.81-2.516 0-.905-.085-1.216-.17-1.499-.227-.141-.764-.255-.905-.255-.17 0-.057.227-1.018.623-.622.254-.933.31-.933.48z" transform="translate(26)"/>
                                    <path fill="#00467F" fill-rule="nonzero" d="M14.392 37.946L3.704 13.657 2.799 14.59 14.392 40.915 25.872 14.562 24.968 13.657z" transform="translate(26)"/>
                                    <path fill="#00467F" fill-rule="nonzero" d="M15.552 12.95c0-.17 0-.31.113-.367.31-.226.933-.142.933-.679 0-.141-.057-.226-.057-.226s.425-.311.425-.905c0-.34-.368-.565-.538-.848-.367-.537-.763-.764-1.3-.764-.142 0-.198.029-.311.057-.142-.113-.34-.34-.736-.34-.367 0-.537.227-.593.34-.311.056-.481.254-.481.594 0 .226.226.424.226.424-.056.028-.367.283-.367.65 0 .311.113.48.113.594 0 .141-.311.254-.311.48 0 .17.198.312.198.397 0 .113-.057.197-.057.424-.396-.198-.707-.34-1.188-.34-1.102 0-1.781 1.16-3.958 1.16-.34-.227-.424-.34-.735-.594-.142-.113-.198-.028-.368-.113-.283-.17-.65-.368-.933-.368-.48 0-.764.226-.764.679 0 .254.198.537.538.594-.198.056-.227.226-.227.31 0 .312.312.51.849.736.198.113.537.34.876.34.17 0 .311-.03.34-.03 0 0 .933.312 1.498.312 1.3 0 1.866-.424 2.234-.537 0 .056-1.555 1.159-1.555 2.912 0 .594.226 1.131.537 1.612l-1.583.792 1.696 3.93s1.386-.057 1.64-.764c-.34-.791-.509-1.47-.509-1.922 0-.283.113-.566.198-.736.537.283 1.103.481 1.584.481.791 0 1.3-.34 1.555-.622.113.198.283.537.283 1.442 0 .962-.764 1.81-.764 1.81l-2.036 2.516c-.31.368-.424.707-.424 1.018 0 .142.028.255.057.368l2.856 6.532 4.92-11.282s-.17.056-.368.056c-.311 0-.905-.17-.905-.961 0-.877.792-1.301.792-1.301s-.057-.424-.057-.622.057-.34.198-.34c.17 0 .566.538 1.018.538.396 0 .594-.255.735-.566l3.167-7.38h-1.272l-2.715 6.221c.029-.141.34-1.131.34-1.98 0-.848-.255-1.187-.481-1.385v-.254c0-1.33-.961-1.64-1.3-1.669-.397-.028-.425-.31-1.019-.31-.933 0-1.102.424-1.583.424-.198 0-.424-.198-.424-.538zm-2.178 4.722c-.565 0-1.13-.254-1.244-.254-.113 0-.141.056-.141.141 0 .764 2.517.113 2.517 1.951 0 .877-.792 1.273-1.414 1.273-1.273 0-3.195-1.244-3.195-2.884 0-1.81 1.753-2.602 1.753-3.252 0-.17-.142-.198-.255-.198-.537 0-1.781.594-2.488.594-.537 0-1.075-.113-1.64-.311 0 0-.226.056-.34.056-.226 0-.395-.141-.593-.226-.368-.141-.679-.254-.679-.396 0-.056.028-.113.142-.113.226 0 .65.226.65.226.113 0 .113-.056.113-.141 0-.226-.254-.396-.537-.537-.34-.142-.735-.198-.735-.396 0-.028.056-.028.113-.028.056 0 .226.028.339.056-.113-.056-.17-.198-.17-.226 0-.057.029-.057.057-.057.198 0 .707.34.961.51.142 0 .311.056.34.112l.056.114c.17.17.226.226.48.424.142.028.312.028.51.028 1.612 0 2.969-1.131 3.647-1.131.65 0 1.131.424 1.612.424.48 0 .594-.057.707-.113-.028 0-.65-.17-.65-.48 0-.227.113-.397.113-.538 0-.141-.198-.198-.198-.311 0-.17.31-.226.31-.48 0-.057-.112-.34-.112-.538s.113-.48.396-.537c.31.283.876.31 1.102.34 0 .48.255.763.368.847.028 0 .057-.028.226-.028.057 0 .17.028.17.198-.057.792-.594.057-.594 1.018 0 .311 0 1.046.792 1.103-1.951.961-.962 3.76-2.489 3.76zm4.242-3.506c.141 0 .678.142.905.255.056.31.17.593.17 1.498 0 1.951-1.075 1.838-1.81 2.517-.142-.453-.198-.707-.198-1.188 0-.48.17-.678.34-.763 0 .17.112.254.254.254.14 0 .226-.056.254-.17.057.029.17.057.283.057.141 0 .17-.028.17-.113 0-.113-.34-.537-.877-.537-.48 0-.537.367-.566.424l-.48.933c-.198-.028-.566-.056-.849-.056-.254 0-.395.113-.395.113 0-.368.056-.962.395-1.273.142-.056.17-.17.17-.17s.057.142.226.142c.142 0 .198-.057.226-.141.114.028.17.056.34.056.226 0 .31-.113.31-.198 0-.198-.847-.254-.847-.537 0-.17.31-.226.933-.509.961-.368.876-.594 1.046-.594z" transform="translate(26)"/>
                                    <path fill="#00467F" fill-rule="nonzero" d="M14.11 11.31c-.227 0-.34.057-.34.227 0 .113.057.197.198.197.142 0 .226-.056.226-.17.227 0 .283-.056.283-.112.029-.057-.198-.142-.367-.142z" transform="translate(26)"/>
                                    <path fill="#00467F" fill-rule="nonzero" d="M14.392 0L14.392 0 14.392 0 0 14.336 0.452 15.382 14.392 1.527 28.134 15.326 28.587 14.251z" transform="translate(26)"/>
                                </g>
                            </g>
                        </g>
                    </g>
                </g>
            </g>
        </g>
    </g>
</svg>
