<svg xmlns="http://www.w3.org/2000/svg" xmlns:xlink="http://www.w3.org/1999/xlink" width="170" height="40" viewBox="0 0 170 40">
    <defs>
        <path id="ycxb4ohlza" d="M0 0H170V40H0z"/>
    </defs>
    <g fill="none" fill-rule="evenodd">
        <g>
            <g>
                <g>
                    <g>
                        <g transform="translate(-755 -498) translate(200 326) translate(0 157) translate(435) translate(120 15)">
                            <mask id="uvlzu413cb" fill="#fff">
                                <use xlink:href="#ycxb4ohlza"/>
                            </mask>
                            <g mask="url(#uvlzu413cb)">
                                <g>
                                    <path fill="#912569" d="M14 3.18L9.68 13.267c.287 0 .507.046.72.046h16.16c.667 0 .667 0 .667.667.089 6.837-5.026 12.626-11.822 13.38C8.608 28.112 2.35 23.583.94 16.892V16.7c.153-.01.307-.01.46 0l8.127.04c.288-.021.557.146.666.413 1.17 2.418 2.345 4.836 3.527 7.254.073.16.153.313.293.593l4.354-9.333H1.333c-.666 0-.626 0-.666-.667C.278 8.078 5.274 2.02 12.143 1.083c6.87-.936 13.305 3.564 14.784 10.337 0 .14 0 .287.053.473h-8.667c-.316.034-.613-.162-.706-.466-1.1-2.54-2.214-5.08-3.334-7.614-.04-.166-.126-.333-.273-.633zM64.627 4.44v7.667H62.16V.88c.697.043 1.396.043 2.093 0 .834-.18 1.667.306 1.92 1.12.814 1.647 1.767 3.22 2.667 4.827.081.161.197.302.34.413V.92h2.527v11.22H69.2c-.127 0-.28-.233-.367-.393-1.27-2.294-2.54-4.59-3.806-6.887-.087-.153-.174-.293-.26-.44l-.14.02zM86.9 22.847c.38-.274.707-.48 1-.734 1.06-.915 1.445-2.39.967-3.706-.361-1.191-1.476-1.992-2.72-1.954-1.494-.093-2.994-.073-4.487-.1h-1.333v10.58c-.014.129-.014.258 0 .387 0 .087.113.233.173.233h2.587v-4.046c.98-.147.986-.147 1.513.546.804 1.067 1.613 2.131 2.427 3.194.093.12.226.3.346.3h3.267l-3.74-4.7zm-.713-2.934c.004.701-.483 1.31-1.167 1.46-.253.054-.509.087-.767.1h-1.16V18.3c.753.035 1.502.108 2.247.22.613.147.893.687.847 1.393zM109.333 7.373c.26-.173.48-.3.667-.453 1.23-.883 1.765-2.449 1.333-3.9-.434-1.262-1.64-2.094-2.973-2.053-1.693-.074-3.387-.04-5.073-.094-.46 0-.567.134-.567.567v10.153c0 .174 0 .34.04.52h2.7V8.06c.94-.18 1.02-.147 1.527.513.813 1.08 1.626 2.16 2.453 3.234.113.14.287.313.44.32h3.187l-3.734-4.754zm-2-4.413c.66-.039 1.23.455 1.287 1.113.087.927-.26 1.64-1.007 1.794-.616.103-1.242.143-1.866.12-.08 0-.22-.2-.227-.32V4.46v-.607V3.4c0-.36.087-.54.487-.507" transform="translate(29 10)"/>
                                    <path d="M95.887 8.74c-.307.96-1.22 1.594-2.227 1.547-.99.026-1.873-.621-2.147-1.574-.258-.709-.387-1.458-.38-2.213.014-.801.17-1.593.46-2.34.295-.895 1.153-1.48 2.094-1.427.936-.04 1.794.524 2.126 1.4.647 1.463.674 3.125.074 4.607z" transform="translate(29 10)"/>
                                    <path fill="#912569" fill-rule="nonzero" d="M93.68.667C91.013.667 89.153 2 88.5 4.493c-.297 1.11-.343 2.271-.133 3.4.36 2.06 1.413 3.607 3.5 4.2.795.198 1.615.277 2.433.234 2.075-.017 3.89-1.403 4.453-3.4.269-.925.392-1.885.367-2.847-.087-3.367-2.18-5.413-5.44-5.413zm2.207 8.066c-.307.96-1.22 1.595-2.227 1.547-.99.026-1.873-.62-2.147-1.573-.258-.71-.387-1.459-.38-2.214.014-.8.17-1.593.46-2.34.295-.894 1.153-1.48 2.094-1.426.936-.041 1.794.523 2.126 1.4.65 1.464.676 3.129.074 4.613v-.007z" transform="translate(29 10)"/>
                                    <path fill="#912569" d="M102.247 20.527c-.22-2.055-1.715-3.746-3.727-4.214-.739-.152-1.495-.201-2.247-.146-1.97.033-3.707 1.3-4.34 3.166-.414 1.125-.553 2.331-.406 3.52.26 2.86 1.94 4.667 4.8 4.954 2.353.233 4.46-.627 5.486-2.907.397-.922.592-1.917.574-2.92-.047-.493-.074-.973-.14-1.453zm-3.334 4.066c-.39.73-1.152 1.185-1.98 1.185-.828 0-1.588-.455-1.98-1.185-.912-1.644-.9-3.647.034-5.28.396-.717 1.154-1.159 1.973-1.152.82.007 1.569.462 1.953 1.186.45.813.651 1.74.58 2.666.068.9-.136 1.799-.586 2.58h.006zM62.787 25.713V23.48H61.1c-.36 0-.493-.107-.467-.467.02-.386.02-.773 0-1.16 0-.273.074-.42.38-.413h4.114c.26 0 .373.08.373.36v4.833c-.009.163-.1.311-.24.394-1.94.666-3.913 1.093-5.96.513-2.08-.538-3.591-2.333-3.767-4.473-.126-.977-.074-1.969.154-2.927.543-2.222 2.47-3.83 4.753-3.967 1.597-.186 3.214.08 4.667.767.247.075.407.316.38.573v2.28c-.205-.11-.403-.233-.594-.366-.662-.57-1.454-.971-2.306-1.167-2.38-.473-4.14.933-4.24 3.373-.012.467.019.933.093 1.394.18.955.754 1.79 1.58 2.302.828.51 1.832.65 2.767.384zM68.133 16.38h2.76V23.86c-.012.68.34 1.315.924 1.665.583.35 1.31.36 1.903.028.671-.336 1.062-1.054.98-1.8V16.38h2.74v7.227c-.008.683-.137 1.36-.38 2-.494 1.174-1.587 1.986-2.853 2.12-1.126.23-2.29.182-3.394-.14-1.543-.376-2.639-1.746-2.666-3.334-.067-2.626-.014-5.22-.014-7.873zM104.033 24.18l.574.387c1.17.907 2.647 1.325 4.12 1.166.302-.037.596-.127.866-.266.35-.147.576-.488.576-.867s-.227-.72-.576-.867c-.565-.225-1.147-.407-1.74-.546-.729-.186-1.442-.43-2.133-.727-.896-.48-1.502-1.367-1.625-2.376-.124-1.009.251-2.015 1.005-2.697.818-.72 1.853-1.144 2.94-1.207 1.386-.113 2.78.073 4.087.547.125.02.237.091.31.195.075.104.104.232.083.358v2.227l-.527-.347c-.975-.732-2.183-1.085-3.4-.993-.414.034-.815.162-1.173.373-.323.162-.517.503-.49.863.026.361.267.67.61.784.59.204 1.191.378 1.8.52.607.152 1.204.344 1.787.573.939.408 1.62 1.247 1.828 2.25.206 1.003-.087 2.044-.788 2.79-.775.816-1.825 1.315-2.947 1.4-1.642.195-3.306-.035-4.833-.667-.24-.056-.397-.283-.367-.526.033-.714.013-1.454.013-2.347zM43.507 4.04l-.58-.36c-1.09-.804-2.457-1.135-3.794-.92-.079.01-.157.029-.233.053-.627.207-.987.594-.993 1.054-.007.46.286.8.986 1.026.914.267 1.847.447 2.747.74 1.119.248 1.992 1.122 2.24 2.24.37 1.614-.475 3.259-2 3.9-1.057.5-2.234.685-3.393.534-1.044-.17-2.08-.392-3.1-.667-.3-.067-.4-.253-.387-.56V8.753l.567.374c1.212.935 2.75 1.344 4.266 1.133.177-.028.349-.078.514-.147.432-.128.734-.516.753-.966.018-.432-.255-.822-.667-.954-.56-.2-1.146-.313-1.713-.486-.667-.172-1.32-.395-1.953-.667-.947-.476-1.587-1.4-1.7-2.454-.114-1.054.316-2.093 1.14-2.76C37.345.92 38.805.519 40.247.714c.968.133 1.927.322 2.873.567.293.06.407.227.4.547-.033.693-.013 1.38-.013 2.213zM35.02 24.18l.533.38c1.175.905 2.651 1.327 4.127 1.18h.093c.78-.093 1.334-.533 1.334-1.093 0-.56-.334-.96-1.107-1.18-.773-.22-1.573-.354-2.333-.594-1.127-.36-2.087-.94-2.434-2.193-.45-1.407.131-2.938 1.4-3.693 1.238-.753 2.706-1.032 4.134-.787.825.133 1.64.322 2.44.567.162.07.281.214.32.386.033.734 0 1.48 0 2.314-.207-.114-.36-.18-.487-.267-.998-.761-2.242-1.129-3.493-1.033-.4.033-.788.156-1.134.36-.33.163-.527.511-.498.878.03.367.28.68.632.788.592.203 1.195.375 1.806.514.59.153 1.171.34 1.74.56.966.425 1.658 1.303 1.845 2.341.187 1.04-.154 2.103-.911 2.839-.761.734-1.753 1.182-2.807 1.266-1.622.209-3.27-.002-4.787-.613-.28-.107-.413-.233-.406-.547.006-.74-.007-1.48-.007-2.373zM57.913 11.92c-1.213-3.58-2.42-7.16-3.646-10.74-.094-.161-.261-.266-.447-.28h-2.273c-.258-.04-.5.136-.54.393-1.174 3.494-2.351 6.987-3.534 10.48-.034.13-.06.261-.08.394h2.454c.155-.035.284-.141.346-.287.2-.56.347-1.14.554-1.7.073-.155.217-.264.386-.293h2.954c.182.03.338.147.42.313.206.54.346 1.107.54 1.647.046.133.213.32.326.32h2.54c.01-.082.01-.165 0-.247zM51.44 7.807L52.553 4.2h.134c.366 1.193.74 2.38 1.126 3.62l-2.373-.013zM53.567 16.353v2.067h-4.794v1.873c0 .074.267.194.414.194H53.14v2.086h-3.987c-.293 0-.4.1-.4.394v2.126c0 .334.154.407.44.407h3.727c.667 0 .667 0 .667.667v1.366c-.214 0-.387.04-.56.04H46.6c-.48 0-.593-.16-.593-.613V16.907c0-.42.086-.587.553-.58h6.48l.527.026zM84.727 8.667v2.513c-.022.117-.096.217-.2.273-1.76.975-3.848 1.164-5.754.52-2-.666-3-2.273-3.273-4.326-.15-1.025-.096-2.07.16-3.074.506-2.199 2.413-3.793 4.667-3.9 1.39-.128 2.788.123 4.046.727.248.075.408.316.38.573V4.28c-.191-.094-.376-.2-.553-.32-.625-.587-1.393-1-2.227-1.2-1.434-.32-2.877.503-3.333 1.9-.44 1.138-.46 2.396-.053 3.547.235.794.796 1.45 1.544 1.806.747.356 1.611.378 2.376.06.594-.282 1.16-.62 1.693-1.006.113-.074.26-.187.527-.4z" transform="translate(29 10)"/>
                                </g>
                            </g>
                        </g>
                    </g>
                </g>
            </g>
        </g>
    </g>
</svg>
