<svg xmlns="http://www.w3.org/2000/svg" xmlns:xlink="http://www.w3.org/1999/xlink" width="170" height="40" viewBox="0 0 170 40">
    <defs>
        <path id="kcndpur12a" d="M0 0H170V40H0z"/>
        <path id="ayi8xdz1gc" d="M0 0L28.314 0 28.314 34.851 0 34.851z"/>
    </defs>
    <g fill="none" fill-rule="evenodd">
        <g>
            <g>
                <g>
                    <g>
                        <g transform="translate(-321 -754) translate(200 326) translate(0 157) translate(0 256) translate(121 15)">
                            <mask id="k2h25ouc6b" fill="#fff">
                                <use xlink:href="#kcndpur12a"/>
                            </mask>
                            <g mask="url(#k2h25ouc6b)">
                                <g>
                                    <path fill="#0030A6" fill-rule="nonzero" d="M62.376 19.717c0 2.632-1.513 5.132-4.784 5.132-2.935 0-5.04-1.965-4.896-6.708.126-4.548 2.313-6.545 5.212-6.545.225 0 .437-.007.64-.022h3.828v8.143zM58.602 8.52v.003h-.834c-4.414.013-8.56 3.248-8.738 9.58-.164 5.764 2.833 9.789 7.902 9.789 4.171 0 5.633-2.903 5.633-2.903.244 1.937 1.287 2.538 3.39 2.538V8.52M29.063 8.377l.015 13.196c0 1.915-1.59 2.89-3.69 2.89-2.21 0-3.671-.975-3.671-2.89l-.013-9.874c-.01-2.815-1.774-3.326-3.32-3.326V22.38c0 3.53 3.181 5.27 6.901 5.27 3.595 0 7.129-1.74 7.129-5.27L32.4 12.12c0-2.765-1.029-3.744-3.338-3.744M37.193 15.647v11.756l3.324.002v-11.87c0-2.52 1.345-4.038 3.914-4.038h.986c2.909 0 3.378-1.5 3.378-3.124h-4.647c-4.124 0-6.955 2.386-6.955 7.274M9.808 16.894l-4.072-1.118c-1.115-.303-2.132-.794-2.132-2.161 0-1.42.855-2.118 2.662-2.118H9.88c1.6 0 3.503-.516 3.503-3.12l-6.801.005C2.396 8.387 0 10.499 0 13.526c0 2.82 1.785 4.42 4.978 5.264l3.544.933c1.462.393 1.984 1.307 1.984 2.253 0 1.421-.895 2.278-3.095 2.304l-6.786.048v3.075h6.9c4.188 0 6.587-2.248 6.587-5.212 0-2.982-1.175-4.443-4.304-5.297" transform="translate(36 5)"/>
                                    <g transform="translate(36 5) translate(70)">
                                        <mask id="bls1skjcsd" fill="#fff">
                                            <use xlink:href="#ayi8xdz1gc"/>
                                        </mask>
                                        <path fill="#00ABC3" d="M26.767 14.231c.032.012.05.041.048.068-.01.035-.04.062-.096.055-.553-.161-1.726-.487-3.21-.893-3.39-.932-16.206-4.365-16.42-4.426l-.058-.02c-.77-.24-1.402-.622-1.885-1.147-.144-.15-.272-.315-.392-.499-.428-.657-.534-1.613-.557-1.789 0-.019.01-.055.033-.08.024-.024.06-.036.128-.021l2.096.82c4.972 1.93 18.169 7.06 20.313 7.932m-2.146-2.035c.016.086-.022.111-.088.098-.755-.386-2.455-1.198-4.163-2.048-1.447-.722-11.339-5.382-12.009-5.729L7.18 3.911c-.176-.087-.334-.188-.49-.283-.468-.283-.71-.49-.964-.814-.21-.263-.371-.598-.501-.912-.282-.713-.268-1.645-.252-1.814 0-.022.014-.058.05-.073.026-.017.058-.02.124.004l1.23.755.663.405 3.62 2.212c5.052 3.151 12.122 7.648 13.962 8.805m3.635 3.406c.036.007.06.036.057.073-.002.032-.034.053-.078.053-1.955-.142-19.506-1.37-19.506-1.37-.164-.015-.293-.03-.45-.08-1.392-.445-2.204-1.515-2.527-2.592-.012-.043-.021-.08 0-.118.02-.032.069-.056.109-.046.004 0 20.69 3.763 22.395 4.08m-.867 1.183c.038.003.069.04.065.075-.002.027-.027.051-.059.054-.73.115-14.073 1.936-14.169 1.95-.074.013-.153.02-.237.021-.07 0-.148 0-.222-.011-.634-.068-1.252-.377-1.804-.964-.286-.3-.538-.78-.608-.972-.016-.027-.016-.061.005-.087.02-.035.06-.05.085-.055 0 0 4.484-.008 7.303-.004 2.104.004 4.35.006 6.176.006 1.585 0 2.846-.002 3.465-.013m-1.008 1.374c.03-.005.082-.012.089.018.003.018.047.056-.02.098-.437.283-10.035 4.244-10.127 4.277-.529.182-1.114.273-1.541-.451-.18-.303-.337-.548-.405-.662-.03-.046-.135-.16.146-.23 0 0 2.707-.726 5.11-1.332 2.777-.696 5.92-1.493 6.748-1.718m-4.235 6.626c.042.008.069.04.048.111-.929 1.071-4.353 4.837-5.904 6.49-.16.168-.244.09-.181-.077 0 0 .295-.736.42-1.304.078-.347.159-.625.346-.781 2.013-1.693 3.94-3.372 5.215-4.418l.056-.021zm3.162-4.77c.04.01.065.04.04.12-.936.786-5.23 4.363-7.543 6.256l-.082.07c-.67.506-1.122.624-1.195-.484-.02-.27-.057-.49-.057-.49-.04-.233.03-.227.12-.28.752-.464 2.195-1.269 3.346-1.956 2.049-1.223 4.446-2.676 5.37-3.235m-10.37 9.462c.036.004.067.036.052.103-.368.49-.979 1.044-1.774 1.608-.785.556-1.706 1.094-2.665 1.557-1.018.486-1.91.89-2.847 1.135-1.047.274-1.963.37-2.722.282-.61-.069-1.115-.254-1.5-.56-.022-.021-.03-.052-.028-.077.006-.047.045-.08.096-.093 2.352-.378 4.519-.958 6.528-1.652 1.982-.68 3.64-1.472 4.86-2.303m-.192-1.138c-1.276.758-3.887 1.868-6.17 2.514-2.717.771-4.897 1.146-6.361.932-1.277-.19-1.918-.784-2.111-1.005-.028-.03-.063-.063-.05-.099.006-.044.047-.085.1-.091l.499-.035c1.08-.076 3.026-.124 5.295-.45 2.624-.384 6.835-1.132 8.765-1.886.042.009.07.04.033.12m-.222 3.351c.041.004.07.035.057.102-.475 1.132-1.015 1.987-2.07 2.518-1.848.924-2.818.397-2.947.332-.036-.017-.063-.06-.061-.101.007-.04.04-.079.083-.082.804-.248 3.23-1.147 4.882-2.755.012-.01.038-.015.056-.014" mask="url(#bls1skjcsd)"/>
                                    </g>
                                </g>
                            </g>
                        </g>
                    </g>
                </g>
            </g>
        </g>
    </g>
</svg>
